# Blender 5.0.0
# www.blender.org
mtllib campus_buildings.mtl
o None_buildings
v -147.042297 -123.443848 3.053085
v -141.669342 -124.234314 3.053085
v -143.451889 -138.650146 3.053085
v -100.381111 -144.116592 3.053085
v -98.598633 -129.622818 3.053085
v -93.077858 -130.301941 3.053085
v -90.069405 -106.156776 3.053085
v -95.598862 -105.410873 3.053085
v -94.216362 -93.989510 3.053085
v -104.014603 -92.831665 3.053085
v -102.510368 -81.054077 3.053085
v -102.058281 -80.976158 3.053085
v -102.153900 -80.152397 3.053085
v -103.579735 -80.341621 3.053085
v -104.822983 -79.840668 3.053085
v -106.240128 -80.018761 3.053085
v -107.579010 -79.495537 3.053085
v -108.970062 -79.684761 3.053085
v -110.300255 -79.161545 3.053085
v -111.691307 -79.350769 3.053085
v -113.021500 -78.816414 3.053085
v -114.421249 -78.994507 3.053085
v -115.768829 -78.471283 3.053085
v -117.177269 -78.638245 3.053085
v -118.524849 -78.126152 3.053085
v -119.889824 -78.326508 3.053085
v -121.272179 -77.781021 3.053085
v -122.628456 -77.970245 3.053085
v -123.958641 -77.435890 3.053085
v -125.384476 -77.647377 3.053085
v -126.575562 -77.190948 3.053085
v -126.836395 -77.892258 3.053085
v -126.419083 -78.059242 3.053085
v -127.958138 -90.437943 3.053085
v -142.685913 -88.578659 3.053085
v -147.042297 -123.443848 10.680817
v -141.669342 -124.234314 10.680817
v -143.451889 -138.650146 10.680817
v -100.381111 -144.116592 10.680817
v -98.598633 -129.622818 10.680817
v -93.077858 -130.301941 10.680817
v -90.069405 -106.156776 10.680817
v -95.598862 -105.410873 10.680817
v -94.216362 -93.989510 10.680817
v -104.014603 -92.831665 10.680817
v -102.510368 -81.054077 10.680817
v -102.058281 -80.976158 10.680817
v -102.153900 -80.152397 10.680817
v -103.579735 -80.341621 10.680817
v -104.822983 -79.840668 10.680817
v -106.240128 -80.018761 10.680817
v -107.579010 -79.495537 10.680817
v -108.970062 -79.684761 10.680817
v -110.300255 -79.161545 10.680817
v -111.691307 -79.350769 10.680817
v -113.021500 -78.816414 10.680817
v -114.421249 -78.994507 10.680817
v -115.768829 -78.471283 10.680817
v -117.177269 -78.638245 10.680817
v -118.524849 -78.126152 10.680817
v -119.889824 -78.326508 10.680817
v -121.272179 -77.781021 10.680817
v -122.628456 -77.970245 10.680817
v -123.958641 -77.435890 10.680817
v -125.384476 -77.647377 10.680817
v -126.575562 -77.190948 10.680817
v -126.836395 -77.892258 10.680817
v -126.419083 -78.059242 10.680817
v -127.958138 -90.437943 10.680817
v -142.685913 -88.578659 10.680817
v 3.140209 40.940292 3.076920
v 3.192373 41.318779 3.076920
v 5.148514 41.096142 3.076920
v 7.313294 58.551041 3.076920
v 8.478283 58.395191 3.076920
v 8.869507 61.456478 3.076920
v 9.704124 62.102135 3.076920
v 9.938858 63.994564 3.076920
v 9.286812 64.851723 3.076920
v 10.199665 72.365791 3.076920
v 3.992202 73.111626 3.076920
v 3.861793 71.864845 3.076920
v -4.501764 72.989174 3.076920
v -4.493070 73.735016 3.076920
v -4.232252 73.924255 3.076920
v -4.127924 74.748024 3.076920
v -4.632172 75.360283 3.076920
v -5.405931 75.460464 3.076920
v -6.040587 74.970665 3.076920
v -10.387542 80.547775 3.076920
v -9.744191 81.070976 3.076920
v -9.683333 81.872475 3.076920
v -10.187579 82.462471 3.076920
v -10.961338 82.551529 3.076920
v -11.213462 82.328888 3.076920
v -11.952445 82.395676 3.076920
v -10.909163 91.601799 3.076920
v -11.587287 91.679726 3.076920
v -11.456876 93.082352 3.076920
v -10.396220 92.959900 3.076920
v -9.709394 98.648323 3.076920
v -10.743968 98.781906 3.076920
v -10.474454 101.097351 3.076920
v -11.691600 101.253204 3.076920
v -11.300369 104.949005 3.076920
v -27.992634 106.852615 3.076920
v -27.905691 107.654114 3.076920
v -38.242718 108.845276 3.076920
v -38.320969 108.121696 3.076920
v -39.007786 108.210754 3.076920
v -39.564217 103.501945 3.076920
v -39.920666 103.546471 3.076920
v -42.381142 83.820671 3.076920
v -45.928257 84.265968 3.076920
v -46.302113 81.271477 3.076920
v -45.910885 81.204681 3.076920
v -45.971748 80.648087 3.076920
v -41.746506 80.169388 3.076920
v -41.998642 77.998665 3.076920
v -21.741812 75.549553 3.076920
v -21.941776 73.946548 3.076920
v -22.985050 73.111656 3.076920
v -23.098074 72.310158 3.076920
v -22.567745 71.697899 3.076920
v -21.767904 71.608841 3.076920
v -21.159328 72.065247 3.076920
v -16.821072 66.510399 3.076920
v -17.429647 66.009460 3.076920
v -17.516588 65.196831 3.076920
v -17.021036 64.573441 3.076920
v -16.221193 64.484383 3.076920
v -15.212695 65.297012 3.076920
v -13.613012 65.085503 3.076920
v -15.847389 47.074013 3.076920
v -15.551795 47.040615 3.076920
v -15.951723 43.723297 3.076920
v -0.641663 41.853111 3.076920
v -0.693827 41.396702 3.076920
v 3.140209 40.940292 17.263412
v 3.192373 41.318779 17.263412
v 5.148514 41.096142 17.263412
v 7.313294 58.551041 17.263412
v 8.478283 58.395191 17.263412
v 8.869507 61.456478 17.263412
v 9.704124 62.102135 17.263412
v 9.938858 63.994564 17.263412
v 9.286812 64.851723 17.263412
v 10.199665 72.365791 17.263412
v 3.992202 73.111626 17.263412
v 3.861793 71.864845 17.263412
v -4.501764 72.989174 17.263412
v -4.493070 73.735016 17.263412
v -4.232252 73.924255 17.263412
v -4.127924 74.748024 17.263412
v -4.632172 75.360283 17.263412
v -5.405931 75.460464 17.263412
v -6.040587 74.970665 17.263412
v -10.387542 80.547775 17.263412
v -9.744191 81.070976 17.263412
v -9.683333 81.872475 17.263412
v -10.187579 82.462471 17.263412
v -10.961338 82.551529 17.263412
v -11.213462 82.328888 17.263412
v -11.952445 82.395676 17.263412
v -10.909163 91.601799 17.263412
v -11.587287 91.679726 17.263412
v -11.456876 93.082352 17.263412
v -10.396220 92.959900 17.263412
v -9.709394 98.648323 17.263412
v -10.743968 98.781906 17.263412
v -10.474454 101.097351 17.263412
v -11.691600 101.253204 17.263412
v -11.300369 104.949005 17.263412
v -27.992634 106.852615 17.263412
v -27.905691 107.654114 17.263412
v -38.242718 108.845276 17.263412
v -38.320969 108.121696 17.263412
v -39.007786 108.210754 17.263412
v -39.564217 103.501945 17.263412
v -39.920666 103.546471 17.263412
v -42.381142 83.820671 17.263412
v -45.928257 84.265968 17.263412
v -46.302113 81.271477 17.263412
v -45.910885 81.204681 17.263412
v -45.971748 80.648087 17.263412
v -41.746506 80.169388 17.263412
v -41.998642 77.998665 17.263412
v -21.741812 75.549553 17.263412
v -21.941776 73.946548 17.263412
v -22.985050 73.111656 17.263412
v -23.098074 72.310158 17.263412
v -22.567745 71.697899 17.263412
v -21.767904 71.608841 17.263412
v -21.159328 72.065247 17.263412
v -16.821072 66.510399 17.263412
v -17.429647 66.009460 17.263412
v -17.516588 65.196831 17.263412
v -17.021036 64.573441 17.263412
v -16.221193 64.484383 17.263412
v -15.212695 65.297012 17.263412
v -13.613012 65.085503 17.263412
v -15.847389 47.074013 17.263412
v -15.551795 47.040615 17.263412
v -15.951723 43.723297 17.263412
v -0.641663 41.853111 17.263412
v -0.693827 41.396702 17.263412
v -49.718681 103.746902 4.711487
v -49.388298 106.529892 4.711487
v -59.777485 107.810135 4.711487
v -59.960068 106.240532 4.711487
v -65.411133 106.964149 4.711487
v -65.367661 107.298111 4.711487
v -97.978386 111.305946 4.711487
v -98.021858 110.983116 4.711487
v -103.394669 111.628838 4.711487
v -103.220772 113.187309 4.711487
v -113.653412 114.434227 4.711487
v -114.018600 111.539925 4.711487
v -116.452881 111.829391 4.711487
v -116.313759 113.220886 4.711487
v -123.625298 114.167213 4.711487
v -125.694710 97.413658 4.711487
v -122.312790 97.012856 4.711487
v -122.782310 93.528564 4.711487
v -122.278069 93.484032 4.711487
v -122.573700 90.957085 4.711487
v -123.060555 91.001617 4.711487
v -123.799629 84.834526 4.711487
v -124.642937 84.934731 4.711487
v -126.164574 72.244331 4.711487
v -125.329964 72.132996 4.711487
v -125.842964 68.448334 4.711487
v -116.601334 67.212547 4.711487
v -115.723114 76.173752 4.711487
v -109.854729 75.405563 4.711487
v -109.932983 74.581802 4.711487
v -92.501686 72.666885 4.711487
v -92.658195 71.219734 4.711487
v -89.606628 70.852341 4.711487
v -89.641411 70.440460 4.711487
v -83.181831 69.650024 4.711487
v -83.120964 70.006241 4.711487
v -80.104179 69.627724 4.711487
v -79.886818 71.063744 4.711487
v -62.525059 68.892860 4.711487
v -62.420727 69.516251 4.711487
v -56.787064 68.826027 4.711487
v -57.873871 59.965004 4.711487
v -48.597443 58.862877 4.711487
v -48.162724 62.647739 4.711487
v -47.319412 62.547546 4.711487
v -45.780514 75.193428 4.711487
v -46.623821 75.282494 4.711487
v -45.910885 81.204681 4.711487
v -46.302113 81.271477 4.711487
v -45.928257 84.265968 4.711487
v -42.381142 83.820671 4.711487
v -39.877193 103.869301 4.711487
v -47.301773 104.793289 4.711487
v -47.484352 103.468590 4.711487
v -49.718681 103.746902 19.214279
v -49.388298 106.529892 19.214279
v -59.777485 107.810135 19.214279
v -59.960068 106.240532 19.214279
v -65.411133 106.964149 19.214279
v -65.367661 107.298111 19.214279
v -97.978386 111.305946 19.214279
v -98.021858 110.983116 19.214279
v -103.394669 111.628838 19.214279
v -103.220772 113.187309 19.214279
v -113.653412 114.434227 19.214279
v -114.018600 111.539925 19.214279
v -116.452881 111.829391 19.214279
v -116.313759 113.220886 19.214279
v -123.625298 114.167213 19.214279
v -125.694710 97.413658 19.214279
v -122.312790 97.012856 19.214279
v -122.782310 93.528564 19.214279
v -122.278069 93.484032 19.214279
v -122.573700 90.957085 19.214279
v -123.060555 91.001617 19.214279
v -123.799629 84.834526 19.214279
v -124.642937 84.934731 19.214279
v -126.164574 72.244331 19.214279
v -125.329964 72.132996 19.214279
v -125.842964 68.448334 19.214279
v -116.601334 67.212547 19.214279
v -115.723114 76.173752 19.214279
v -109.854729 75.405563 19.214279
v -109.932983 74.581802 19.214279
v -92.501686 72.666885 19.214279
v -92.658195 71.219734 19.214279
v -89.606628 70.852341 19.214279
v -89.641411 70.440460 19.214279
v -83.181831 69.650024 19.214279
v -83.120964 70.006241 19.214279
v -80.104179 69.627724 19.214279
v -79.886818 71.063744 19.214279
v -62.525059 68.892860 19.214279
v -62.420727 69.516251 19.214279
v -56.787064 68.826027 19.214279
v -57.873871 59.965004 19.214279
v -48.597443 58.862877 19.214279
v -48.162724 62.647739 19.214279
v -47.319412 62.547546 19.214279
v -45.780514 75.193428 19.214279
v -46.623821 75.282494 19.214279
v -45.910885 81.204681 19.214279
v -46.302113 81.271477 19.214279
v -45.928257 84.265968 19.214279
v -42.381142 83.820671 19.214279
v -39.877193 103.869301 19.214279
v -47.301773 104.793289 19.214279
v -47.484352 103.468590 19.214279
v -206.440872 -131.357346 4.436279
v -161.822617 -137.135849 4.436279
v -156.292282 -93.298347 4.436279
v -200.945068 -87.675720 4.436279
v -206.440872 -131.357346 21.116959
v -161.822617 -137.135849 21.116959
v -156.292282 -93.298347 21.116959
v -200.945068 -87.675720 21.116959
v -198.237473 62.227043 4.826797
v -200.089294 61.781811 4.826797
v -199.872025 58.675991 4.826797
v -198.741837 58.097103 4.826797
v -199.585312 51.373425 4.826797
v -196.368561 50.961464 4.826797
v -196.838120 47.399250 4.826797
v -196.255630 47.310181 4.826797
v -196.473022 45.373226 4.826797
v -197.064209 45.451164 4.826797
v -197.559875 41.343491 4.826797
v -199.394302 40.853729 4.826797
v -196.968933 31.246796 4.826797
v -192.726288 30.690096 4.826797
v -192.613235 31.703100 4.826797
v -183.415039 30.534029 4.826797
v -183.815048 27.250113 4.826797
v -184.032394 27.216722 4.826797
v -184.119339 26.593334 4.826797
v -183.632492 26.426344 4.826797
v -184.215073 22.864134 4.826797
v -144.179382 17.831669 4.826797
v -144.179382 17.642426 4.826797
v -143.527328 17.553358 4.826797
v -143.475159 17.742601 4.826797
v -140.866974 17.419727 4.826797
v -140.858276 17.230484 4.826797
v -140.197540 17.141417 4.826797
v -140.119293 17.430847 4.826797
v -139.884552 17.608953 4.826797
v -139.780228 17.620083 4.826797
v -138.588974 27.371651 4.826797
v -134.946198 27.594227 4.826797
v -135.615417 40.240131 4.826797
v -140.336227 40.774548 4.826797
v -139.779739 44.893360 4.826797
v -173.486130 49.079632 4.826797
v -171.790512 62.872082 4.826797
v -177.745834 63.629185 4.826797
v -177.398010 66.412163 4.826797
v -197.402695 68.906189 4.826797
v -198.237473 62.227043 14.716217
v -200.089294 61.781811 14.716217
v -199.872025 58.675991 14.716217
v -198.741837 58.097103 14.716217
v -199.585312 51.373425 14.716217
v -196.368561 50.961464 14.716217
v -196.838120 47.399250 14.716217
v -196.255630 47.310181 14.716217
v -196.473022 45.373226 14.716217
v -197.064209 45.451164 14.716217
v -197.559875 41.343491 14.716217
v -199.394302 40.853729 14.716217
v -196.968933 31.246796 14.716217
v -192.726288 30.690096 14.716217
v -192.613235 31.703100 14.716217
v -183.415039 30.534029 14.716217
v -183.815048 27.250113 14.716217
v -184.032394 27.216722 14.716217
v -184.119339 26.593334 14.716217
v -183.632492 26.426344 14.716217
v -184.215073 22.864134 14.716217
v -144.179382 17.831669 14.716217
v -144.179382 17.642426 14.716217
v -143.527328 17.553358 14.716217
v -143.475159 17.742601 14.716217
v -140.866974 17.419727 14.716217
v -140.858276 17.230484 14.716217
v -140.197540 17.141417 14.716217
v -140.119293 17.430847 14.716217
v -139.884552 17.608953 14.716217
v -139.780228 17.620083 14.716217
v -138.588974 27.371651 14.716217
v -134.946198 27.594227 14.716217
v -135.615417 40.240131 14.716217
v -140.336227 40.774548 14.716217
v -139.779739 44.893360 14.716217
v -173.486130 49.079632 14.716217
v -171.790512 62.872082 14.716217
v -177.745834 63.629185 14.716217
v -177.398010 66.412163 14.716217
v -197.402695 68.906189 14.716217
v -245.276657 -99.463211 5.614197
v -228.366669 -101.645576 5.614197
v -223.662125 -65.177444 5.614197
v -240.572037 -62.995087 5.614197
v -245.276657 -99.463211 13.263397
v -228.366669 -101.645576 13.263397
v -223.662125 -65.177444 13.263397
v -240.572037 -62.995087 13.263397
v -231.554169 9.607217 5.420242
v -214.496613 7.469405 5.420242
v -210.705154 40.408741 5.420242
v -227.736572 42.457489 5.420242
v -231.554169 9.607217 12.733734
v -214.496613 7.469405 12.733734
v -210.705154 40.408741 12.733734
v -227.736572 42.457489 12.733734
v -14.039053 43.467258 3.076920
v -14.282487 41.474640 3.076920
v -16.186464 41.708412 3.076920
v -17.473192 31.444759 3.076920
v -15.647459 31.210983 3.076920
v -15.777871 30.108921 3.076920
v -17.160212 30.275904 3.076920
v -19.368525 12.386867 3.076920
v -42.485832 15.292395 3.076920
v -43.085747 10.505660 3.076920
v -45.146221 10.750574 3.076920
v -46.215630 2.390486 3.076920
v -45.902645 2.334825 3.076920
v -47.302448 -8.919568 3.076920
v -46.998158 -8.952966 3.076920
v -47.232906 -11.012375 3.076920
v -45.337612 -11.246157 3.076920
v -45.563667 -13.027267 3.076920
v -43.433636 -13.272182 3.076920
v -43.511883 -13.984626 3.076920
v -41.755692 -14.207274 3.076920
v -41.668751 -13.505962 3.076920
v -39.330059 -13.806537 3.076920
v -39.408310 -14.496717 3.076920
v -37.634731 -14.741629 3.076920
v -37.556480 -14.040316 3.076920
v -35.426445 -14.307492 3.076920
v -35.269947 -13.071847 3.076920
v -14.891171 -15.665655 3.076920
v -14.752065 -14.652648 3.076920
v -10.978860 -15.086801 3.076920
v -9.422616 -2.730339 3.076920
v -5.171246 -3.231280 3.076920
v -4.484416 1.956208 3.076920
v 0.279898 1.355081 3.076920
v 0.366838 1.911679 3.076920
v 1.392730 1.744699 3.076920
v 3.088056 15.258886 3.076920
v 2.062165 15.392469 3.076920
v 3.531444 27.381578 3.076920
v 4.600803 27.236864 3.076920
v 5.418032 34.060749 3.076920
v 4.418225 34.160934 3.076920
v 4.461695 34.739799 3.076920
v -0.850319 35.429977 3.076920
v -0.111332 41.352173 3.076920
v -0.693827 41.396702 16.401215
v -0.641663 41.853111 16.401215
v -14.039053 43.467258 16.401215
v -14.282487 41.474640 16.401215
v -16.186464 41.708412 16.401215
v -17.473192 31.444759 16.401215
v -15.647459 31.210983 16.401215
v -15.777871 30.108921 16.401215
v -17.160212 30.275904 16.401215
v -19.368525 12.386867 16.401215
v -42.485832 15.292395 16.401215
v -43.085747 10.505660 16.401215
v -45.146221 10.750574 16.401215
v -46.215630 2.390486 16.401215
v -45.902645 2.334825 16.401215
v -47.302448 -8.919568 16.401215
v -46.998158 -8.952966 16.401215
v -47.232906 -11.012375 16.401215
v -45.337612 -11.246157 16.401215
v -45.563667 -13.027267 16.401215
v -43.433636 -13.272182 16.401215
v -43.511883 -13.984626 16.401215
v -41.755692 -14.207274 16.401215
v -41.668751 -13.505962 16.401215
v -39.330059 -13.806537 16.401215
v -39.408310 -14.496717 16.401215
v -37.634731 -14.741629 16.401215
v -37.556480 -14.040316 16.401215
v -35.426445 -14.307492 16.401215
v -35.269947 -13.071847 16.401215
v -14.891171 -15.665655 16.401215
v -14.752065 -14.652648 16.401215
v -10.978860 -15.086801 16.401215
v -9.422616 -2.730339 16.401215
v -5.171246 -3.231280 16.401215
v -4.484416 1.956208 16.401215
v 0.279898 1.355081 16.401215
v 0.366838 1.911679 16.401215
v 1.392730 1.744699 16.401215
v 3.088056 15.258886 16.401215
v 2.062165 15.392469 16.401215
v 3.531444 27.381578 16.401215
v 4.600803 27.236864 16.401215
v 5.418032 34.060749 16.401215
v 4.418225 34.160934 16.401215
v 4.461695 34.739799 16.401215
v -0.850319 35.429977 16.401215
v -0.111332 41.352173 16.401215
v -190.673615 68.071129 4.890244
v -188.134995 67.748245 4.890244
v -186.900223 77.544327 4.890244
v -189.482315 77.856087 4.890244
v -190.673615 68.071129 9.334991
v -188.134995 67.748245 9.334991
v -186.900223 77.544327 9.334991
v -189.482315 77.856087 9.334991
v -147.042297 -123.443848 -6.946915
v -141.669342 -124.234314 -6.946915
v -143.451889 -138.650146 -6.946915
v -100.381111 -144.116592 -6.946915
v -98.598633 -129.622818 -6.946915
v -93.077858 -130.301941 -6.946915
v -90.069405 -106.156776 -6.946915
v -95.598862 -105.410873 -6.946915
v -94.216362 -93.989510 -6.946915
v -104.014603 -92.831665 -6.946915
v -102.510368 -81.054077 -6.946915
v -102.058281 -80.976158 -6.946915
v -102.153900 -80.152397 -6.946915
v -103.579735 -80.341621 -6.946915
v -104.822983 -79.840668 -6.946915
v -106.240128 -80.018761 -6.946915
v -107.579010 -79.495537 -6.946915
v -108.970062 -79.684761 -6.946915
v -110.300255 -79.161545 -6.946915
v -111.691307 -79.350769 -6.946915
v -113.021500 -78.816414 -6.946915
v -114.421249 -78.994507 -6.946915
v -115.768829 -78.471283 -6.946915
v -117.177269 -78.638245 -6.946915
v -118.524849 -78.126152 -6.946915
v -119.889824 -78.326508 -6.946915
v -121.272179 -77.781021 -6.946915
v -122.628456 -77.970245 -6.946915
v -123.958641 -77.435890 -6.946915
v -125.384476 -77.647377 -6.946915
v -126.575562 -77.190948 -6.946915
v -126.836395 -77.892258 -6.946915
v -126.419083 -78.059242 -6.946915
v -127.958138 -90.437943 -6.946915
v -142.685913 -88.578659 -6.946915
v 3.140209 40.940292 -6.923080
v 3.192373 41.318779 -6.923080
v 5.148514 41.096142 -6.923080
v 7.313294 58.551041 -6.923080
v 8.478283 58.395191 -6.923080
v 8.869507 61.456478 -6.923080
v 9.704124 62.102135 -6.923080
v 9.938858 63.994564 -6.923080
v 9.286812 64.851723 -6.923080
v 10.199665 72.365791 -6.923080
v 3.992202 73.111626 -6.923080
v 3.861793 71.864845 -6.923080
v -4.501764 72.989174 -6.923080
v -4.493070 73.735016 -6.923080
v -4.232252 73.924255 -6.923080
v -4.127924 74.748024 -6.923080
v -4.632172 75.360283 -6.923080
v -5.405931 75.460464 -6.923080
v -6.040587 74.970665 -6.923080
v -10.387542 80.547775 -6.923080
v -9.744191 81.070976 -6.923080
v -9.683333 81.872475 -6.923080
v -10.187579 82.462471 -6.923080
v -10.961338 82.551529 -6.923080
v -11.213462 82.328888 -6.923080
v -11.952445 82.395676 -6.923080
v -10.909163 91.601799 -6.923080
v -11.587287 91.679726 -6.923080
v -11.456876 93.082352 -6.923080
v -10.396220 92.959900 -6.923080
v -9.709394 98.648323 -6.923080
v -10.743968 98.781906 -6.923080
v -10.474454 101.097351 -6.923080
v -11.691600 101.253204 -6.923080
v -11.300369 104.949005 -6.923080
v -27.992634 106.852615 -6.923080
v -27.905691 107.654114 -6.923080
v -38.242718 108.845276 -6.923080
v -38.320969 108.121696 -6.923080
v -39.007786 108.210754 -6.923080
v -39.564217 103.501945 -6.923080
v -39.920666 103.546471 -6.923080
v -42.381142 83.820671 -6.923080
v -45.928257 84.265968 -6.923080
v -46.302113 81.271477 -6.923080
v -45.910885 81.204681 -6.923080
v -45.971748 80.648087 -6.923080
v -41.746506 80.169388 -6.923080
v -41.998642 77.998665 -6.923080
v -21.741812 75.549553 -6.923080
v -21.941776 73.946548 -6.923080
v -22.985050 73.111656 -6.923080
v -23.098074 72.310158 -6.923080
v -22.567745 71.697899 -6.923080
v -21.767904 71.608841 -6.923080
v -21.159328 72.065247 -6.923080
v -16.821072 66.510399 -6.923080
v -17.429647 66.009460 -6.923080
v -17.516588 65.196831 -6.923080
v -17.021036 64.573441 -6.923080
v -16.221193 64.484383 -6.923080
v -15.212695 65.297012 -6.923080
v -13.613012 65.085503 -6.923080
v -15.847389 47.074013 -6.923080
v -15.551795 47.040615 -6.923080
v -15.951723 43.723297 -6.923080
v -0.641663 41.853111 -6.923080
v -0.693827 41.396702 -6.923080
v -49.718681 103.746902 -5.288513
v -49.388298 106.529892 -5.288513
v -59.777485 107.810135 -5.288513
v -59.960068 106.240532 -5.288513
v -65.411133 106.964149 -5.288513
v -65.367661 107.298111 -5.288513
v -97.978386 111.305946 -5.288513
v -98.021858 110.983116 -5.288513
v -103.394669 111.628838 -5.288513
v -103.220772 113.187309 -5.288513
v -113.653412 114.434227 -5.288513
v -114.018600 111.539925 -5.288513
v -116.452881 111.829391 -5.288513
v -116.313759 113.220886 -5.288513
v -123.625298 114.167213 -5.288513
v -125.694710 97.413658 -5.288513
v -122.312790 97.012856 -5.288513
v -122.782310 93.528564 -5.288513
v -122.278069 93.484032 -5.288513
v -122.573700 90.957085 -5.288513
v -123.060555 91.001617 -5.288513
v -123.799629 84.834526 -5.288513
v -124.642937 84.934731 -5.288513
v -126.164574 72.244331 -5.288513
v -125.329964 72.132996 -5.288513
v -125.842964 68.448334 -5.288513
v -116.601334 67.212547 -5.288513
v -115.723114 76.173752 -5.288513
v -109.854729 75.405563 -5.288513
v -109.932983 74.581802 -5.288513
v -92.501686 72.666885 -5.288513
v -92.658195 71.219734 -5.288513
v -89.606628 70.852341 -5.288513
v -89.641411 70.440460 -5.288513
v -83.181831 69.650024 -5.288513
v -83.120964 70.006241 -5.288513
v -80.104179 69.627724 -5.288513
v -79.886818 71.063744 -5.288513
v -62.525059 68.892860 -5.288513
v -62.420727 69.516251 -5.288513
v -56.787064 68.826027 -5.288513
v -57.873871 59.965004 -5.288513
v -48.597443 58.862877 -5.288513
v -48.162724 62.647739 -5.288513
v -47.319412 62.547546 -5.288513
v -45.780514 75.193428 -5.288513
v -46.623821 75.282494 -5.288513
v -45.910885 81.204681 -5.288513
v -46.302113 81.271477 -5.288513
v -45.928257 84.265968 -5.288513
v -42.381142 83.820671 -5.288513
v -39.877193 103.869301 -5.288513
v -47.301773 104.793289 -5.288513
v -47.484352 103.468590 -5.288513
v -206.440872 -131.357346 -5.563721
v -161.822617 -137.135849 -5.563721
v -156.292282 -93.298347 -5.563721
v -200.945068 -87.675720 -5.563721
v -198.237473 62.227043 -5.173203
v -200.089294 61.781811 -5.173203
v -199.872025 58.675991 -5.173203
v -198.741837 58.097103 -5.173203
v -199.585312 51.373425 -5.173203
v -196.368561 50.961464 -5.173203
v -196.838120 47.399250 -5.173203
v -196.255630 47.310181 -5.173203
v -196.473022 45.373226 -5.173203
v -197.064209 45.451164 -5.173203
v -197.559875 41.343491 -5.173203
v -199.394302 40.853729 -5.173203
v -196.968933 31.246796 -5.173203
v -192.726288 30.690096 -5.173203
v -192.613235 31.703100 -5.173203
v -183.415039 30.534029 -5.173203
v -183.815048 27.250113 -5.173203
v -184.032394 27.216722 -5.173203
v -184.119339 26.593334 -5.173203
v -183.632492 26.426344 -5.173203
v -184.215073 22.864134 -5.173203
v -144.179382 17.831669 -5.173203
v -144.179382 17.642426 -5.173203
v -143.527328 17.553358 -5.173203
v -143.475159 17.742601 -5.173203
v -140.866974 17.419727 -5.173203
v -140.858276 17.230484 -5.173203
v -140.197540 17.141417 -5.173203
v -140.119293 17.430847 -5.173203
v -139.884552 17.608953 -5.173203
v -139.780228 17.620083 -5.173203
v -138.588974 27.371651 -5.173203
v -134.946198 27.594227 -5.173203
v -135.615417 40.240131 -5.173203
v -140.336227 40.774548 -5.173203
v -139.779739 44.893360 -5.173203
v -173.486130 49.079632 -5.173203
v -171.790512 62.872082 -5.173203
v -177.745834 63.629185 -5.173203
v -177.398010 66.412163 -5.173203
v -197.402695 68.906189 -5.173203
v -245.276657 -99.463211 -4.385803
v -228.366669 -101.645576 -4.385803
v -223.662125 -65.177444 -4.385803
v -240.572037 -62.995087 -4.385803
v -231.554169 9.607217 -4.579758
v -214.496613 7.469405 -4.579758
v -210.705154 40.408741 -4.579758
v -227.736572 42.457489 -4.579758
v -14.039053 43.467258 -6.923080
v -14.282487 41.474640 -6.923080
v -16.186464 41.708412 -6.923080
v -17.473192 31.444759 -6.923080
v -15.647459 31.210983 -6.923080
v -15.777871 30.108921 -6.923080
v -17.160212 30.275904 -6.923080
v -19.368525 12.386867 -6.923080
v -42.485832 15.292395 -6.923080
v -43.085747 10.505660 -6.923080
v -45.146221 10.750574 -6.923080
v -46.215630 2.390486 -6.923080
v -45.902645 2.334825 -6.923080
v -47.302448 -8.919568 -6.923080
v -46.998158 -8.952966 -6.923080
v -47.232906 -11.012375 -6.923080
v -45.337612 -11.246157 -6.923080
v -45.563667 -13.027267 -6.923080
v -43.433636 -13.272182 -6.923080
v -43.511883 -13.984626 -6.923080
v -41.755692 -14.207274 -6.923080
v -41.668751 -13.505962 -6.923080
v -39.330059 -13.806537 -6.923080
v -39.408310 -14.496717 -6.923080
v -37.634731 -14.741629 -6.923080
v -37.556480 -14.040316 -6.923080
v -35.426445 -14.307492 -6.923080
v -35.269947 -13.071847 -6.923080
v -14.891171 -15.665655 -6.923080
v -14.752065 -14.652648 -6.923080
v -10.978860 -15.086801 -6.923080
v -9.422616 -2.730339 -6.923080
v -5.171246 -3.231280 -6.923080
v -4.484416 1.956208 -6.923080
v 0.279898 1.355081 -6.923080
v 0.366838 1.911679 -6.923080
v 1.392730 1.744699 -6.923080
v 3.088056 15.258886 -6.923080
v 2.062165 15.392469 -6.923080
v 3.531444 27.381578 -6.923080
v 4.600803 27.236864 -6.923080
v 5.418032 34.060749 -6.923080
v 4.418225 34.160934 -6.923080
v 4.461695 34.739799 -6.923080
v -0.850319 35.429977 -6.923080
v -0.111332 41.352173 -6.923080
v -190.673615 68.071129 -5.109756
v -188.134995 67.748245 -5.109756
v -186.900223 77.544327 -5.109756
v -189.482315 77.856087 -5.109756
vn -0.9923 0.1240 -0.0000
vn -0.1456 -0.9894 -0.0000
vn -0.9924 0.1227 -0.0000
vn -0.1259 -0.9920 -0.0000
vn 0.9925 -0.1221 -0.0000
vn -0.1221 -0.9925 -0.0000
vn 0.9923 -0.1236 -0.0000
vn 0.1337 0.9910 -0.0000
vn 0.9928 -0.1202 -0.0000
vn 0.1174 0.9931 -0.0000
vn 0.9919 -0.1267 -0.0000
vn 0.1698 -0.9855 -0.0000
vn 0.9933 0.1153 -0.0000
vn -0.1316 0.9913 -0.0000
vn 0.3737 0.9275 -0.0000
vn -0.1247 0.9922 -0.0000
vn 0.3640 0.9314 -0.0000
vn -0.1348 0.9909 -0.0000
vn 0.3660 0.9306 -0.0000
vn 0.3728 0.9279 -0.0000
vn -0.1262 0.9920 -0.0000
vn 0.3619 0.9322 -0.0000
vn -0.1177 0.9930 -0.0000
vn 0.3552 0.9348 -0.0000
vn -0.1452 0.9894 -0.0000
vn 0.3671 0.9302 -0.0000
vn -0.1382 0.9904 -0.0000
vn -0.1467 0.9892 -0.0000
vn 0.3578 0.9338 -0.0000
vn -0.9373 0.3486 -0.0000
vn -0.3715 -0.9284 -0.0000
vn -0.9924 0.1234 -0.0000
vn 0.1252 0.9921 -0.0000
vn -0.0000 -0.0000 1.0000
vn -0.1182 -0.9930 -0.0000
vn 0.9906 -0.1365 -0.0000
vn -0.1131 -0.9936 -0.0000
vn 0.9924 -0.1231 -0.0000
vn -0.1326 -0.9912 -0.0000
vn 0.9919 -0.1268 -0.0000
vn 0.6119 -0.7910 -0.0000
vn 0.7959 0.6054 -0.0000
vn 0.9927 -0.1206 -0.0000
vn 0.1193 0.9929 -0.0000
vn -0.9946 0.1040 -0.0000
vn 0.1332 0.9911 -0.0000
vn 0.9999 -0.0117 -0.0000
vn 0.5873 -0.8094 -0.0000
vn 0.9921 -0.1256 -0.0000
vn 0.7719 0.6357 -0.0000
vn 0.1284 0.9917 -0.0000
vn -0.6110 0.7917 -0.0000
vn 0.7887 0.6148 -0.0000
vn 0.6309 -0.7758 -0.0000
vn 0.9971 -0.0757 -0.0000
vn 0.7602 0.6497 -0.0000
vn 0.1143 0.9934 -0.0000
vn -0.6619 0.7496 -0.0000
vn 0.0900 0.9959 -0.0000
vn 0.9936 -0.1126 -0.0000
vn 0.1142 0.9935 -0.0000
vn 0.9957 -0.0926 -0.0000
vn -0.1147 -0.9934 -0.0000
vn 0.9928 -0.1199 -0.0000
vn 0.1281 0.9918 -0.0000
vn 0.9933 -0.1156 -0.0000
vn 0.1270 0.9919 -0.0000
vn 0.9944 -0.1053 -0.0000
vn 0.1133 0.9936 -0.0000
vn 0.9942 -0.1078 -0.0000
vn 0.1145 0.9934 -0.0000
vn -0.9942 0.1075 -0.0000
vn 0.1286 0.9917 -0.0000
vn -0.9931 0.1174 -0.0000
vn 0.1239 0.9923 -0.0000
vn -0.9923 0.1238 -0.0000
vn 0.1246 0.9922 -0.0000
vn -0.9923 0.1239 -0.0000
vn -0.1683 -0.9857 -0.0000
vn -0.9941 0.1087 -0.0000
vn -0.1126 -0.9936 -0.0000
vn -0.9933 0.1154 -0.0000
vn -0.1200 -0.9928 -0.0000
vn -0.6248 0.7808 -0.0000
vn -0.9902 0.1396 -0.0000
vn -0.7559 -0.6547 -0.0000
vn -0.1107 -0.9939 -0.0000
vn 0.6000 -0.8000 -0.0000
vn -0.7881 -0.6155 -0.0000
vn -0.6355 0.7721 -0.0000
vn -0.9943 0.1064 -0.0000
vn -0.7828 -0.6223 -0.0000
vn 0.6274 -0.7787 -0.0000
vn -0.1311 -0.9914 -0.0000
vn -0.9924 0.1231 -0.0000
vn -0.1123 -0.9937 -0.0000
vn -0.9928 0.1197 -0.0000
vn -0.1213 -0.9926 -0.0000
vn -0.9935 0.1136 -0.0000
vn 0.1236 0.9923 -0.0000
vn 0.9930 -0.1179 -0.0000
vn 0.1223 0.9925 -0.0000
vn -0.9933 0.1155 -0.0000
vn 0.1316 0.9913 -0.0000
vn 0.9916 -0.1291 -0.0000
vn 0.1220 0.9925 -0.0000
vn -0.9911 0.1334 -0.0000
vn 0.9938 -0.1109 -0.0000
vn 0.1187 0.9929 -0.0000
vn -0.9921 0.1252 -0.0000
vn 0.1181 0.9930 -0.0000
vn 0.9950 -0.0995 -0.0000
vn -0.9925 0.1226 -0.0000
vn -0.1177 -0.9931 -0.0000
vn -0.9910 0.1335 -0.0000
vn -0.0880 -0.9961 -0.0000
vn -0.9932 0.1162 -0.0000
vn 0.0911 0.9958 -0.0000
vn -0.9929 0.1190 -0.0000
vn 0.1180 0.9930 -0.0000
vn -0.9929 0.1191 -0.0000
vn -0.1322 -0.9912 -0.0000
vn -0.9904 0.1379 -0.0000
vn -0.1325 -0.9912 -0.0000
vn 0.9952 -0.0975 -0.0000
vn -0.1298 -0.9915 -0.0000
vn -0.9955 0.0946 -0.0000
vn -0.1092 -0.9940 -0.0000
vn -0.1195 -0.9928 -0.0000
vn -0.9965 0.0841 -0.0000
vn -0.1215 -0.9926 -0.0000
vn 0.9857 -0.1684 -0.0000
vn -0.1245 -0.9922 -0.0000
vn 0.9887 -0.1497 -0.0000
vn -0.1241 -0.9923 -0.0000
vn 0.9863 -0.1651 -0.0000
vn -0.1216 -0.9926 -0.0000
vn -0.9926 0.1217 -0.0000
vn -0.1180 -0.9930 -0.0000
vn 0.9935 -0.1141 -0.0000
vn 0.9927 -0.1208 -0.0000
vn 0.1050 0.9945 -0.0000
vn 0.9928 -0.1195 -0.0000
vn 0.1683 0.9857 -0.0000
vn 0.9923 -0.1239 -0.0000
vn -0.1246 -0.9922 -0.0000
vn 0.1235 0.9923 -0.0000
vn -0.9906 0.1365 -0.0000
vn -0.9922 0.1248 -0.0000
vn -0.1284 -0.9917 -0.0000
vn 0.9921 -0.1252 -0.0000
vn 0.1249 0.9922 -0.0000
vn -0.2338 0.9723 -0.0000
vn -0.9976 -0.0698 -0.0000
vn -0.4559 -0.8900 -0.0000
vn -0.9922 0.1245 -0.0000
vn -0.1270 -0.9919 -0.0000
vn -0.9914 0.1307 -0.0000
vn -0.1512 -0.9885 -0.0000
vn -0.9938 0.1115 -0.0000
vn 0.1307 0.9914 -0.0000
vn -0.9928 0.1198 -0.0000
vn -0.2580 0.9662 -0.0000
vn -0.9696 -0.2448 -0.0000
vn -0.1301 -0.9915 -0.0000
vn -0.1261 -0.9920 -0.0000
vn -0.9927 0.1209 -0.0000
vn -0.1518 0.9884 -0.0000
vn -0.9904 0.1381 -0.0000
vn -0.3244 -0.9459 -0.0000
vn -0.9869 0.1614 -0.0000
vn -0.1247 -0.9922 -0.0000
vn -1.0000 -0.0000 -0.0000
vn -0.1353 -0.9908 -0.0000
vn 0.9640 -0.2657 -0.0000
vn -0.1229 -0.9924 -0.0000
vn -0.9989 -0.0460 -0.0000
vn -0.1336 -0.9910 -0.0000
vn 0.9653 -0.2610 -0.0000
vn 0.6044 -0.7967 -0.0000
vn 0.1061 -0.9944 -0.0000
vn 0.9926 -0.1213 -0.0000
vn 0.0610 -0.9981 -0.0000
vn 0.9986 0.0528 -0.0000
vn 0.1125 0.9937 -0.0000
vn 0.9910 -0.1339 -0.0000
vn 0.1233 0.9924 -0.0000
vn 0.9925 -0.1220 -0.0000
vn 0.1261 0.9920 -0.0000
vn 0.9923 -0.1240 -0.0000
vn 0.1237 0.9923 -0.0000
vn -0.9918 0.1279 -0.0000
vn -0.1280 -0.9918 -0.0000
vn 0.9918 -0.1279 -0.0000
vn 0.1280 0.9918 -0.0000
vn -0.1244 -0.9922 -0.0000
vn 0.9934 -0.1143 -0.0000
vn 0.1194 0.9928 -0.0000
vn 0.0762 0.9971 -0.0000
vn 0.9935 -0.1136 -0.0000
vn 0.1196 0.9928 -0.0000
vn -0.9926 0.1213 -0.0000
vn 0.1219 0.9925 -0.0000
vn -0.9922 0.1244 -0.0000
vn -0.9931 0.1175 -0.0000
vn 0.1199 0.9928 -0.0000
vn -0.9925 0.1225 -0.0000
vn 0.1247 0.9922 -0.0000
vn -0.9919 0.1269 -0.0000
vn -0.1751 -0.9846 -0.0000
vn -0.1091 -0.9940 -0.0000
vn -0.9936 0.1133 -0.0000
vn -0.1224 -0.9925 -0.0000
vn -0.9920 0.1259 -0.0000
vn -0.1142 -0.9935 -0.0000
vn -0.9940 0.1092 -0.0000
vn -0.1258 -0.9921 -0.0000
vn 0.9924 -0.1230 -0.0000
vn -0.1275 -0.9918 -0.0000
vn -0.9936 0.1127 -0.0000
vn -0.1368 -0.9906 -0.0000
vn 0.9907 -0.1360 -0.0000
vn -0.1143 -0.9934 -0.0000
vn 0.9922 -0.1250 -0.0000
vn -0.1170 -0.9931 -0.0000
vn 0.9913 -0.1313 -0.0000
vn -0.1252 -0.9921 -0.0000
vn 0.9880 -0.1543 -0.0000
vn -0.1607 -0.9870 -0.0000
vn 0.9922 -0.1245 -0.0000
vn 0.1291 0.9916 -0.0000
vn 0.9926 -0.1216 -0.0000
vn -0.1341 -0.9910 -0.0000
vn 0.9929 -0.1189 -0.0000
vn 0.0997 0.9950 -0.0000
vn 0.9972 -0.0749 -0.0000
vn 0.1288 0.9917 -0.0000
vn 0.9923 -0.1238 -0.0000
vn -0.1262 -0.9920 -0.0000
vn 0.9921 -0.1251 -0.0000
vn -0.1263 -0.9920 -0.0000
vn 0.9653 -0.2611 -0.0000
vn -0.9989 -0.0459 -0.0000
vn 0.9640 -0.2658 -0.0000
vn -0.3245 -0.9459 -0.0000
vn -0.9933 0.1156 -0.0000
vn -0.2579 0.9662 -0.0000
vn 0.9921 -0.1257 -0.0000
vn -0.9931 0.1173 -0.0000
vn 0.1699 -0.9855 -0.0000
vn 0.0001 -0.0000 1.0000
vn -0.0002 -0.0000 1.0000
vn -0.9911 0.1335 -0.0000
vn -0.9910 0.1336 -0.0000
vn 0.9640 -0.2659 -0.0000
vn 0.9654 -0.2609 -0.0000
vn 0.6045 -0.7966 -0.0000
vn -0.0001 -0.0000 1.0000
vn -0.0005 -0.0000 1.0000
vn -0.1519 0.9884 -0.0000
vn -0.9965 0.0842 -0.0000
vn 0.1240 0.9923 -0.0000
s 0
usemtl wall
f 1//1 70//1 35//1
f 2//2 36//2 1//2
f 3//3 37//3 2//3
f 4//4 38//4 3//4
f 5//5 39//5 4//5
f 6//6 40//6 5//6
f 7//7 41//7 6//7
f 8//8 42//8 7//8
f 9//9 43//9 8//9
f 10//10 44//10 9//10
f 11//11 45//11 10//11
f 12//12 46//12 11//12
f 13//13 47//13 12//13
f 14//14 48//14 13//14
f 15//15 49//15 14//15
f 16//16 50//16 15//16
f 17//17 51//17 16//17
f 18//18 52//18 17//18
f 19//19 53//19 18//19
f 20//18 54//18 19//18
f 21//20 55//20 20//20
f 22//21 56//21 21//21
f 23//22 57//22 22//22
f 24//23 58//23 23//23
f 25//24 59//24 24//24
f 26//25 60//25 25//25
f 27//26 61//26 26//26
f 28//27 62//27 27//27
f 29//20 63//20 28//20
f 30//28 64//28 29//28
f 31//29 65//29 30//29
f 32//30 66//30 31//30
f 33//31 67//31 32//31
f 34//32 68//32 33//32
f 35//33 69//33 34//33
f 71//35 206//35 138//35
f 72//36 139//36 71//36
f 73//37 140//37 72//37
f 74//38 141//38 73//38
f 75//39 142//39 74//39
f 76//40 143//40 75//40
f 77//41 144//41 76//41
f 78//38 145//38 77//38
f 79//42 146//42 78//42
f 80//43 147//43 79//43
f 81//44 148//44 80//44
f 82//45 149//45 81//45
f 83//46 150//46 82//46
f 84//47 151//47 83//47
f 85//48 152//48 84//48
f 86//49 153//49 85//49
f 87//50 154//50 86//50
f 88//51 155//51 87//51
f 89//52 156//52 88//52
f 90//53 157//53 89//53
f 91//54 158//54 90//54
f 92//55 159//55 91//55
f 93//56 160//56 92//56
f 94//57 161//57 93//57
f 95//58 162//58 94//58
f 96//59 163//59 95//59
f 97//60 164//60 96//60
f 98//61 165//61 97//61
f 99//62 166//62 98//62
f 100//63 167//63 99//63
f 101//64 168//64 100//64
f 102//65 169//65 101//65
f 103//66 170//66 102//66
f 104//67 171//67 103//67
f 105//68 172//68 104//68
f 106//69 173//69 105//69
f 107//70 174//70 106//70
f 108//71 175//71 107//71
f 109//72 176//72 108//72
f 110//73 177//73 109//73
f 111//74 178//74 110//74
f 112//75 179//75 111//75
f 113//76 180//76 112//76
f 114//77 181//77 113//77
f 115//78 182//78 114//78
f 116//79 183//79 115//79
f 117//80 184//80 116//80
f 118//81 185//81 117//81
f 119//82 186//82 118//82
f 120//83 187//83 119//83
f 121//76 188//76 120//76
f 122//84 189//84 121//84
f 123//85 190//85 122//85
f 124//86 191//86 123//86
f 125//87 192//87 124//87
f 126//88 193//88 125//88
f 127//89 194//89 126//89
f 128//90 195//90 127//90
f 129//91 196//91 128//91
f 130//92 197//92 129//92
f 131//87 198//87 130//87
f 132//93 199//93 131//93
f 133//94 200//94 132//94
f 134//95 201//95 133//95
f 135//96 202//96 134//96
f 136//97 203//97 135//97
f 137//98 204//98 136//98
f 138//99 205//99 137//99
f 207//100 314//100 260//100
f 208//101 261//101 207//101
f 209//102 262//102 208//102
f 210//103 263//103 209//103
f 211//104 264//104 210//104
f 212//105 265//105 211//105
f 213//106 266//106 212//106
f 214//107 267//107 213//107
f 215//44 268//44 214//44
f 216//108 269//108 215//108
f 217//109 270//109 216//109
f 218//110 271//110 217//110
f 219//111 272//111 218//111
f 220//112 273//112 219//112
f 221//51 274//51 220//51
f 222//113 275//113 221//113
f 223//114 276//114 222//114
f 224//115 277//115 223//115
f 225//116 278//116 224//116
f 226//117 279//117 225//117
f 227//118 280//118 226//118
f 228//119 281//119 227//119
f 229//120 282//120 228//120
f 230//121 283//121 229//121
f 231//122 284//122 230//122
f 232//123 285//123 231//123
f 233//124 286//124 232//124
f 234//125 287//125 233//125
f 235//126 288//126 234//126
f 236//127 289//127 235//127
f 237//128 290//128 236//128
f 238//72 291//72 237//72
f 239//129 292//129 238//129
f 240//130 293//130 239//130
f 241//131 294//131 240//131
f 242//132 295//132 241//132
f 243//133 296//133 242//133
f 244//134 297//134 243//134
f 245//135 298//135 244//135
f 246//136 299//136 245//136
f 247//137 300//137 246//137
f 248//138 301//138 247//138
f 249//139 302//139 248//139
f 250//140 303//140 249//140
f 251//139 304//139 250//139
f 252//141 305//141 251//141
f 253//142 306//142 252//142
f 254//143 307//143 253//143
f 255//144 308//144 254//144
f 256//145 309//145 255//145
f 257//146 310//146 256//146
f 258//145 311//145 257//145
f 259//147 312//147 258//147
f 260//148 313//148 259//148
f 315//149 322//149 318//149
f 316//150 319//150 315//150
f 317//151 320//151 316//151
f 318//152 321//152 317//152
f 323//1 404//1 363//1
f 324//153 364//153 323//153
f 325//154 365//154 324//154
f 326//155 366//155 325//155
f 327//156 367//156 326//156
f 328//157 368//157 327//157
f 329//158 369//158 328//158
f 330//159 370//159 329//159
f 331//160 371//160 330//160
f 332//161 372//161 331//161
f 333//162 373//162 332//162
f 334//163 374//163 333//163
f 335//164 375//164 334//164
f 336//165 376//165 335//165
f 337//108 377//108 336//108
f 338//166 378//166 337//166
f 339//167 379//167 338//167
f 340//168 380//168 339//168
f 341//169 381//169 340//169
f 342//170 382//170 341//170
f 343//171 383//171 342//171
f 344//172 384//172 343//172
f 345//173 385//173 344//173
f 346//174 386//174 345//174
f 347//175 387//175 346//175
f 348//176 388//176 347//176
f 349//177 389//177 348//177
f 350//178 390//178 349//178
f 351//179 391//179 350//179
f 352//180 392//180 351//180
f 353//181 393//181 352//181
f 354//182 394//182 353//182
f 355//183 395//183 354//183
f 356//184 396//184 355//184
f 357//185 397//185 356//185
f 358//186 398//186 357//186
f 359//187 399//187 358//187
f 360//188 400//188 359//188
f 361//189 401//189 360//189
f 362//190 402//190 361//190
f 363//191 403//191 362//191
f 405//192 412//192 408//192
f 406//193 409//193 405//193
f 407//194 410//194 406//194
f 408//195 411//195 407//195
f 413//82 420//82 416//82
f 414//196 417//196 413//196
f 415//197 418//197 414//197
f 416//198 419//198 415//198
f 138//199 514//199 466//199
f 137//200 467//200 138//200
f 421//201 468//201 137//201
f 422//202 469//202 421//202
f 423//203 470//203 422//203
f 424//204 471//204 423//204
f 425//157 472//157 424//157
f 426//205 473//205 425//205
f 427//206 474//206 426//206
f 428//207 475//207 427//207
f 429//208 476//208 428//208
f 430//204 477//204 429//204
f 431//120 478//120 430//120
f 432//209 479//209 431//209
f 433//210 480//210 432//210
f 434//32 481//32 433//32
f 435//211 482//211 434//211
f 436//212 483//212 435//212
f 437//213 484//213 436//213
f 438//214 485//214 437//214
f 439//215 486//215 438//215
f 440//216 487//216 439//216
f 441//217 488//217 440//217
f 442//218 489//218 441//218
f 443//219 490//219 442//219
f 444//220 491//220 443//220
f 445//221 492//221 444//221
f 446//108 493//108 445//108
f 447//133 494//133 446//133
f 448//49 495//49 447//49
f 356//185 718//185 357//185
f 450//222 497//222 449//222
f 451//223 498//223 450//223
f 452//224 499//224 451//224
f 453//225 500//225 452//225
f 454//226 501//226 453//226
f 455//227 502//227 454//227
f 456//228 503//228 455//228
f 457//229 504//229 456//229
f 458//230 505//230 457//230
f 459//231 506//231 458//231
f 460//232 507//232 459//232
f 461//233 508//233 460//233
f 462//234 509//234 461//234
f 463//235 510//235 462//235
f 464//236 511//236 463//236
f 465//237 512//237 464//237
f 466//238 513//238 465//238
f 515//167 522//167 518//167
f 516//239 519//239 515//239
f 517//240 520//240 516//240
f 518//206 521//206 517//206
f 449//241 496//241 448//241
f 624//201 421//201 137//201
f 229//121 649//121 230//121
f 92//56 580//56 93//56
f 778//199 138//199 466//199
f 355//184 717//184 356//184
f 228//120 648//120 229//120
f 91//55 579//55 92//55
f 354//183 716//183 355//183
f 227//119 647//119 228//119
f 90//54 578//54 91//54
f 517//206 782//206 518//206
f 353//182 715//182 354//182
f 226//118 646//118 227//118
f 89//53 577//53 90//53
f 516//240 781//240 517//240
f 352//181 714//181 353//181
f 225//117 645//117 226//117
f 88//52 576//52 89//52
f 515//239 780//239 516//239
f 351//180 713//180 352//180
f 224//116 644//116 225//116
f 87//51 575//51 88//51
f 518//167 779//167 515//167
f 350//242 712//242 351//242
f 223//115 643//115 224//115
f 86//50 574//50 87//50
f 465//238 778//238 466//238
f 349//178 711//178 350//178
f 222//114 642//114 223//114
f 85//49 573//49 86//49
f 464//237 777//237 465//237
f 348//243 710//243 349//243
f 221//113 641//113 222//113
f 84//48 572//48 85//48
f 463//236 776//236 464//236
f 347//176 709//176 348//176
f 220//51 640//51 221//51
f 83//47 571//47 84//47
f 462//235 775//235 463//235
f 346//244 708//244 347//244
f 219//112 639//112 220//112
f 82//46 570//46 83//46
f 461//234 774//234 462//234
f 345//174 707//174 346//174
f 218//111 638//111 219//111
f 81//45 569//45 82//45
f 460//233 773//233 461//233
f 344//173 706//173 345//173
f 217//110 637//110 218//110
f 80//44 568//44 81//44
f 459//232 772//232 460//232
f 343//172 705//172 344//172
f 216//109 636//109 217//109
f 79//43 567//43 80//43
f 458//231 771//231 459//231
f 342//171 704//171 343//171
f 215//108 635//108 216//108
f 78//42 566//42 79//42
f 457//230 770//230 458//230
f 341//245 703//245 342//245
f 214//44 634//44 215//44
f 77//38 565//38 78//38
f 456//229 769//229 457//229
f 340//169 702//169 341//169
f 213//107 633//107 214//107
f 76//41 564//41 77//41
f 455//228 768//228 456//228
f 339//168 701//168 340//168
f 212//106 632//106 213//106
f 75//40 563//40 76//40
f 454//227 767//227 455//227
f 338//167 700//167 339//167
f 211//105 631//105 212//105
f 74//39 562//39 75//39
f 453//226 766//226 454//226
f 337//166 699//166 338//166
f 210//104 630//104 211//104
f 73//38 561//38 74//38
f 452//225 765//225 453//225
f 336//108 698//108 337//108
f 209//246 629//246 210//246
f 72//37 560//37 73//37
f 451//224 764//224 452//224
f 335//165 697//165 336//165
f 208//102 628//102 209//102
f 71//36 559//36 72//36
f 450//223 763//223 451//223
f 334//164 696//164 335//164
f 207//101 627//101 208//101
f 138//35 558//35 71//35
f 449//222 762//222 450//222
f 333//247 695//247 334//247
f 260//100 626//100 207//100
f 34//33 557//33 35//33
f 760//241 449//241 448//241
f 332//162 694//162 333//162
f 137//99 625//99 138//99
f 33//32 556//32 34//32
f 447//248 760//248 448//248
f 331//161 693//161 332//161
f 136//98 624//98 137//98
f 32//31 555//31 33//31
f 446//133 759//133 447//133
f 330//160 692//160 331//160
f 135//97 623//97 136//97
f 31//30 554//30 32//30
f 445//108 758//108 446//108
f 329//159 691//159 330//159
f 134//96 622//96 135//96
f 30//29 553//29 31//29
f 444//221 757//221 445//221
f 328//158 690//158 329//158
f 133//95 621//95 134//95
f 29//28 552//28 30//28
f 443//220 756//220 444//220
f 327//157 689//157 328//157
f 132//94 620//94 133//94
f 28//20 551//20 29//20
f 442//219 755//219 443//219
f 326//156 688//156 327//156
f 131//93 619//93 132//93
f 27//27 550//27 28//27
f 441//218 754//218 442//218
f 325//155 687//155 326//155
f 130//87 618//87 131//87
f 26//26 549//26 27//26
f 440//217 753//217 441//217
f 324//154 686//154 325//154
f 129//92 617//92 130//92
f 25//25 548//25 26//25
f 439//216 752//216 440//216
f 323//153 685//153 324//153
f 128//91 616//91 129//91
f 24//24 547//24 25//24
f 438//215 751//215 439//215
f 363//1 684//1 323//1
f 127//90 615//90 128//90
f 23//23 546//23 24//23
f 437//214 750//214 438//214
f 317//152 683//152 318//152
f 126//89 614//89 127//89
f 22//22 545//22 23//22
f 436//213 749//213 437//213
f 316//151 682//151 317//151
f 125//88 613//88 126//88
f 21//21 544//21 22//21
f 93//57 581//57 94//57
f 230//122 650//122 231//122
f 357//186 719//186 358//186
f 94//58 582//58 95//58
f 231//123 651//123 232//123
f 358//187 720//187 359//187
f 95//59 583//59 96//59
f 232//124 652//124 233//124
f 359//188 721//188 360//188
f 96//60 584//60 97//60
f 233//125 653//125 234//125
f 360//189 722//189 361//189
f 97//61 585//61 98//61
f 234//126 654//126 235//126
f 361//190 723//190 362//190
f 98//62 586//62 99//62
f 235//127 655//127 236//127
f 362//191 724//191 363//191
f 99//63 587//63 100//63
f 236//128 656//128 237//128
f 408//192 725//192 405//192
f 100//64 588//64 101//64
f 237//72 657//72 238//72
f 405//193 726//193 406//193
f 101//65 589//65 102//65
f 238//129 658//129 239//129
f 406//194 727//194 407//194
f 102//66 590//66 103//66
f 239//130 659//130 240//130
f 407//195 728//195 408//195
f 103//67 591//67 104//67
f 240//131 660//131 241//131
f 416//82 729//82 413//82
f 35//1 523//1 1//1
f 104//68 592//68 105//68
f 241//132 661//132 242//132
f 413//196 730//196 414//196
f 1//2 524//2 2//2
f 105//69 593//69 106//69
f 242//133 662//133 243//133
f 414//197 731//197 415//197
f 2//3 525//3 3//3
f 106//70 594//70 107//70
f 243//134 663//134 244//134
f 415//198 732//198 416//198
f 3//4 526//4 4//4
f 107//71 595//71 108//71
f 244//135 664//135 245//135
f 4//5 527//5 5//5
f 108//72 596//72 109//72
f 245//136 665//136 246//136
f 5//6 528//6 6//6
f 109//73 597//73 110//73
f 246//137 666//137 247//137
f 6//7 529//7 7//7
f 110//249 598//249 111//249
f 247//138 667//138 248//138
f 421//202 734//202 422//202
f 7//8 530//8 8//8
f 111//75 599//75 112//75
f 248//139 668//139 249//139
f 422//203 735//203 423//203
f 8//9 531//9 9//9
f 112//76 600//76 113//76
f 249//140 669//140 250//140
f 423//204 736//204 424//204
f 9//10 532//10 10//10
f 113//77 601//77 114//77
f 250//139 670//139 251//139
f 424//157 737//157 425//157
f 10//11 533//11 11//11
f 114//78 602//78 115//78
f 251//141 671//141 252//141
f 425//205 738//205 426//205
f 11//12 534//12 12//12
f 115//79 603//79 116//79
f 252//142 672//142 253//142
f 426//206 739//206 427//206
f 12//13 535//13 13//13
f 116//80 604//80 117//80
f 253//143 673//143 254//143
f 427//207 740//207 428//207
f 13//14 536//14 14//14
f 117//81 605//81 118//81
f 254//144 674//144 255//144
f 428//208 741//208 429//208
f 14//15 537//15 15//15
f 118//82 606//82 119//82
f 255//145 675//145 256//145
f 429//204 742//204 430//204
f 15//16 538//16 16//16
f 119//83 607//83 120//83
f 256//146 676//146 257//146
f 430//120 743//120 431//120
f 16//17 539//17 17//17
f 120//76 608//76 121//76
f 257//145 677//145 258//145
f 431//209 744//209 432//209
f 17//18 540//18 18//18
f 121//84 609//84 122//84
f 258//147 678//147 259//147
f 432//210 745//210 433//210
f 18//19 541//19 19//19
f 122//85 610//85 123//85
f 259//148 679//148 260//148
f 433//32 746//32 434//32
f 19//18 542//18 20//18
f 123//86 611//86 124//86
f 318//149 680//149 315//149
f 434//211 747//211 435//211
f 20//20 543//20 21//20
f 124//87 612//87 125//87
f 315//150 681//150 316//150
f 435//212 748//212 436//212
f 1//1 36//1 70//1
f 2//2 37//2 36//2
f 3//3 38//3 37//3
f 4//4 39//4 38//4
f 5//5 40//5 39//5
f 6//6 41//6 40//6
f 7//7 42//7 41//7
f 8//8 43//8 42//8
f 9//9 44//9 43//9
f 10//10 45//10 44//10
f 11//11 46//11 45//11
f 12//250 47//250 46//250
f 13//13 48//13 47//13
f 14//14 49//14 48//14
f 15//15 50//15 49//15
f 16//16 51//16 50//16
f 17//17 52//17 51//17
f 18//18 53//18 52//18
f 19//19 54//19 53//19
f 20//18 55//18 54//18
f 21//20 56//20 55//20
f 22//21 57//21 56//21
f 23//22 58//22 57//22
f 24//23 59//23 58//23
f 25//24 60//24 59//24
f 26//25 61//25 60//25
f 27//26 62//26 61//26
f 28//27 63//27 62//27
f 29//20 64//20 63//20
f 30//28 65//28 64//28
f 31//29 66//29 65//29
f 32//30 67//30 66//30
f 33//31 68//31 67//31
f 34//32 69//32 68//32
f 35//33 70//33 69//33
f 71//35 139//35 206//35
f 72//36 140//36 139//36
f 73//37 141//37 140//37
f 74//38 142//38 141//38
f 75//39 143//39 142//39
f 76//40 144//40 143//40
f 77//41 145//41 144//41
f 78//38 146//38 145//38
f 79//42 147//42 146//42
f 80//43 148//43 147//43
f 81//44 149//44 148//44
f 82//45 150//45 149//45
f 83//46 151//46 150//46
f 84//47 152//47 151//47
f 85//48 153//48 152//48
f 86//49 154//49 153//49
f 87//50 155//50 154//50
f 88//51 156//51 155//51
f 89//52 157//52 156//52
f 90//53 158//53 157//53
f 91//54 159//54 158//54
f 92//55 160//55 159//55
f 93//56 161//56 160//56
f 94//57 162//57 161//57
f 95//58 163//58 162//58
f 96//59 164//59 163//59
f 97//60 165//60 164//60
f 98//61 166//61 165//61
f 99//62 167//62 166//62
f 100//63 168//63 167//63
f 101//64 169//64 168//64
f 102//65 170//65 169//65
f 103//66 171//66 170//66
f 104//67 172//67 171//67
f 105//68 173//68 172//68
f 106//69 174//69 173//69
f 107//70 175//70 174//70
f 108//71 176//71 175//71
f 109//72 177//72 176//72
f 110//73 178//73 177//73
f 111//249 179//249 178//249
f 112//75 180//75 179//75
f 113//76 181//76 180//76
f 114//77 182//77 181//77
f 115//78 183//78 182//78
f 116//79 184//79 183//79
f 117//80 185//80 184//80
f 118//81 186//81 185//81
f 119//82 187//82 186//82
f 120//83 188//83 187//83
f 121//76 189//76 188//76
f 122//84 190//84 189//84
f 123//85 191//85 190//85
f 124//86 192//86 191//86
f 125//87 193//87 192//87
f 126//88 194//88 193//88
f 127//89 195//89 194//89
f 128//90 196//90 195//90
f 129//91 197//91 196//91
f 130//92 198//92 197//92
f 131//87 199//87 198//87
f 132//93 200//93 199//93
f 133//94 201//94 200//94
f 134//95 202//95 201//95
f 135//96 203//96 202//96
f 136//97 204//97 203//97
f 137//98 205//98 204//98
f 138//99 206//99 205//99
f 207//100 261//100 314//100
f 208//101 262//101 261//101
f 209//102 263//102 262//102
f 210//246 264//246 263//246
f 211//104 265//104 264//104
f 212//105 266//105 265//105
f 213//106 267//106 266//106
f 214//253 268//253 267//253
f 215//44 269//44 268//44
f 216//108 270//108 269//108
f 217//109 271//109 270//109
f 218//110 272//110 271//110
f 219//111 273//111 272//111
f 220//112 274//112 273//112
f 221//51 275//51 274//51
f 222//113 276//113 275//113
f 223//114 277//114 276//114
f 224//254 278//254 277//254
f 225//116 279//116 278//116
f 226//117 280//117 279//117
f 227//118 281//118 280//118
f 228//119 282//119 281//119
f 229//120 283//120 282//120
f 230//121 284//121 283//121
f 231//122 285//122 284//122
f 232//123 286//123 285//123
f 233//124 287//124 286//124
f 234//125 288//125 287//125
f 235//126 289//126 288//126
f 236//127 290//127 289//127
f 237//128 291//128 290//128
f 238//72 292//72 291//72
f 239//129 293//129 292//129
f 240//130 294//130 293//130
f 241//131 295//131 294//131
f 242//132 296//132 295//132
f 243//133 297//133 296//133
f 244//134 298//134 297//134
f 245//135 299//135 298//135
f 246//136 300//136 299//136
f 247//137 301//137 300//137
f 248//138 302//138 301//138
f 249//139 303//139 302//139
f 250//140 304//140 303//140
f 251//139 305//139 304//139
f 252//141 306//141 305//141
f 253//142 307//142 306//142
f 254//143 308//143 307//143
f 255//144 309//144 308//144
f 256//145 310//145 309//145
f 257//146 311//146 310//146
f 258//145 312//145 311//145
f 259//147 313//147 312//147
f 260//148 314//148 313//148
f 315//149 319//149 322//149
f 316//150 320//150 319//150
f 317//151 321//151 320//151
f 318//152 322//152 321//152
f 323//1 364//1 404//1
f 324//153 365//153 364//153
f 325//154 366//154 365//154
f 326//155 367//155 366//155
f 327//156 368//156 367//156
f 328//157 369//157 368//157
f 329//158 370//158 369//158
f 330//159 371//159 370//159
f 331//160 372//160 371//160
f 332//161 373//161 372//161
f 333//162 374//162 373//162
f 334//247 375//247 374//247
f 335//164 376//164 375//164
f 336//165 377//165 376//165
f 337//108 378//108 377//108
f 338//166 379//166 378//166
f 339//167 380//167 379//167
f 340//168 381//168 380//168
f 341//169 382//169 381//169
f 342//245 383//245 382//245
f 343//171 384//171 383//171
f 344//172 385//172 384//172
f 345//173 386//173 385//173
f 346//174 387//174 386//174
f 347//255 388//255 387//255
f 348//176 389//176 388//176
f 349//243 390//243 389//243
f 350//178 391//178 390//178
f 351//256 392//256 391//256
f 352//257 393//257 392//257
f 353//181 394//181 393//181
f 354//182 395//182 394//182
f 355//183 396//183 395//183
f 356//184 397//184 396//184
f 357//185 398//185 397//185
f 358//186 399//186 398//186
f 359//187 400//187 399//187
f 360//188 401//188 400//188
f 361//189 402//189 401//189
f 362//190 403//190 402//190
f 363//191 404//191 403//191
f 405//192 409//192 412//192
f 406//193 410//193 409//193
f 407//194 411//194 410//194
f 408//195 412//195 411//195
f 413//82 417//82 420//82
f 414//196 418//196 417//196
f 415//197 419//197 418//197
f 416//198 420//198 419//198
f 138//199 467//199 514//199
f 137//200 468//200 467//200
f 421//201 469//201 468//201
f 422//202 470//202 469//202
f 423//203 471//203 470//203
f 424//204 472//204 471//204
f 425//157 473//157 472//157
f 426//205 474//205 473//205
f 427//206 475//206 474//206
f 428//207 476//207 475//207
f 429//208 477//208 476//208
f 430//204 478//204 477//204
f 431//120 479//120 478//120
f 432//209 480//209 479//209
f 433//210 481//210 480//210
f 434//32 482//32 481//32
f 435//211 483//211 482//211
f 436//212 484//212 483//212
f 437//213 485//213 484//213
f 438//214 486//214 485//214
f 439//215 487//215 486//215
f 440//216 488//216 487//216
f 441//217 489//217 488//217
f 442//218 490//218 489//218
f 443//219 491//219 490//219
f 444//220 492//220 491//220
f 445//221 493//221 492//221
f 446//108 494//108 493//108
f 447//133 495//133 494//133
f 448//248 496//248 495//248
f 356//185 717//185 718//185
f 450//222 498//222 497//222
f 451//223 499//223 498//223
f 452//224 500//224 499//224
f 453//225 501//225 500//225
f 454//226 502//226 501//226
f 455//227 503//227 502//227
f 456//228 504//228 503//228
f 457//229 505//229 504//229
f 458//230 506//230 505//230
f 459//231 507//231 506//231
f 460//232 508//232 507//232
f 461//233 509//233 508//233
f 462//234 510//234 509//234
f 463//235 511//235 510//235
f 464//236 512//236 511//236
f 465//237 513//237 512//237
f 466//238 514//238 513//238
f 515//167 519//167 522//167
f 516//239 520//239 519//239
f 517//240 521//240 520//240
f 518//206 522//206 521//206
f 449//241 497//241 496//241
f 624//201 733//201 421//201
f 229//121 648//121 649//121
f 92//56 579//56 580//56
f 778//199 625//199 138//199
f 355//184 716//184 717//184
f 228//120 647//120 648//120
f 91//55 578//55 579//55
f 354//183 715//183 716//183
f 227//119 646//119 647//119
f 90//54 577//54 578//54
f 517//206 781//206 782//206
f 353//182 714//182 715//182
f 226//118 645//118 646//118
f 89//53 576//53 577//53
f 516//240 780//240 781//240
f 352//181 713//181 714//181
f 225//117 644//117 645//117
f 88//52 575//52 576//52
f 515//239 779//239 780//239
f 351//257 712//257 713//257
f 224//116 643//116 644//116
f 87//51 574//51 575//51
f 518//167 782//167 779//167
f 350//256 711//256 712//256
f 223//115 642//115 643//115
f 86//50 573//50 574//50
f 465//238 777//238 778//238
f 349//178 710//178 711//178
f 222//114 641//114 642//114
f 85//49 572//49 573//49
f 464//237 776//237 777//237
f 348//243 709//243 710//243
f 221//113 640//113 641//113
f 84//48 571//48 572//48
f 463//236 775//236 776//236
f 347//176 708//176 709//176
f 220//51 639//51 640//51
f 83//47 570//47 571//47
f 462//235 774//235 775//235
f 346//244 707//244 708//244
f 219//112 638//112 639//112
f 82//46 569//46 570//46
f 461//234 773//234 774//234
f 345//174 706//174 707//174
f 218//111 637//111 638//111
f 81//45 568//45 569//45
f 460//233 772//233 773//233
f 344//173 705//173 706//173
f 217//110 636//110 637//110
f 80//44 567//44 568//44
f 459//232 771//232 772//232
f 343//172 704//172 705//172
f 216//109 635//109 636//109
f 79//43 566//43 567//43
f 458//231 770//231 771//231
f 342//171 703//171 704//171
f 215//108 634//108 635//108
f 78//42 565//42 566//42
f 457//230 769//230 770//230
f 341//245 702//245 703//245
f 214//44 633//44 634//44
f 77//38 564//38 565//38
f 456//229 768//229 769//229
f 340//169 701//169 702//169
f 213//107 632//107 633//107
f 76//41 563//41 564//41
f 455//228 767//228 768//228
f 339//260 700//260 701//260
f 212//106 631//106 632//106
f 75//40 562//40 563//40
f 454//227 766//227 767//227
f 338//167 699//167 700//167
f 211//105 630//105 631//105
f 74//39 561//39 562//39
f 453//226 765//226 766//226
f 337//166 698//166 699//166
f 210//104 629//104 630//104
f 73//38 560//38 561//38
f 452//225 764//225 765//225
f 336//108 697//108 698//108
f 209//103 628//103 629//103
f 72//37 559//37 560//37
f 451//224 763//224 764//224
f 335//165 696//165 697//165
f 208//102 627//102 628//102
f 71//36 558//36 559//36
f 450//223 762//223 763//223
f 334//164 695//164 696//164
f 207//101 626//101 627//101
f 138//35 625//35 558//35
f 449//222 761//222 762//222
f 333//163 694//163 695//163
f 260//100 679//100 626//100
f 34//33 556//33 557//33
f 760//241 761//241 449//241
f 332//162 693//162 694//162
f 137//99 624//99 625//99
f 33//32 555//32 556//32
f 447//49 759//49 760//49
f 331//161 692//161 693//161
f 136//98 623//98 624//98
f 32//31 554//31 555//31
f 446//133 758//133 759//133
f 330//160 691//160 692//160
f 135//97 622//97 623//97
f 31//30 553//30 554//30
f 445//108 757//108 758//108
f 329//159 690//159 691//159
f 134//96 621//96 622//96
f 30//29 552//29 553//29
f 444//221 756//221 757//221
f 328//158 689//158 690//158
f 133//95 620//95 621//95
f 29//28 551//28 552//28
f 443//220 755//220 756//220
f 327//157 688//157 689//157
f 132//94 619//94 620//94
f 28//20 550//20 551//20
f 442//219 754//219 755//219
f 326//156 687//156 688//156
f 131//93 618//93 619//93
f 27//27 549//27 550//27
f 441//218 753//218 754//218
f 325//155 686//155 687//155
f 130//87 617//87 618//87
f 26//26 548//26 549//26
f 440//217 752//217 753//217
f 324//154 685//154 686//154
f 129//92 616//92 617//92
f 25//25 547//25 548//25
f 439//216 751//216 752//216
f 323//153 684//153 685//153
f 128//91 615//91 616//91
f 24//24 546//24 547//24
f 438//215 750//215 751//215
f 363//1 724//1 684//1
f 127//90 614//90 615//90
f 23//23 545//23 546//23
f 437//214 749//214 750//214
f 317//152 682//152 683//152
f 126//89 613//89 614//89
f 22//22 544//22 545//22
f 436//213 748//213 749//213
f 316//151 681//151 682//151
f 125//88 612//88 613//88
f 21//21 543//21 544//21
f 93//57 580//57 581//57
f 230//122 649//122 650//122
f 357//186 718//186 719//186
f 94//58 581//58 582//58
f 231//123 650//123 651//123
f 358//187 719//187 720//187
f 95//59 582//59 583//59
f 232//124 651//124 652//124
f 359//188 720//188 721//188
f 96//60 583//60 584//60
f 233//125 652//125 653//125
f 360//189 721//189 722//189
f 97//61 584//61 585//61
f 234//126 653//126 654//126
f 361//190 722//190 723//190
f 98//62 585//62 586//62
f 235//127 654//127 655//127
f 362//191 723//191 724//191
f 99//63 586//63 587//63
f 236//128 655//128 656//128
f 408//192 728//192 725//192
f 100//64 587//64 588//64
f 237//72 656//72 657//72
f 405//193 725//193 726//193
f 101//65 588//65 589//65
f 238//129 657//129 658//129
f 406//194 726//194 727//194
f 102//66 589//66 590//66
f 239//261 658//261 659//261
f 407//195 727//195 728//195
f 103//67 590//67 591//67
f 240//131 659//131 660//131
f 416//82 732//82 729//82
f 35//1 557//1 523//1
f 104//68 591//68 592//68
f 241//132 660//132 661//132
f 413//196 729//196 730//196
f 1//2 523//2 524//2
f 105//69 592//69 593//69
f 242//133 661//133 662//133
f 414//197 730//197 731//197
f 2//3 524//3 525//3
f 106//70 593//70 594//70
f 243//134 662//134 663//134
f 415//198 731//198 732//198
f 3//4 525//4 526//4
f 107//71 594//71 595//71
f 244//135 663//135 664//135
f 4//5 526//5 527//5
f 108//72 595//72 596//72
f 245//136 664//136 665//136
f 5//6 527//6 528//6
f 109//73 596//73 597//73
f 246//137 665//137 666//137
f 6//7 528//7 529//7
f 110//74 597//74 598//74
f 247//138 666//138 667//138
f 421//202 733//202 734//202
f 7//8 529//8 530//8
f 111//262 598//262 599//262
f 248//139 667//139 668//139
f 422//203 734//203 735//203
f 8//9 530//9 531//9
f 112//76 599//76 600//76
f 249//140 668//140 669//140
f 423//204 735//204 736//204
f 9//10 531//10 532//10
f 113//77 600//77 601//77
f 250//139 669//139 670//139
f 424//157 736//157 737//157
f 10//11 532//11 533//11
f 114//78 601//78 602//78
f 251//141 670//141 671//141
f 425//205 737//205 738//205
f 11//250 533//250 534//250
f 115//79 602//79 603//79
f 252//142 671//142 672//142
f 426//206 738//206 739//206
f 12//13 534//13 535//13
f 116//80 603//80 604//80
f 253//143 672//143 673//143
f 427//207 739//207 740//207
f 13//14 535//14 536//14
f 117//81 604//81 605//81
f 254//144 673//144 674//144
f 428//208 740//208 741//208
f 14//15 536//15 537//15
f 118//82 605//82 606//82
f 255//145 674//145 675//145
f 429//204 741//204 742//204
f 15//16 537//16 538//16
f 119//83 606//83 607//83
f 256//146 675//146 676//146
f 430//120 742//120 743//120
f 16//17 538//17 539//17
f 120//76 607//76 608//76
f 257//145 676//145 677//145
f 431//209 743//209 744//209
f 17//18 539//18 540//18
f 121//84 608//84 609//84
f 258//147 677//147 678//147
f 432//210 744//210 745//210
f 18//19 540//19 541//19
f 122//85 609//85 610//85
f 259//148 678//148 679//148
f 433//32 745//32 746//32
f 19//18 541//18 542//18
f 123//86 610//86 611//86
f 318//149 683//149 680//149
f 434//211 746//211 747//211
f 20//20 542//20 543//20
f 124//87 611//87 612//87
f 315//150 680//150 681//150
f 435//212 747//212 748//212
usemtl roof
f 45//34 55//34 61//34
f 170//34 181//34 184//34
f 282//34 291//34 296//34
f 319//34 321//34 322//34
f 389//34 392//34 395//34
f 409//34 411//34 412//34
f 417//34 419//34 420//34
f 476//34 491//34 496//34
f 519//34 521//34 522//34
f 70//34 36//34 37//34
f 37//34 38//34 39//34
f 40//34 41//34 42//34
f 37//34 39//34 40//34
f 69//34 70//34 37//34
f 66//34 67//34 68//34
f 69//34 37//34 40//34
f 65//34 66//34 68//34
f 68//34 69//34 40//34
f 40//34 42//34 43//34
f 43//34 44//34 45//34
f 46//34 47//34 48//34
f 40//34 43//34 45//34
f 46//34 48//34 49//34
f 68//34 40//34 45//34
f 45//34 46//34 49//34
f 49//34 50//34 51//34
f 51//34 52//34 53//34
f 53//34 54//34 55//34
f 55//34 56//34 57//34
f 57//34 58//34 59//34
f 59//34 60//34 61//34
f 61//34 62//34 63//34
f 63//34 64//34 65//34
f 65//34 68//34 45//34
f 45//34 49//34 51//34
f 45//34 51//34 53//34
f 63//34 65//34 45//34
f 57//251 59//251 61//251
f 61//34 63//34 45//34
f 45//34 53//34 55//34
f 55//252 57//252 61//252
f 206//34 139//34 140//34
f 140//34 141//34 142//34
f 142//34 143//34 144//34
f 144//34 145//34 146//34
f 147//34 148//34 149//34
f 144//34 146//34 147//34
f 206//34 140//34 142//34
f 142//34 144//34 147//34
f 147//34 149//34 150//34
f 147//34 150//34 151//34
f 206//34 142//34 147//34
f 203//34 204//34 205//34
f 205//34 206//34 147//34
f 205//34 147//34 151//34
f 201//34 202//34 203//34
f 203//34 205//34 151//34
f 152//34 153//34 154//34
f 203//34 151//34 152//34
f 201//34 203//34 152//34
f 152//34 154//34 155//34
f 155//34 156//34 157//34
f 158//34 159//34 160//34
f 152//34 155//34 157//34
f 158//34 160//34 161//34
f 201//34 152//34 157//34
f 158//34 161//34 162//34
f 201//34 157//34 158//34
f 198//34 199//34 200//34
f 200//34 201//34 158//34
f 158//34 162//34 163//34
f 164//34 165//34 166//34
f 158//34 163//34 164//34
f 198//34 200//34 158//34
f 196//34 197//34 198//34
f 195//34 196//34 198//34
f 198//34 158//34 164//34
f 198//34 164//34 166//34
f 195//34 198//34 166//34
f 167//34 168//34 169//34
f 195//251 166//251 167//251
f 192//34 193//34 194//34
f 194//34 195//34 167//34
f 167//34 169//34 170//34
f 170//34 171//34 172//34
f 172//34 173//34 174//34
f 174//34 175//34 176//34
f 177//34 178//34 179//34
f 174//34 176//34 177//34
f 170//34 172//34 174//34
f 194//34 167//34 170//34
f 191//34 192//34 194//34
f 189//34 190//34 191//34
f 186//34 187//34 188//34
f 189//34 191//34 194//34
f 188//34 189//34 194//34
f 170//34 174//34 177//34
f 179//251 180//251 181//251
f 170//34 177//34 179//34
f 188//34 194//34 170//34
f 184//34 185//34 186//34
f 186//34 188//34 170//34
f 170//34 179//34 181//34
f 181//34 182//34 183//34
f 184//34 186//34 170//34
f 181//34 183//34 184//34
f 261//34 262//34 263//34
f 261//34 263//34 264//34
f 312//34 313//34 314//34
f 261//34 264//34 265//34
f 311//34 312//34 314//34
f 311//34 314//34 261//34
f 310//34 311//34 261//34
f 265//34 266//34 267//34
f 310//34 261//34 265//34
f 307//34 308//34 309//34
f 309//34 310//34 265//34
f 265//34 267//34 268//34
f 269//34 270//34 271//34
f 265//251 268//251 269//251
f 307//34 309//34 265//34
f 305//34 306//34 307//34
f 302//34 303//34 304//34
f 304//34 305//34 307//34
f 307//34 265//34 269//34
f 269//34 271//34 272//34
f 273//34 274//34 275//34
f 307//34 269//34 272//34
f 273//34 275//34 276//34
f 307//34 272//34 273//34
f 302//34 304//34 307//34
f 301//34 302//34 307//34
f 273//34 276//34 277//34
f 277//34 278//34 279//34
f 280//34 281//34 282//34
f 273//34 277//34 279//34
f 273//34 279//34 280//34
f 301//34 307//34 273//34
f 298//34 299//34 300//34
f 300//34 301//34 273//34
f 273//34 280//34 282//34
f 282//34 283//34 284//34
f 285//34 286//34 287//34
f 282//34 284//34 285//34
f 300//34 273//34 282//34
f 296//34 297//34 298//34
f 298//34 300//34 282//34
f 282//34 285//34 287//34
f 282//34 287//34 288//34
f 296//34 298//34 282//34
f 294//34 295//34 296//34
f 291//34 292//34 293//34
f 293//34 294//34 296//34
f 282//34 288//34 289//34
f 289//34 290//34 291//34
f 291//34 293//34 296//34
f 282//34 289//34 291//34
f 319//34 320//34 321//34
f 364//34 365//34 366//34
f 367//34 368//34 369//34
f 364//34 366//34 367//34
f 403//34 404//34 364//34
f 400//34 401//34 402//34
f 402//34 403//34 364//34
f 364//34 367//34 369//34
f 369//34 370//34 371//34
f 372//34 373//34 374//34
f 374//34 375//34 376//34
f 376//34 377//34 378//34
f 374//34 376//34 378//34
f 372//34 374//34 378//34
f 372//34 378//34 379//34
f 371//34 372//34 379//34
f 380//258 381//258 382//258
f 369//34 371//34 379//34
f 380//34 382//34 383//34
f 364//34 369//34 379//34
f 379//34 380//34 383//34
f 383//34 384//34 385//34
f 385//34 386//34 387//34
f 385//34 387//34 388//34
f 379//34 383//34 385//34
f 402//34 364//34 379//34
f 398//34 399//34 400//34
f 400//34 402//34 379//34
f 379//34 385//34 388//34
f 389//34 390//34 391//34
f 379//34 388//34 389//34
f 398//34 400//34 379//34
f 396//34 397//34 398//34
f 393//34 394//34 395//34
f 395//34 396//34 398//34
f 398//34 379//34 389//34
f 389//34 391//34 392//34
f 392//34 393//34 395//34
f 395//34 398//34 389//34
f 409//34 410//34 411//34
f 417//34 418//34 419//34
f 467//34 468//34 469//34
f 470//34 471//34 472//34
f 467//34 469//34 470//34
f 513//34 514//34 467//34
f 511//34 512//34 513//34
f 509//34 510//34 511//34
f 508//34 509//34 511//34
f 513//34 467//34 470//34
f 508//34 511//34 513//34
f 505//34 506//34 507//34
f 507//34 508//34 513//34
f 513//34 470//34 472//34
f 513//34 472//34 473//34
f 505//34 507//34 513//34
f 502//34 503//34 504//34
f 504//34 505//34 513//34
f 513//34 473//34 474//34
f 474//34 475//34 476//34
f 476//34 477//34 478//34
f 478//34 479//34 480//34
f 481//258 482//258 483//258
f 478//251 480//251 481//251
f 513//34 474//34 476//34
f 476//34 478//34 481//34
f 483//34 484//34 485//34
f 476//34 481//34 483//34
f 504//34 513//34 476//34
f 500//34 501//34 502//34
f 502//34 504//34 476//34
f 476//34 483//34 485//34
f 485//34 486//34 487//34
f 487//34 488//34 489//34
f 487//34 489//34 490//34
f 476//34 485//34 487//34
f 500//34 502//34 476//34
f 498//34 499//34 500//34
f 496//34 497//34 498//34
f 494//34 495//34 496//34
f 492//34 493//34 494//34
f 487//259 490//259 491//259
f 491//34 492//34 494//34
f 496//34 498//34 500//34
f 491//34 494//34 496//34
f 476//34 487//34 491//34
f 496//34 500//34 476//34
f 519//34 520//34 521//34
