# Blender 5.0.0
# www.blender.org
mtllib campus_terrain.mtl
o Terrain.001
v -249.883698 112.173836 6.000000
v -225.734024 112.173119 5.000000
v -201.584351 112.172470 5.000000
v -177.434677 112.171898 5.000000
v -153.285004 112.171394 4.000000
v -129.135315 112.170967 4.000000
v -104.985641 112.170616 4.000000
v -80.835968 112.170334 4.000000
v -56.686295 112.170128 5.000000
v -32.536617 112.169991 4.000000
v -8.386942 112.169930 3.000000
v 15.762733 112.169937 3.000000
v -249.884674 81.251755 7.000000
v -225.734894 81.251038 5.000000
v -201.585129 81.250389 5.000000
v -177.435364 81.249817 5.000000
v -153.285583 81.249313 5.000000
v -129.135818 81.248886 4.000000
v -104.986053 81.248535 4.000000
v -80.836281 81.248253 5.000000
v -56.686512 81.248047 5.000000
v -32.536743 81.247910 4.000000
v -8.386974 81.247849 4.000000
v 15.762795 81.247856 3.000000
v -249.885635 50.329678 7.000000
v -225.735779 50.328957 5.000000
v -201.585907 50.328308 5.000000
v -177.436050 50.327736 4.000000
v -153.286179 50.327236 4.000000
v -129.136322 50.326809 3.000000
v -104.986458 50.326454 3.000000
v -80.836594 50.326172 2.000000
v -56.686733 50.325962 2.000000
v -32.536869 50.325829 4.000000
v -8.387007 50.325768 4.000000
v 15.762856 50.325779 3.000000
v -249.886612 19.407597 7.000000
v -225.736649 19.406876 6.000000
v -201.586685 19.406229 5.000000
v -177.436737 19.405655 4.000000
v -153.286774 19.405153 4.000000
v -129.136826 19.404726 3.000000
v -104.986862 19.404371 3.000000
v -80.836906 19.404091 2.000000
v -56.686951 19.403883 2.000000
v -32.536995 19.403748 1.000000
v -8.387039 19.403687 1.000000
v 15.762918 19.403696 1.000000
v -249.887573 -11.514485 6.000000
v -225.737518 -11.515205 5.000000
v -201.587479 -11.515852 4.000000
v -177.437424 -11.516426 3.000000
v -153.287369 -11.516927 3.000000
v -129.137329 -11.517354 2.000000
v -104.987274 -11.517709 2.000000
v -80.837219 -11.517990 2.000000
v -56.687172 -11.518198 2.000000
v -32.537121 -11.518333 1.000000
v -8.387072 -11.518395 0.000000
v 15.762979 -11.518384 1.000000
v -249.888550 -42.436565 6.000000
v -225.738403 -42.437286 5.000000
v -201.588257 -42.437931 4.000000
v -177.438110 -42.438507 3.000000
v -153.287964 -42.439007 3.000000
v -129.137817 -42.439434 2.000000
v -104.987679 -42.439789 2.000000
v -80.837540 -42.440071 1.000000
v -56.687393 -42.440277 1.000000
v -32.537247 -42.440414 0.000000
v -8.387104 -42.440475 0.000000
v 15.763040 -42.440464 0.000000
v -249.889511 -73.358650 6.000000
v -225.739273 -73.359367 5.000000
v -201.589035 -73.360016 4.000000
v -177.438797 -73.360588 4.000000
v -153.288559 -73.361092 3.000000
v -129.138321 -73.361519 3.000000
v -104.988091 -73.361870 2.000000
v -80.837852 -73.362152 1.000000
v -56.687611 -73.362358 1.000000
v -32.537373 -73.362495 0.000000
v -8.387136 -73.362556 0.000000
v 15.763101 -73.362549 0.000000
v -249.890488 -104.280731 6.000000
v -225.740143 -104.281448 5.000000
v -201.589813 -104.282097 5.000000
v -177.439484 -104.282669 4.000000
v -153.289154 -104.283173 4.000000
v -129.138824 -104.283600 3.000000
v -104.988495 -104.283951 3.000000
v -80.838165 -104.284233 2.000000
v -56.687832 -104.284439 2.000000
v -32.537502 -104.284576 1.000000
v -8.387170 -104.284637 1.000000
v 15.763162 -104.284630 0.000000
v -249.883698 112.173836 0.000000
v -225.734024 112.173119 0.000000
v -201.584351 112.172470 0.000000
v -177.434677 112.171898 0.000000
v -153.285004 112.171394 0.000000
v -129.135315 112.170967 0.000000
v -104.985641 112.170616 0.000000
v -80.835968 112.170334 0.000000
v -56.686295 112.170128 0.000000
v -32.536617 112.169991 0.000000
v -8.386942 112.169930 0.000000
v 15.762733 112.169937 0.000000
v -249.884674 81.251755 0.000000
v 15.762795 81.247856 0.000000
v -249.885635 50.329678 0.000000
v 15.762856 50.325779 0.000000
v -249.886612 19.407597 0.000000
v 15.762918 19.403696 0.000000
v -249.887573 -11.514485 0.000000
v 15.762979 -11.518384 0.000000
v -249.888550 -42.436565 0.000000
v 15.763040 -42.440464 0.000000
v -249.889511 -73.358650 0.000000
v 15.763101 -73.362549 0.000000
v -249.890488 -104.280731 0.000000
v -225.740143 -104.281448 0.000000
v -201.589813 -104.282097 0.000000
v -177.439484 -104.282669 0.000000
v -153.289154 -104.283173 0.000000
v -129.138824 -104.283600 0.000000
v -104.988495 -104.283951 0.000000
v -80.838165 -104.284233 0.000000
v -56.687832 -104.284439 0.000000
v -32.537502 -104.284576 0.000000
v -8.387170 -104.284637 0.000000
v 15.763162 -104.284630 0.000000
vn 0.0369 0.0047 0.9993
vn 0.0588 0.0136 0.9982
vn 0.0825 0.0161 0.9965
vn -0.0000 -0.0000 1.0000
vn 0.0120 0.0093 0.9999
vn 0.0044 -0.0115 0.9999
vn 0.0251 -0.0047 0.9997
vn 0.0163 -0.0115 0.9998
vn 0.0294 0.0230 0.9993
vn -0.0163 -0.0115 0.9998
vn -0.0294 0.0230 0.9993
vn -0.0164 -0.0276 0.9995
vn 0.0087 0.0093 0.9999
vn 0.0076 -0.0344 0.9994
vn 0.0326 0.0093 0.9994
vn 0.0207 -0.0000 0.9998
vn 0.0251 0.0115 0.9996
vn 0.0456 0.0115 0.9989
vn 0.0738 0.0093 0.9972
vn 0.0163 -0.0047 0.9999
vn 0.0207 -0.0162 0.9997
vn 0.0120 -0.0255 0.9996
vn 0.0207 -0.0483 0.9986
vn -0.0281 -0.0622 0.9977
vn 0.0326 -0.0416 0.9986
vn 0.0457 -0.0047 0.9989
vn 0.0414 -0.0161 0.9990
vn 0.0370 -0.0115 0.9992
vn 0.0043 -0.0505 0.9987
vn -0.0000 -0.0323 0.9995
vn 0.0414 -0.0162 0.9990
vn 0.0370 -0.0208 0.9991
vn -0.0000 -0.0255 0.9997
vn -0.0326 -0.0255 0.9991
vn 0.0414 -0.0000 0.9991
vn 0.0370 0.0047 0.9993
vn 0.0163 0.0047 0.9999
vn 0.0251 -0.0115 0.9996
vn -0.0087 -0.0068 0.9999
vn 0.0207 0.0162 0.9997
vn 0.0370 0.0208 0.9991
vn 0.0044 0.0115 0.9999
vn 0.0207 0.0323 0.9993
vn 0.0239 0.0187 0.9995
vn -0.0000 1.0000 -0.0000
vn -1.0000 -0.0000 -0.0000
vn 1.0000 -0.0000 -0.0000
vn -0.0000 -1.0000 -0.0000
vt 0.085946 0.738674
vt 0.005037 0.842272
vt 0.005037 0.738674
vt 0.166854 0.842272
vt 0.166854 0.738674
vt 0.247763 0.842272
vt 0.247763 0.738674
vt 0.328672 0.738674
vt 0.409580 0.738674
vt 0.328672 0.842272
vt 0.490489 0.738674
vt 0.409580 0.842272
vt 0.571398 0.842272
vt 0.571398 0.738674
vt 0.652306 0.842272
vt 0.652306 0.738674
vt 0.733215 0.842272
vt 0.733215 0.738674
vt 0.814123 0.738674
vt 0.895032 0.738674
vt 0.814123 0.842272
vt 0.085946 0.635077
vt 0.005037 0.635077
vt 0.166854 0.635077
vt 0.247763 0.635077
vt 0.328672 0.635077
vt 0.409580 0.635077
vt 0.490489 0.635077
vt 0.571398 0.635077
vt 0.652306 0.635077
vt 0.733215 0.635077
vt 0.814123 0.635077
vt 0.895032 0.635077
vt 0.085946 0.531479
vt 0.005037 0.531479
vt 0.166854 0.531479
vt 0.247763 0.531479
vt 0.328672 0.531479
vt 0.409580 0.531479
vt 0.490489 0.531479
vt 0.571398 0.531479
vt 0.652306 0.531479
vt 0.733215 0.531479
vt 0.814123 0.531479
vt 0.895032 0.531479
vt 0.005037 0.427883
vt 0.085946 0.427883
vt 0.166854 0.427883
vt 0.247763 0.427883
vt 0.328672 0.427883
vt 0.409580 0.427883
vt 0.490489 0.427883
vt 0.571398 0.427883
vt 0.652306 0.427883
vt 0.733215 0.427883
vt 0.814123 0.427883
vt 0.895032 0.427883
vt 0.085946 0.324286
vt 0.005037 0.324286
vt 0.166854 0.324286
vt 0.247763 0.324286
vt 0.328672 0.324286
vt 0.409580 0.324286
vt 0.490489 0.324286
vt 0.571398 0.324286
vt 0.652306 0.324286
vt 0.733215 0.324286
vt 0.814123 0.324286
vt 0.895032 0.324286
vt 0.005037 0.220690
vt 0.085946 0.220690
vt 0.166854 0.220690
vt 0.247763 0.220690
vt 0.328672 0.220690
vt 0.409580 0.220690
vt 0.490489 0.220690
vt 0.571398 0.220690
vt 0.652306 0.220690
vt 0.733215 0.220690
vt 0.814123 0.220690
vt 0.895032 0.220690
vt 0.005037 0.117094
vt 0.085946 0.117094
vt 0.166854 0.117094
vt 0.247763 0.117094
vt 0.328672 0.117094
vt 0.409580 0.117094
vt 0.490489 0.117094
vt 0.571398 0.117094
vt 0.652306 0.117094
vt 0.733215 0.117094
vt 0.814123 0.117094
vt 0.895032 0.117094
vt 0.085946 0.842272
vt 0.490489 0.842272
vt 0.895032 0.842272
s 1
usemtl overlay
f 14/1/1 1/2/2 13/3/3
f 3/4/4 14/1/1 15/5/4
f 4/6/5 15/5/4 16/7/6
f 17/8/7 4/6/5 16/7/6
f 18/9/8 5/10/9 17/8/7
f 19/11/10 6/12/4 18/9/8
f 8/13/11 19/11/10 20/14/12
f 9/15/13 20/14/12 21/16/14
f 10/17/15 21/16/14 22/18/16
f 23/19/17 10/17/15 22/18/16
f 24/20/15 11/21/9 23/19/17
f 26/22/18 13/3/3 25/23/19
f 15/5/4 26/22/18 27/24/20
f 16/7/6 27/24/20 28/25/21
f 29/26/21 16/7/6 28/25/21
f 18/9/8 29/26/21 30/27/21
f 19/11/10 30/27/21 31/28/22
f 20/14/12 31/28/22 32/29/23
f 33/30/24 20/14/12 32/29/23
f 34/31/24 21/16/14 33/30/24
f 23/19/17 34/31/24 35/32/23
f 24/20/15 35/32/23 36/33/25
f 38/34/26 25/23/19 37/35/27
f 39/36/28 26/22/18 38/34/26
f 28/25/21 39/36/28 40/37/21
f 29/26/21 40/37/21 41/38/21
f 42/39/21 29/26/21 41/38/21
f 31/28/22 42/39/21 43/40/21
f 32/29/23 43/40/21 44/41/20
f 33/30/24 44/41/20 45/42/16
f 46/43/14 33/30/24 45/42/16
f 35/32/23 46/43/14 47/44/29
f 36/33/25 47/44/29 48/45/30
f 38/34/26 49/46/31 50/47/31
f 39/36/28 50/47/31 51/48/31
f 40/37/21 51/48/31 52/49/21
f 41/38/21 52/49/21 53/50/21
f 42/39/21 53/50/21 54/51/21
f 55/52/6 42/39/21 54/51/21
f 44/41/20 55/52/6 56/53/6
f 57/54/21 44/41/20 56/53/6
f 46/43/14 57/54/21 58/55/32
f 47/44/29 58/55/32 59/56/33
f 60/57/34 47/44/29 59/56/33
f 62/58/35 49/46/31 61/59/35
f 51/48/31 62/58/35 63/60/36
f 52/49/21 63/60/36 64/61/17
f 53/50/21 64/61/17 65/62/37
f 54/51/21 65/62/37 66/63/17
f 55/52/6 66/63/17 67/64/20
f 56/53/6 67/64/20 68/65/21
f 69/66/21 56/53/6 68/65/21
f 58/55/32 69/66/21 70/67/38
f 59/56/33 70/67/38 71/68/4
f 72/69/39 59/56/33 71/68/4
f 62/58/35 73/70/35 74/71/36
f 63/60/36 74/71/36 75/72/17
f 76/73/40 63/60/36 75/72/17
f 77/74/40 64/61/17 76/73/40
f 78/75/40 65/62/37 77/74/40
f 79/76/41 66/63/17 78/75/40
f 68/65/21 79/76/41 80/77/40
f 69/66/21 80/77/40 81/78/40
f 70/67/38 81/78/40 82/79/40
f 71/68/4 82/79/40 83/80/42
f 72/69/39 83/80/42 84/81/4
f 74/71/36 85/82/35 86/83/16
f 87/84/9 74/71/36 86/83/16
f 88/85/5 75/72/17 87/84/9
f 89/86/9 76/73/40 88/85/5
f 90/87/5 77/74/40 89/86/9
f 91/88/9 78/75/40 90/87/5
f 92/89/43 79/76/41 91/88/9
f 93/90/43 80/77/40 92/89/43
f 94/91/43 81/78/40 93/90/43
f 95/92/43 82/79/40 94/91/43
f 96/93/44 83/80/42 95/92/43
f 14/1/1 2/94/16 1/2/2
f 3/4/4 2/94/16 14/1/1
f 4/6/5 3/4/4 15/5/4
f 17/8/7 5/10/9 4/6/5
f 18/9/8 6/12/4 5/10/9
f 19/11/10 7/95/4 6/12/4
f 8/13/11 7/95/4 19/11/10
f 9/15/13 8/13/11 20/14/12
f 10/17/15 9/15/13 21/16/14
f 23/19/17 11/21/9 10/17/15
f 24/20/15 12/96/4 11/21/9
f 26/22/18 14/1/1 13/3/3
f 15/5/4 14/1/1 26/22/18
f 16/7/6 15/5/4 27/24/20
f 29/26/21 17/8/7 16/7/6
f 18/9/8 17/8/7 29/26/21
f 19/11/10 18/9/8 30/27/21
f 20/14/12 19/11/10 31/28/22
f 33/30/24 21/16/14 20/14/12
f 34/31/24 22/18/16 21/16/14
f 23/19/17 22/18/16 34/31/24
f 24/20/15 23/19/17 35/32/23
f 38/34/26 26/22/18 25/23/19
f 39/36/28 27/24/20 26/22/18
f 28/25/21 27/24/20 39/36/28
f 29/26/21 28/25/21 40/37/21
f 42/39/21 30/27/21 29/26/21
f 31/28/22 30/27/21 42/39/21
f 32/29/23 31/28/22 43/40/21
f 33/30/24 32/29/23 44/41/20
f 46/43/14 34/31/24 33/30/24
f 35/32/23 34/31/24 46/43/14
f 36/33/25 35/32/23 47/44/29
f 38/34/26 37/35/27 49/46/31
f 39/36/28 38/34/26 50/47/31
f 40/37/21 39/36/28 51/48/31
f 41/38/21 40/37/21 52/49/21
f 42/39/21 41/38/21 53/50/21
f 55/52/6 43/40/21 42/39/21
f 44/41/20 43/40/21 55/52/6
f 57/54/21 45/42/16 44/41/20
f 46/43/14 45/42/16 57/54/21
f 47/44/29 46/43/14 58/55/32
f 60/57/34 48/45/30 47/44/29
f 62/58/35 50/47/31 49/46/31
f 51/48/31 50/47/31 62/58/35
f 52/49/21 51/48/31 63/60/36
f 53/50/21 52/49/21 64/61/17
f 54/51/21 53/50/21 65/62/37
f 55/52/6 54/51/21 66/63/17
f 56/53/6 55/52/6 67/64/20
f 69/66/21 57/54/21 56/53/6
f 58/55/32 57/54/21 69/66/21
f 59/56/33 58/55/32 70/67/38
f 72/69/39 60/57/34 59/56/33
f 62/58/35 61/59/35 73/70/35
f 63/60/36 62/58/35 74/71/36
f 76/73/40 64/61/17 63/60/36
f 77/74/40 65/62/37 64/61/17
f 78/75/40 66/63/17 65/62/37
f 79/76/41 67/64/20 66/63/17
f 68/65/21 67/64/20 79/76/41
f 69/66/21 68/65/21 80/77/40
f 70/67/38 69/66/21 81/78/40
f 71/68/4 70/67/38 82/79/40
f 72/69/39 71/68/4 83/80/42
f 74/71/36 73/70/35 85/82/35
f 87/84/9 75/72/17 74/71/36
f 88/85/5 76/73/40 75/72/17
f 89/86/9 77/74/40 76/73/40
f 90/87/5 78/75/40 77/74/40
f 91/88/9 79/76/41 78/75/40
f 92/89/43 80/77/40 79/76/41
f 93/90/43 81/78/40 80/77/40
f 94/91/43 82/79/40 81/78/40
f 95/92/43 83/80/42 82/79/40
f 96/93/44 84/81/4 83/80/42
s 0
usemtl 
f 2/94/45 97/2/45 1/2/45
f 1/2/46 109/3/46 13/3/46
f 3/4/45 98/94/45 2/94/45
f 4/6/45 99/4/45 3/4/45
f 5/10/45 100/6/45 4/6/45
f 6/12/45 101/10/45 5/10/45
f 7/95/45 102/12/45 6/12/45
f 8/13/45 103/95/45 7/95/45
f 8/13/45 105/15/45 104/13/45
f 10/17/45 105/15/45 9/15/45
f 11/21/45 106/17/45 10/17/45
f 24/20/47 108/96/47 12/96/47
f 12/96/45 107/21/45 11/21/45
f 109/3/46 25/23/46 13/3/46
f 36/33/47 110/20/47 24/20/47
f 111/23/46 37/35/46 25/23/46
f 48/45/47 112/33/47 36/33/47
f 113/35/46 49/46/46 37/35/46
f 60/57/47 114/45/47 48/45/47
f 115/46/46 61/59/46 49/46/46
f 60/57/47 118/69/47 116/57/47
f 117/59/46 73/70/46 61/59/46
f 72/69/4 120/81/4 118/69/4
f 121/82/48 86/83/48 85/82/48
f 119/70/46 85/82/46 73/70/46
f 122/83/48 87/84/48 86/83/48
f 123/84/48 88/85/48 87/84/48
f 124/85/48 89/86/48 88/85/48
f 125/86/48 90/87/48 89/86/48
f 126/87/48 91/88/48 90/87/48
f 127/88/48 92/89/48 91/88/48
f 128/89/48 93/90/48 92/89/48
f 129/90/48 94/91/48 93/90/48
f 130/91/48 95/92/48 94/91/48
f 95/92/4 132/93/4 96/93/4
f 84/81/4 132/93/4 120/81/4
f 2/94/45 98/94/45 97/2/45
f 1/2/46 97/2/46 109/3/46
f 3/4/45 99/4/45 98/94/45
f 4/6/45 100/6/45 99/4/45
f 5/10/45 101/10/45 100/6/45
f 6/12/45 102/12/45 101/10/45
f 7/95/45 103/95/45 102/12/45
f 8/13/45 104/13/45 103/95/45
f 8/13/45 9/15/45 105/15/45
f 10/17/45 106/17/45 105/15/45
f 11/21/45 107/21/45 106/17/45
f 24/20/47 110/20/47 108/96/47
f 12/96/45 108/96/45 107/21/45
f 109/3/46 111/23/46 25/23/46
f 36/33/47 112/33/47 110/20/47
f 111/23/46 113/35/46 37/35/46
f 48/45/47 114/45/47 112/33/47
f 113/35/46 115/46/46 49/46/46
f 60/57/47 116/57/47 114/45/47
f 115/46/46 117/59/46 61/59/46
f 60/57/4 72/69/4 118/69/4
f 117/59/46 119/70/46 73/70/46
f 72/69/4 84/81/4 120/81/4
f 121/82/48 122/83/48 86/83/48
f 119/70/46 121/82/46 85/82/46
f 122/83/48 123/84/48 87/84/48
f 123/84/48 124/85/48 88/85/48
f 124/85/48 125/86/48 89/86/48
f 125/86/48 126/87/48 90/87/48
f 126/87/48 127/88/48 91/88/48
f 127/88/48 128/89/48 92/89/48
f 128/89/48 129/90/48 93/90/48
f 129/90/48 130/91/48 94/91/48
f 130/91/48 131/92/48 95/92/48
f 95/92/48 131/92/48 132/93/48
f 84/81/4 96/93/4 132/93/4
