# Blender 5.0.0
# www.blender.org
mtllib campus_footways.mtl
o None_paths_footway
v -241.644775 -44.591599 5.758728
v -241.879578 -46.577763 5.768448
v -239.404114 -44.856491 5.665955
v -239.599335 -46.847340 5.674026
v -238.400711 -44.934723 5.624405
v -238.603088 -46.925014 5.632782
v -229.905029 -46.000996 5.272614
v -230.154099 -47.985428 5.282928
v -221.419250 -47.066032 4.921234
v -221.695251 -49.047089 4.932648
v -219.562119 -47.350525 4.844330
v -219.918289 -49.319298 4.859085
v -218.348099 -47.604118 4.794067
v -218.680618 -49.577843 4.807831
v -208.666901 -48.848953 4.393188
v -208.921951 -50.832619 4.403748
v -198.936615 -50.097141 4.099960
v -199.191681 -52.080803 4.099960
v -189.229050 -51.356625 3.876740
v -189.484100 -53.340286 3.951447
v -179.513580 -52.605843 3.514832
v -179.759735 -54.590664 3.589218
v -172.403427 -53.455204 3.247879
v -172.640640 -55.441082 3.321930
v -165.276413 -54.295414 3.099960
v -165.513626 -56.281300 3.099960
v -158.159454 -55.145584 3.099960
v -158.401337 -57.130913 3.099960
v -152.823364 -55.808327 3.099960
v -153.069855 -57.793072 3.099960
v -147.487427 -56.471043 3.099960
v -147.738190 -58.455265 3.099960
v -139.478302 -57.511944 3.015701
v -139.733307 -59.495613 3.090408
v -131.458893 -58.542889 2.716980
v -131.713913 -60.526566 2.791687
v -123.439529 -59.573841 2.418243
v -123.694550 -61.557510 2.492950
v -115.420128 -60.604786 2.119522
v -115.675148 -62.588459 2.194229
v -107.335533 -61.632847 2.099960
v -107.696175 -63.602936 2.099960
v -105.273071 -62.125015 2.099960
v -105.933258 -64.023621 2.099960
v -102.940315 -63.215519 2.015289
v -103.783180 -65.029228 2.050201
v -244.612549 62.505608 6.663681
v -243.303345 60.993660 6.555237
v -243.118851 63.799000 6.539963
v -241.788864 62.305061 6.429825
v -238.494995 68.030838 6.157059
v -237.144714 66.555466 6.045227
v -233.861008 72.271973 5.773300
v -232.510727 70.796600 5.661469
v 7.879729 89.219635 3.168716
v 6.647872 90.795242 3.168777
v 0.087818 83.127663 3.688385
v -1.144037 84.703270 3.688431
v -7.702033 77.043762 4.071732
v -8.925627 78.619370 4.100006
v -7.709761 77.037781 4.072037
v -8.917899 78.625351 4.100006
v -13.135210 72.874443 4.100006
v -14.351612 74.462013 4.100006
v -18.568916 68.711105 4.100006
v -19.785316 70.298676 4.100006
v -204.674454 75.521019 5.100006
v -204.910324 73.534988 5.100006
v -195.578552 74.449081 4.880066
v -195.826828 72.453354 4.861588
v -186.484711 73.369064 4.845154
v -186.720581 71.383026 4.780930
v -177.390244 72.287109 4.810196
v -177.629501 70.303329 4.746017
v -172.015137 71.618790 4.788589
v -172.261017 69.633965 4.724411
v -162.274048 70.416397 4.749725
v -162.519073 68.431465 4.685532
v -152.540924 69.213951 4.680084
v -152.785645 67.228981 4.626038
v -145.625061 68.362251 4.366180
v -145.869507 66.377251 4.312103
v -138.700516 67.509483 4.051865
v -138.962021 65.526573 3.998566
v -136.495834 67.199471 3.950546
v -136.732788 65.213112 3.896118
v -128.204559 66.386940 3.619431
v -128.436981 64.400131 3.555176
v -120.029442 65.275558 3.583481
v -120.298843 63.293804 3.519394
v -111.872803 64.166710 3.547623
v -112.142212 62.184948 3.483536
v -103.728561 63.054634 3.459534
v -103.997955 61.072857 3.406601
v -95.571899 61.945778 3.085938
v -95.841316 59.964008 3.032990
v -87.394386 60.856556 2.850494
v -87.680901 58.854641 2.659210
v -78.655663 59.731712 3.012985
v -78.909935 57.747940 2.820511
v -69.900871 58.609539 2.904114
v -70.155144 56.625767 2.711655
v -61.146088 57.487370 2.795258
v -61.400360 55.503597 2.602783
v -52.368919 56.369812 3.044464
v -52.623192 54.386040 2.830933
v -43.658131 55.253284 3.657532
v -43.824375 53.258224 3.450211
v -41.982876 55.188267 3.789978
v -42.056831 53.189636 3.589935
v -37.824543 55.041912 4.120132
v -37.990688 53.046524 3.912796
v -31.587585 54.193638 4.100006
v -31.848770 52.210766 4.100006
v -25.472185 53.388111 4.100006
v -25.540527 51.379841 4.100006
v -21.586279 53.632988 4.100006
v -21.654034 51.624748 4.100006
v -20.046944 53.431133 4.100006
v -20.306980 51.448109 4.100006
v -38.895916 54.196732 3.949417
v -36.919315 53.891701 4.083527
v -37.650372 62.478088 4.311523
v -35.673771 62.173058 4.229675
v -36.370064 70.774567 4.258514
v -34.389290 70.496552 4.176498
v -36.076172 73.098717 4.246338
v -34.091972 72.847816 4.164185
v -127.329849 65.259193 3.582947
v -129.319962 65.527870 3.599350
v -128.422501 57.199688 3.322311
v -130.412628 57.468361 3.383942
v -129.523438 49.133709 3.116119
v -131.505295 49.402405 3.198181
v -130.616257 41.073097 3.161362
v -132.597809 41.343987 3.243408
v -131.372879 35.583954 3.192688
v -133.354141 35.857048 3.274734
v -132.129379 30.095646 3.224014
v -134.110580 30.369289 3.306046
v -133.025711 23.619322 3.261124
v -134.727173 25.914064 3.331589
v -135.768509 24.054186 3.374695
v -137.461533 26.347586 3.444794
v -136.377182 19.788658 3.399887
v -138.357132 20.071178 3.481873
v -137.128464 14.529959 3.273407
v -139.110062 14.800844 3.364227
v -137.841278 9.076785 3.126556
v -139.823273 9.344736 3.217300
v -139.036011 0.523111 2.899414
v -141.016769 0.799775 2.990372
v -140.230133 -8.026205 2.672363
v -142.210907 -7.749541 2.763336
v -141.422241 -16.567345 2.608780
v -143.407104 -16.319920 2.690964
v -141.708572 -19.177715 2.620621
v -143.694656 -18.941553 2.702866
v -142.940109 -28.788027 2.671616
v -144.923874 -28.533813 2.753769
v -144.170486 -38.389313 2.722549
v -146.154251 -38.135094 2.804703
v -145.402908 -47.998653 2.953384
v -147.386673 -47.744431 3.027313
v -146.620544 -57.587391 3.099960
v -148.605072 -57.338921 3.099960
v -146.934402 -60.154476 3.099960
v -148.917282 -59.892521 3.099960
v -147.877762 -66.798683 3.099960
v -149.857895 -66.517540 3.099960
v -148.819748 -73.433304 3.099960
v -150.799881 -73.152161 3.099960
v -149.772308 -80.064919 3.171295
v -151.756042 -79.809151 3.245163
v -150.832016 -89.205536 3.510757
v -152.818039 -88.969421 3.585373
v -151.981628 -98.640884 3.863495
v -153.966949 -98.398987 3.937881
v -82.300819 -96.140793 1.897354
v -80.310005 -96.404366 1.845215
v -81.082100 -86.973640 1.550446
v -79.091293 -87.237213 1.548767
v -79.855133 -77.806496 1.243774
v -77.872574 -78.070061 1.252304
v -78.636414 -68.632896 1.100006
v -76.653854 -68.896469 1.100006
v -231.783096 77.091530 5.601227
v -233.145065 78.556114 5.714020
v -237.564713 71.714966 6.080017
v -238.926682 73.179550 6.192810
v -233.119583 6.137605 5.976715
v -233.430984 4.161995 5.925705
v -232.004623 5.961864 5.924866
v -232.285507 3.981447 5.872437
v -222.660873 4.783550 5.499863
v -222.911118 2.799266 5.446045
v -213.345062 3.608757 5.076126
v -213.508820 1.613565 5.018387
v -212.052521 3.559169 5.021011
v -211.897583 1.551755 4.949661
v -202.574921 5.405587 4.688278
v -202.178711 3.445173 4.608459
v -194.183517 7.162754 4.397644
v -193.773239 5.205287 4.317352
v -184.847519 9.121454 4.074417
v -184.434402 7.164586 3.994019
v -178.316635 10.508831 3.848846
v -177.901047 8.552488 3.768372
v -171.776260 11.896484 3.857208
v -171.360672 9.940143 3.793945
v -165.082840 13.318393 3.903198
v -164.989853 11.293515 3.837708
v -156.181641 12.267330 3.869202
v -156.416168 10.281127 3.804993
v -147.452454 11.235585 3.594360
v -147.686966 9.249386 3.539841
v -138.715012 10.203858 3.199188
v -138.949539 8.217658 3.144669
v -137.698929 40.254776 3.454636
v -135.704498 40.403625 3.372055
v -137.811676 41.765198 3.459305
v -135.817749 41.921101 3.376740
v -138.483582 49.984497 3.487137
v -136.490234 50.147442 3.404602
v -139.155762 58.213749 3.770096
v -137.162415 58.376698 3.692825
v -139.802582 66.126266 4.052765
v -137.859940 66.909790 3.997665
v -141.113312 67.730019 4.158905
v -139.678970 69.135483 4.144958
v -146.964859 72.714203 4.562393
v -145.668381 74.237061 4.557968
v -152.743851 77.631691 4.960709
v -151.447739 79.154869 4.956299
v -158.512695 82.544518 5.099960
v -157.216583 84.067688 5.099960
v -164.291870 87.462158 5.099960
v -162.995758 88.985336 5.099960
v -168.652908 91.173073 5.099960
v -170.193146 95.109749 5.099960
v -169.334518 85.515182 5.099960
v -171.320175 85.754395 5.099960
v -170.240921 78.013397 4.995392
v -172.226562 78.252609 5.003128
v -171.145248 70.506775 4.752625
v -173.130905 70.745987 4.760361
v -213.688446 -8.764916 4.690170
v -213.948578 -10.747929 4.636810
v -205.179199 -9.881104 4.301743
v -205.439346 -11.870564 4.259583
v -196.669952 -10.997293 3.913284
v -196.930084 -12.986752 3.907227
v -188.160706 -12.119925 3.544113
v -188.420822 -14.102942 3.554886
v -179.650436 -13.236252 3.191727
v -179.912643 -15.218992 3.202576
v -171.149994 -14.368319 3.100006
v -171.414276 -16.350779 3.100006
v -162.658859 -15.500244 3.100006
v -162.923141 -17.482704 3.100006
v -154.172379 -16.631546 3.100006
v -154.427322 -18.615253 3.100006
v -148.382065 -17.349085 2.896957
v -148.627670 -19.333944 2.907135
v -142.579330 -18.067137 2.656693
v -142.823898 -20.052134 2.666809
v -134.574417 -19.049032 2.325226
v -134.817902 -21.034159 2.335297
v -126.560715 -20.030994 2.100006
v -126.804214 -22.016119 2.100006
v -118.555267 -21.012953 2.100006
v -118.798767 -22.998075 2.100006
v -110.549820 -21.994917 2.100006
v -110.793320 -23.980038 2.100006
v -102.608742 -22.971869 2.001556
v -102.744186 -24.970243 2.007156
v -100.233315 -23.003469 1.903198
v -100.094467 -25.005499 1.897446
v -98.350235 -22.715443 1.825211
v -98.047836 -24.692448 1.812683
v -219.266800 -59.608776 4.832092
v -220.249039 -61.350964 4.872772
v -211.139297 -64.191025 4.495544
v -212.066696 -65.964134 4.533951
v -206.655502 -66.359299 4.309891
v -207.526199 -68.159813 4.345932
v -202.196976 -68.515312 4.125259
v -202.960358 -70.367752 4.156876
v -194.678741 -71.096558 4.099960
v -195.312958 -72.993408 4.099960
v -189.297775 -72.844025 4.099960
v -189.861130 -74.763901 4.099960
v -183.897278 -74.262306 4.099960
v -184.324554 -76.217918 4.099960
v -178.046692 -75.286957 4.099960
v -178.351227 -77.264069 4.099960
v -168.930405 -76.511215 3.849670
v -169.194168 -78.493736 3.924698
v -159.781342 -77.728500 3.510193
v -160.045105 -79.711021 3.585220
v -150.632294 -78.945770 3.170715
v -150.896057 -80.928299 3.245743
v -223.428604 -78.609924 5.099960
v -223.666245 -80.595741 5.099960
v -213.625397 -79.794281 4.806580
v -213.863037 -81.780106 4.880630
v -203.803955 -80.969650 4.437897
v -204.053284 -82.954086 4.512390
v -195.634415 -82.044853 4.134384
v -195.895355 -84.027748 4.209305
v -187.454620 -83.110092 4.099960
v -187.722900 -85.092026 4.099960
v -178.506943 -84.354782 4.099960
v -178.782516 -86.335709 4.099960
v -169.562912 -85.598961 4.099960
v -169.838486 -87.579895 4.099960
v -160.631271 -86.852829 3.840454
v -160.906845 -88.833755 3.915924
v -151.687241 -88.097015 3.510330
v -151.962814 -90.077950 3.585800
v -215.935303 -33.606003 4.694183
v -216.745605 -35.434502 4.727722
v -207.511597 -37.338959 4.345352
v -208.337830 -39.160400 4.379578
v -199.270706 -41.164078 4.004120
v -200.079666 -43.002541 4.055893
v -192.218079 -44.120373 3.766495
v -192.989258 -45.965714 3.858109
v -185.191162 -47.057003 3.570496
v -185.871063 -48.940491 3.659561
v -178.913147 -48.978432 3.372665
v -179.490601 -50.893272 3.458496
v -171.947388 -51.047955 3.151154
v -172.516968 -52.965134 3.236740
v -164.965302 -53.108971 3.099960
v -165.534882 -55.026142 3.099960
v -157.995605 -55.179657 3.099960
v -158.565186 -57.096836 3.099960
v -215.444016 -22.925167 4.673843
v -215.114975 -24.897905 4.660217
v -207.646149 -21.624500 4.350952
v -207.298294 -23.594107 4.336548
v -202.343475 -20.635641 4.131378
v -201.976837 -22.601751 4.116196
v -197.006195 -19.640339 3.910370
v -196.689926 -21.615837 3.897278
v -191.994766 -18.969139 3.702866
v -191.729248 -20.951443 3.691864
v -186.986359 -18.298347 3.495483
v -186.765594 -20.286640 3.486343
v -179.263641 -17.616962 3.175705
v -179.099838 -19.610279 3.168915
v -174.549759 -17.258694 3.100006
v -174.442398 -19.256311 3.100006
v -167.795395 -17.046625 3.100006
v -167.732620 -19.045643 3.100006
v -161.063324 -16.835255 3.100006
v -161.000549 -18.834272 3.100006
v -154.331238 -16.623888 3.100006
v -154.268463 -18.622904 3.100006
v -211.192520 21.244230 5.438431
v -211.437180 19.274010 5.503738
v -203.176697 20.247717 5.138733
v -203.421371 18.277498 5.139618
v -195.155243 19.265265 4.829269
v -195.409119 17.281429 4.775635
v -189.821152 18.563206 4.585709
v -190.084366 16.580603 4.532486
v -186.577194 18.128836 4.437332
v -186.842636 16.146528 4.384216
v -137.610352 66.295197 3.967453
v -135.618286 66.117386 3.879211
v -136.840790 74.916878 4.214401
v -134.848724 74.739067 4.126175
v -136.073303 83.524055 4.313797
v -134.081238 83.346245 4.237061
v -153.292725 68.991760 4.703659
v -152.025589 67.451180 4.601730
v -146.967499 74.235008 4.611694
v -145.665741 72.716255 4.508667
v -141.359604 79.210663 4.540375
v -140.032242 77.714630 4.437042
v -135.730377 84.192558 4.277985
v -134.424164 82.677742 4.272873
v -131.090607 88.079590 4.099960
v -129.806091 86.546616 4.099960
v -126.518814 91.910507 4.100006
v -125.148994 90.449020 4.100006
v -125.790314 92.673698 4.100006
v -124.156082 91.489182 4.100006
v -125.479553 93.253235 4.100006
v -123.666977 92.401306 4.100006
v -125.225304 93.877907 4.100006
v -123.277855 93.357368 4.100006
v -124.755447 97.315285 4.100006
v -122.773880 97.044426 4.100006
v -242.651718 99.907600 5.898071
v -244.066177 98.493622 6.060944
v -237.206512 94.460564 5.623260
v -238.783447 93.209122 5.794327
v -233.239136 88.081444 5.500961
v -235.065796 87.231544 5.679733
v -231.591522 83.017792 5.528259
v -233.583847 82.677094 5.704269
v -231.464371 77.847977 5.574829
v -233.463791 77.799667 5.740417
v -214.051392 -10.728930 4.641693
v -213.585632 -8.783915 4.685303
v -215.080215 -10.482571 4.692261
v -214.695496 -8.518147 4.739853
v -216.769775 -10.224212 4.770569
v -216.500916 -8.242077 4.823547
v -225.260040 -9.218521 5.154648
v -225.024780 -7.232408 5.209152
v -233.752792 -8.212532 5.538849
v -233.546143 -6.223034 5.594620
v -234.862488 -8.113373 5.587997
v -234.679535 -6.121753 5.644821
v -237.439957 -7.870121 5.702591
v -237.057617 -5.897317 5.750549
v -241.993530 -6.517484 5.934891
v -241.424042 -4.600281 5.973312
v -231.591064 78.726852 5.585327
v -231.841766 76.742630 5.606079
v -227.717880 78.237480 5.264557
v -227.960007 76.252182 5.284607
v -219.181396 77.235878 5.100006
v -219.414917 75.249550 5.100006
v -210.663879 76.234573 5.100006
v -210.883698 74.246643 5.100006
v -206.801956 75.834427 5.100006
v -207.008072 73.845078 5.100006
v -237.320724 -27.917698 5.579697
v -237.038956 -25.937645 5.568039
v -238.729172 -27.717287 5.638031
v -238.447403 -25.737228 5.626358
v -204.922867 -81.854759 4.512848
v -202.934372 -82.068977 4.437439
v -204.248917 -75.598618 4.282639
v -202.260406 -75.812836 4.207214
v -203.572922 -69.334427 4.182236
v -201.574081 -69.547028 4.099960
v -192.674698 -85.488579 4.123184
v -192.908493 -87.474869 4.197098
v -187.932709 -86.035614 4.099960
v -188.166504 -88.021896 4.099960
v -193.006210 6.418286 4.324814
v -194.950531 5.949753 4.390167
v -192.535248 4.463887 4.242111
v -194.482635 4.007948 4.307999
v -191.994827 2.086450 4.142853
v -193.945099 1.643147 4.209274
v -201.405045 4.661291 4.615768
v -203.348587 4.189466 4.680984
v -200.883636 2.513501 4.524719
v -202.826843 2.040299 4.589874
v -200.544830 1.126493 4.465836
v -202.018158 -1.270401 4.449310
v -193.195755 2.838974 4.216919
v -192.744186 0.890622 4.135208
v -185.076492 4.710727 3.941254
v -184.640335 2.758817 3.860062
v -183.835342 4.979291 3.898544
v -183.412369 3.024533 3.817810
v -186.572937 18.128256 4.437134
v -186.846893 16.147108 4.384415
v -184.721130 17.872177 4.352188
v -184.995087 15.891031 4.299438
v -189.429260 22.088629 4.596680
v -189.641510 20.099924 4.605469
v -186.915817 21.820381 4.492599
v -187.147217 19.833721 4.502182
v -185.054535 21.585369 4.415527
v -185.304901 19.601105 4.425888
v -175.634247 20.398523 4.100006
v -175.884460 18.420692 4.068207
v -166.222153 19.218126 4.093994
v -166.472366 17.233837 4.029831
v -156.810059 18.031269 4.055618
v -157.060272 16.046982 3.991440
v -147.406219 16.844397 3.773834
v -147.656433 14.860115 3.720016
v -137.994156 15.657544 3.345718
v -138.244370 13.673261 3.291901
v -198.354660 31.415024 4.966278
v -198.607895 29.431118 4.976746
v -193.034668 30.735935 4.745987
v -193.286469 28.751848 4.756393
v -188.358032 30.145924 4.552322
v -188.608383 28.161652 4.562698
v -190.945831 17.689367 4.604019
v -188.959686 17.454443 4.514175
v -190.527740 21.217739 4.642166
v -188.543015 20.970816 4.559982
v -189.475464 29.278004 4.598602
v -187.490952 29.029568 4.516418
v -189.241318 31.231983 4.588898
v -187.255554 30.994026 4.506683
v -178.381927 17.294167 4.070999
v -178.641083 15.311031 4.017578
v -175.681091 16.942316 4.020386
v -177.925644 15.217540 3.984940
v -176.223602 12.690792 3.882889
v -177.957001 14.971776 3.978302
v -179.024979 13.109537 3.962296
v -178.728439 15.087430 4.013992
v -234.267883 5.271176 5.996246
v -232.282684 5.028425 5.906189
v -233.087402 14.925324 6.259583
v -231.102188 14.682575 6.169525
v -231.904877 24.574636 6.355469
v -229.919678 24.331892 6.273254
v -230.736649 34.219158 6.035461
v -228.751434 33.976402 5.878891
v -229.434708 44.866402 5.583328
v -227.692368 42.637466 5.511124
v -218.536133 43.540459 5.099960
v -218.779846 41.555359 5.099960
v -208.651138 42.326805 5.099960
v -208.894852 40.341709 5.099960
v -236.146179 45.745693 6.110718
v -236.403900 43.762375 6.196213
v -228.434677 44.743595 5.504486
v -228.692383 42.760273 5.589966
v -206.982452 56.179619 5.100006
v -206.758911 58.167091 5.100006
v -210.057404 56.525467 5.100006
v -209.821884 58.511589 5.100006
v -217.890808 57.502335 5.100006
v -217.643311 59.486961 5.100006
v -225.718231 58.478455 5.100006
v -225.470734 60.463078 5.100006
v -233.554596 59.453640 5.747894
v -233.322021 61.440128 5.728638
v -234.564316 59.564171 5.831512
v -234.346695 61.552292 5.813492
v -207.486221 52.084023 5.100006
v -207.246475 54.069603 5.100006
v -210.530640 52.451641 5.100006
v -210.287811 54.436848 5.100006
v -218.350906 53.420528 5.100006
v -218.104996 55.405354 5.100006
v -226.186050 54.389225 5.137634
v -225.940140 56.374050 5.117279
v -234.012589 55.358894 5.785812
v -233.751053 57.341785 5.764160
v -235.054962 55.504730 5.872131
v -234.777832 57.485435 5.849197
v -186.031662 20.810678 4.455978
v -188.031372 20.843426 4.538788
v -186.064499 18.811314 4.438171
v -188.068161 18.603277 4.514420
v -185.735031 17.360481 4.377625
v -187.684784 16.914883 4.443939
v -183.668060 8.374376 4.001404
v -185.613861 7.911664 4.067017
v -182.649567 4.227624 3.825134
v -184.598145 3.776197 3.891220
v -180.938568 -3.627764 3.500244
v -182.892761 -4.053406 3.567398
v -179.225250 -11.493806 3.174896
v -181.189713 -11.878801 3.255463
v -178.792801 -14.077088 3.156204
v -180.770248 -14.378154 3.238083
v -178.189621 -18.487984 3.131226
v -180.173874 -18.739258 3.213394
v -177.749832 -22.261641 3.113007
v -179.744431 -22.424028 3.195602
v -177.399597 -29.618696 3.100006
v -179.408569 -29.649843 3.181686
v -177.530365 -37.618279 3.103912
v -179.529861 -37.568943 3.186707
v -177.768417 -44.560398 3.182388
v -179.765701 -44.446541 3.261414
v -178.206573 -50.034729 3.377563
v -180.197159 -49.836979 3.453598
v -178.645966 -53.735855 3.515457
v -180.627350 -53.460655 3.588593
v -179.020584 -56.089138 3.607071
v -181.000534 -55.805038 3.679871
v -179.579468 -60.460316 3.771561
v -181.554657 -60.139019 3.842972
v -180.589584 -65.565605 3.978485
v -182.544449 -65.141472 4.045715
v -181.777466 -70.637047 4.099960
v -183.714203 -70.136177 4.099960
v -183.161789 -75.558960 4.099960
v -185.060043 -74.921265 4.099960
v -186.617935 -84.364609 4.099960
v -188.559586 -83.837524 4.099960
v -187.060410 -87.175659 4.099960
v -189.038803 -86.881851 4.099960
v -187.380966 -89.471352 4.099960
v -189.374130 -89.204445 4.106689
v -202.176605 47.613544 5.099960
v -202.432526 45.629986 5.099960
v -196.318527 46.854813 4.881973
v -196.574463 44.871254 4.892563
v -207.897064 74.965622 5.100006
v -205.912964 74.713890 5.100006
v -206.886185 82.933281 5.100006
v -204.902084 82.681557 5.100006
v -205.875320 90.900948 5.100006
v -203.891220 90.649223 5.100006
v -204.864456 98.868622 5.100006
v -202.880356 98.616898 5.100006
v -240.153915 52.388741 6.294403
v -240.407516 50.404884 6.315399
v -235.449036 51.787285 5.904755
v -235.707611 49.795788 5.943451
v -226.284210 50.588299 5.145752
v -226.545654 48.597183 5.223419
v -217.102310 49.391121 5.099960
v -217.361740 47.408016 5.099960
v -207.953781 48.194271 5.099960
v -208.183487 46.207279 5.099960
v -201.505905 47.543915 5.096771
v -203.113556 45.697998 5.099960
v -199.424988 38.751934 5.010590
v -201.371216 38.291279 5.091187
v -197.511032 30.665520 4.931335
v -199.451523 30.180622 5.011673
v -195.914673 24.599487 4.865234
v -197.848816 24.090487 4.945312
v -194.315109 18.527847 4.770630
v -196.249252 18.018843 4.834274
v -233.846313 65.747452 5.772064
v -234.090744 63.762455 5.792297
v -224.637527 64.615456 5.100006
v -224.881973 62.630455 5.100006
v -215.445175 63.483463 5.100006
v -215.689621 61.498455 5.100006
v -206.252808 62.351460 5.100006
v -206.497253 60.366455 5.100006
v -51.021179 -12.482069 1.834366
v -53.007191 -12.245926 1.924240
v -51.938454 -20.196501 1.622849
v -53.924461 -19.960360 1.712723
v -52.855724 -27.910938 1.411346
v -54.841728 -27.674795 1.501221
v -49.516682 -0.307041 1.803177
v -51.503426 -0.077157 1.885437
v -50.316570 -7.219978 1.836304
v -52.303318 -6.990093 1.918564
v -49.736393 6.522301 1.812271
v -49.979534 4.537133 1.822342
v -45.737156 6.032471 1.646683
v -45.980293 4.047305 1.656754
v -43.668167 -29.854082 0.968079
v -41.685631 -30.117775 0.877472
v -42.581375 -21.683229 1.187317
v -40.598835 -21.946928 1.096695
v -41.494572 -13.512387 1.406570
v -39.512035 -13.776086 1.315948
v -47.313793 19.631531 1.711670
v -49.301926 19.849190 1.793976
v -48.085751 12.528632 1.743927
v -50.073872 12.746290 1.826248
v -48.863800 5.421858 1.776154
v -50.852135 5.637574 1.858475
v -49.289722 1.459859 1.793777
v -51.278267 1.673635 1.876129
v -38.530899 18.130358 1.348282
v -36.546112 18.376572 1.266098
v -39.573818 26.482834 1.391174
v -37.552185 26.757679 1.398621
v -40.573681 34.868782 1.935318
v -38.588894 35.114994 2.123581
v -41.610394 43.226097 2.660263
v -39.625610 43.472305 2.848526
v -42.645718 51.572193 3.384247
v -40.663715 51.840855 3.574448
v -43.009205 54.043430 3.593887
v -41.030499 54.334476 3.785995
v -18.565987 68.713364 4.100006
v -19.788250 70.296417 4.100006
v -20.872536 66.932503 4.100006
v -22.124264 68.492805 4.100006
v -26.335442 62.380344 4.100006
v -27.615765 63.916824 4.100006
v -31.812634 57.816265 4.100006
v -33.107430 59.347900 4.123413
v -37.320133 53.232086 3.986343
v -38.495106 54.856350 4.046600
v -41.151436 50.841862 3.437149
v -42.158005 52.571190 3.521561
v -43.668217 49.478493 3.096451
v -44.614174 51.240658 3.189056
v -51.588909 45.265186 2.031708
v -52.528168 47.030918 2.125229
v -59.528629 41.029873 2.100006
v -60.467884 42.795597 2.100006
v -67.445961 36.818348 2.100006
v -68.385216 38.584080 2.100006
v -75.363304 32.606827 2.100006
v -76.302559 34.372559 2.100006
v -83.288910 28.395311 2.201630
v -84.228172 30.161039 2.240509
v -91.206253 24.183796 2.529465
v -92.145508 25.949524 2.568359
v -27.531338 13.386774 0.905426
v -25.546656 13.139732 0.897446
v -27.087900 16.949268 1.020630
v -25.103281 16.701681 1.012634
v -25.970558 25.913509 1.732040
v -23.986008 25.665380 1.707962
v -24.851187 34.866375 2.600632
v -22.866632 34.618244 2.576553
v -23.731806 43.819241 3.469208
v -21.747261 43.571110 3.445145
v -22.612530 52.752129 4.100006
v -20.627783 52.505608 4.100006
v -21.834505 59.057571 4.100006
v -19.849560 58.812656 4.100006
v -21.097555 65.030113 4.100006
v -19.030262 65.452591 4.100006
v -22.363260 67.210640 4.100006
v -20.633543 68.214668 4.100006
v -132.996292 31.224791 3.259903
v -133.243668 29.240147 3.270142
v -124.699219 30.191629 3.100006
v -124.946594 28.206987 3.100006
v -116.410400 29.158464 3.100006
v -116.657776 27.173826 3.100006
v -108.121582 28.125305 3.100006
v -108.368958 26.140665 3.100006
v -99.841034 27.092144 2.887024
v -100.088402 25.107502 2.897247
v -91.553139 26.059101 2.543823
v -91.798607 24.074219 2.554001
v -82.879257 24.994926 2.184662
v -83.122803 23.009811 2.194748
v -74.196152 23.930634 2.100006
v -74.439697 21.945518 2.100006
v -65.521309 22.866343 2.100006
v -65.764854 20.881227 2.100006
v -56.846470 21.802050 2.100006
v -57.090015 19.816936 2.100006
v -48.175301 20.731594 1.747330
v -48.434216 18.753973 1.758362
v -46.703949 20.518520 1.686417
v -46.984379 18.544014 1.698318
v -85.306511 69.931366 3.817368
v -87.292183 70.170364 3.758347
v -85.919487 64.838509 3.297897
v -87.905159 65.077507 3.238846
v -86.532372 59.746437 2.778488
v -88.542908 59.964760 2.730820
v -87.589462 51.034069 2.402527
v -89.575500 51.269936 2.492371
v -88.617844 42.336811 2.422287
v -90.603882 42.572670 2.504532
v -89.650337 33.642769 2.465042
v -91.636375 33.878632 2.547272
v -90.683716 24.941422 2.507828
v -92.668030 25.191902 2.589981
v -91.990982 15.178712 2.561905
v -93.973343 15.443778 2.643997
v -93.295197 5.424912 2.615906
v -95.265152 5.699672 2.656815
v -94.587013 -4.319193 2.332809
v -96.569374 -4.054124 2.341385
v -95.891220 -14.072991 2.017380
v -97.873589 -13.807927 2.025955
v -97.207855 -23.836479 1.777908
v -99.190208 -23.571411 1.860001
v -102.459045 -64.552643 1.995361
v -104.264435 -63.692097 2.070129
v -103.227081 -66.163940 2.027161
v -104.939651 -65.108658 2.098083
v -104.636360 -67.980957 2.085526
v -106.006599 -66.496002 2.099960
v -106.524353 -69.244736 2.099960
v -107.481613 -67.479218 2.099960
v -113.343536 -72.178337 2.407806
v -114.058777 -70.308861 2.376968
v -118.650444 -73.967010 2.685394
v -119.254372 -72.060005 2.648727
v -125.690865 -76.054947 3.044449
v -126.176720 -74.112930 3.001770
v -132.866974 -77.517372 3.099960
v -133.216766 -75.547485 3.099960
v -141.280136 -78.784538 3.099960
v -141.652786 -76.818115 3.099960
v -150.540985 -80.911812 3.230499
v -150.987366 -78.962257 3.185944
v -97.207092 -23.830692 1.777893
v -99.190971 -23.577196 1.860031
v -98.240051 -31.914705 1.820648
v -100.223930 -31.661209 1.902802
v -99.273018 -39.998711 1.863419
v -101.256882 -39.745216 1.945557
v -100.303909 -48.081108 1.906143
v -102.287773 -47.827610 1.988281
v -101.336861 -56.165115 1.948914
v -103.320732 -55.911625 2.031052
v -102.369804 -64.249115 1.991684
v -104.353676 -63.995628 2.073822
v -227.600983 101.422180 5.177338
v -229.585190 101.672836 5.259506
v -228.522751 94.125206 5.215500
v -230.506973 94.375870 5.297668
v -229.445221 86.822678 5.253693
v -231.440277 87.074837 5.384537
v -230.725769 77.598289 5.513657
v -232.707062 77.871201 5.677734
v -213.617233 -7.386263 4.731812
v -215.601944 -7.139430 4.821976
v -213.896301 -9.630099 4.670807
v -215.879425 -9.370620 4.761307
v -214.901535 -16.956516 4.651382
v -216.882950 -16.684418 4.733429
v -215.904449 -24.259687 4.692902
v -217.888733 -24.008581 4.775070
v -217.033890 -34.013248 4.739655
v -219.020279 -33.780392 4.821915
v -217.890610 -41.233685 4.775116
v -219.876663 -40.998039 4.857376
v -218.747528 -48.455765 4.810608
v -220.732880 -48.214050 4.892807
v -219.052277 -50.896683 4.823227
v -221.036865 -50.648918 4.905411
v -46.710930 20.519508 1.686707
v -46.977398 18.543026 1.698029
v -37.408016 19.244934 1.301788
v -37.668995 17.262001 1.312592
v -31.687252 18.535711 1.071945
v -31.948917 16.541616 1.075684
v -25.970961 17.817680 1.048721
v -26.220221 15.833274 0.984558
v -42.746479 54.153641 3.626358
v -44.736027 54.357868 3.481400
v -43.148052 50.241592 3.213547
v -45.134338 50.477554 3.071960
v -44.182636 42.578140 2.384384
v -46.164658 42.845718 2.246201
v -45.251938 34.901855 1.626297
v -47.233959 35.169430 1.708359
v -46.284393 27.254215 1.669037
v -48.266418 27.521795 1.751099
v -47.316849 19.606571 1.711792
v -49.298874 19.874149 1.793854
v -35.520344 69.645500 4.223328
v -35.239010 71.625618 4.211685
v -40.854893 70.403435 4.444214
v -42.597584 72.671120 4.516388
v -41.459312 65.357018 4.469254
v -43.445122 65.594856 4.551483
v -42.171436 59.132294 4.156998
v -44.111252 59.754185 4.056686
v -42.927433 57.752640 3.960526
v -44.868011 58.373123 3.860001
v -43.127769 56.057884 3.779526
v -45.154556 55.949062 3.601105
v -42.766445 54.478806 3.656235
v -44.716064 54.032700 3.451492
v -131.727997 40.215885 3.207397
v -131.486069 42.201195 3.197372
v -136.935684 40.850494 3.423035
v -136.693726 42.835808 3.413025
v -137.601883 25.362560 3.450623
v -135.628189 25.039207 3.368881
v -137.228012 27.644606 3.435135
v -135.254318 27.321251 3.353409
v -137.240524 27.447100 3.435654
v -135.241806 27.518759 3.352890
v -137.470810 33.870235 3.445190
v -135.472092 33.941891 3.362427
v -137.701065 40.293373 3.454727
v -135.702362 40.365028 3.371964
v -239.954132 -57.784386 5.688705
v -241.936447 -57.519096 5.770798
v -241.044617 -65.932930 5.733856
v -243.026947 -65.667641 5.815933
v -242.135086 -74.081490 5.778992
v -244.117416 -73.816200 5.861084
v -243.225601 -82.230042 5.824127
v -245.207932 -81.964752 5.906235
v -240.824524 -56.659058 5.724762
v -241.066040 -58.644424 5.734756
v -230.939423 -57.861595 5.315430
v -231.180939 -59.846958 5.325424
v -220.970184 -59.074364 4.902634
v -221.379913 -61.039261 4.919586
v -219.471878 -59.521656 4.840591
v -220.043991 -61.438084 4.864273
v -237.316299 -25.937027 5.579514
v -237.043411 -27.918324 5.568222
v -230.555206 -25.005844 5.299561
v -230.282318 -26.987141 5.288254
v -223.794113 -24.074665 5.019608
v -223.521225 -26.055960 5.008301
v -217.032990 -23.143478 4.739639
v -216.760193 -25.124788 4.728333
v -215.415863 -22.920881 4.672684
v -215.143127 -24.902199 4.661377
v -236.837921 -25.987951 5.559708
v -237.521790 -27.867395 5.588028
v -230.453659 -28.311001 5.295349
v -231.137527 -30.190445 5.323669
v -224.069382 -30.634052 5.030991
v -224.753250 -32.513493 5.059296
v -217.682755 -32.957966 4.766541
v -218.371414 -34.835674 4.795044
v -215.993744 -33.582279 4.696594
v -216.687164 -35.458221 4.725311
vn 0.0414 -0.0000 0.9991
vn 0.0363 0.0003 0.9993
vn 0.0364 0.0006 0.9993
vn 0.0261 -0.0034 0.9997
vn 0.0261 -0.0006 0.9997
vn 0.0308 0.0313 0.9990
vn 0.0306 0.0337 0.9990
vn 0.0414 0.0323 0.9986
vn 0.0369 0.0296 0.9989
vn 0.0382 0.0327 0.9987
vn 0.0102 -0.0012 0.9999
vn 0.0115 0.0019 0.9999
vn -0.0000 -0.0000 1.0000
vn 0.0052 -0.0007 1.0000
vn 0.0048 0.0023 1.0000
vn 0.0240 0.0316 0.9992
vn 0.0237 0.0346 0.9991
vn 0.0413 0.0323 0.9986
vn 0.0277 0.0311 0.9991
vn 0.0289 0.0339 0.9990
vn 0.0012 -0.0002 1.0000
vn 0.0022 0.0025 1.0000
vn 0.0156 -0.0054 0.9999
vn 0.0146 -0.0017 0.9999
vn 0.0285 -0.0010 0.9996
vn 0.0264 0.0070 0.9996
vn 0.0825 -0.0000 0.9966
vn 0.0375 0.0281 0.9989
vn 0.0371 0.0290 0.9989
vn 0.0393 0.0126 0.9991
vn 0.0385 0.0143 0.9992
vn 0.0076 -0.0087 0.9999
vn 0.0085 -0.0111 0.9999
vn 0.0016 0.0012 1.0000
vn 0.0021 -0.0000 1.0000
vn 0.0254 -0.0043 0.9997
vn 0.0259 -0.0031 0.9997
vn 0.0147 -0.0127 0.9998
vn 0.0154 -0.0105 0.9998
vn -0.0000 -0.0323 0.9995
vn 0.0005 -0.0308 0.9995
vn 0.0016 -0.0325 0.9995
vn 0.0015 -0.0322 0.9995
vn 0.0220 -0.0303 0.9993
vn 0.0220 -0.0299 0.9993
vn 0.0414 -0.0323 0.9986
vn 0.0395 -0.0324 0.9987
vn 0.0396 -0.0321 0.9987
vn 0.0182 -0.0344 0.9992
vn 0.0183 -0.0341 0.9993
vn 0.0031 -0.0327 0.9995
vn 0.0031 -0.0323 0.9995
vn 0.0236 -0.0303 0.9993
vn 0.0235 -0.0299 0.9993
vn 0.0394 -0.0373 0.9985
vn 0.0413 -0.0323 0.9986
vn -0.0073 -0.0942 0.9955
vn -0.0049 -0.0892 0.9960
vn -0.0152 -0.0946 0.9954
vn -0.0152 -0.0945 0.9954
vn -0.0000 -0.0966 0.9953
vn -0.0190 -0.0949 0.9953
vn -0.0188 -0.0942 0.9954
vn -0.0617 -0.0990 0.9932
vn -0.0613 -0.0983 0.9933
vn -0.0822 -0.0962 0.9920
vn -0.0464 -0.0994 0.9940
vn -0.0484 -0.0892 0.9948
vn -0.0131 -0.0086 0.9999
vn -0.0149 0.0020 0.9999
vn -0.0535 -0.0135 0.9985
vn -0.0688 -0.0073 0.9976
vn 0.0376 -0.0243 0.9990
vn 0.0299 -0.0213 0.9993
vn 0.0079 -0.0286 0.9996
vn 0.0045 -0.0273 0.9996
vn 0.0275 -0.0316 0.9991
vn 0.0251 -0.0306 0.9992
vn 0.0393 -0.0153 0.9991
vn 0.0385 -0.0150 0.9991
vn 0.0393 -0.0147 0.9991
vn 0.0398 -0.0145 0.9991
vn 0.0411 -0.0304 0.9987
vn 0.0416 -0.0303 0.9987
vn 0.0427 -0.0229 0.9988
vn 0.0424 -0.0230 0.9988
vn 0.0408 -0.0070 0.9991
vn 0.0405 -0.0070 0.9992
vn 0.0426 0.0092 0.9991
vn 0.0423 0.0092 0.9991
vn 0.0393 0.0142 0.9991
vn 0.0366 0.0140 0.9992
vn 0.0029 0.0039 1.0000
vn 0.0005 0.0037 1.0000
vn 0.0007 0.0053 1.0000
vn 0.0042 0.0058 1.0000
vn 0.0369 0.0237 0.9990
vn 0.0403 0.0242 0.9989
vn 0.0272 0.0334 0.9991
vn 0.0068 0.0323 0.9995
vn 0.0048 0.0322 0.9995
vn -0.0004 0.0245 0.9997
vn -0.0010 0.0246 0.9997
vn 0.0020 0.0154 0.9999
vn 0.0015 0.0156 0.9999
vn 0.0243 -0.0359 0.9991
vn 0.0238 -0.0352 0.9991
vn 0.0018 -0.0327 0.9995
vn 0.0014 -0.0320 0.9995
vn 0.0136 -0.0339 0.9993
vn 0.0136 -0.0336 0.9993
vn 0.0341 -0.0318 0.9989
vn 0.0340 -0.0314 0.9989
vn 0.0425 -0.0157 0.9990
vn 0.0427 -0.0157 0.9990
vn 0.0413 -0.0316 0.9986
vn 0.0415 -0.0317 0.9986
vn 0.0284 -0.0213 0.9994
vn 0.0283 -0.0214 0.9994
vn 0.0073 -0.0060 1.0000
vn 0.0072 -0.0061 1.0000
vn -0.0008 -0.0069 1.0000
vn -0.0005 -0.0068 1.0000
vn 0.0008 -0.0228 0.9997
vn 0.0012 -0.0228 0.9997
vn 0.0413 -0.0314 0.9987
vn 0.0415 -0.0270 0.9988
vn 0.0413 -0.0252 0.9988
vn 0.0414 -0.0098 0.9991
vn 0.0412 -0.0078 0.9991
vn 0.0414 -0.0006 0.9991
vn 0.0263 0.0020 0.9997
vn 0.0264 0.0016 0.9997
vn 0.0059 -0.0004 1.0000
vn 0.0059 -0.0008 1.0000
vn 0.0166 -0.0016 0.9999
vn 0.0164 -0.0021 0.9999
vn 0.0383 0.0004 0.9993
vn 0.0380 -0.0001 0.9993
vn 0.0353 0.0003 0.9994
vn 0.0355 0.0007 0.9994
vn 0.0138 -0.0017 0.9999
vn 0.0140 -0.0013 0.9999
vn 0.0061 -0.0007 1.0000
vn 0.0061 -0.0005 1.0000
vn 0.0266 0.0007 0.9996
vn 0.0266 0.0010 0.9996
vn 0.0259 0.0051 0.9997
vn 0.0265 0.0061 0.9996
vn 0.0015 -0.0005 1.0000
vn 0.0022 0.0005 1.0000
vn 0.0103 0.0010 0.9999
vn 0.0094 -0.0014 1.0000
vn 0.0366 0.0329 0.9988
vn 0.0357 0.0304 0.9989
vn 0.0295 -0.0035 0.9996
vn 0.0291 0.0013 0.9996
vn 0.0341 0.0308 0.9989
vn 0.0339 0.0332 0.9989
vn 0.0286 0.0311 0.9991
vn 0.0297 0.0338 0.9990
vn 0.0021 -0.0003 1.0000
vn 0.0031 0.0024 1.0000
vn 0.0142 -0.0020 0.9999
vn 0.0140 0.0007 0.9999
vn 0.0336 0.0307 0.9990
vn 0.0334 0.0334 0.9989
vn 0.0415 0.0006 0.9991
vn 0.0393 0.0120 0.9992
vn 0.0384 0.0112 0.9992
vn 0.0438 0.0313 0.9985
vn 0.0428 0.0299 0.9986
vn 0.0337 0.0308 0.9990
vn 0.0357 0.0340 0.9988
vn 0.0034 -0.0010 1.0000
vn 0.0054 0.0022 1.0000
vn 0.0283 -0.0007 0.9996
vn 0.0282 -0.0011 0.9996
vn 0.0080 0.0004 1.0000
vn 0.0079 -0.0000 1.0000
vn 0.0469 0.0223 0.9987
vn 0.0487 0.0270 0.9984
vn 0.0400 -0.0067 0.9992
vn 0.0417 -0.0022 0.9991
vn 0.0380 -0.0319 0.9988
vn 0.0388 -0.0299 0.9988
vn 0.0416 -0.0244 0.9988
vn 0.0421 -0.0245 0.9988
vn 0.0372 -0.0149 0.9992
vn 0.0380 -0.0151 0.9992
vn 0.0412 -0.0322 0.9986
vn 0.0441 -0.0245 0.9987
vn 0.0460 -0.0282 0.9985
vn 0.0260 0.0191 0.9995
vn 0.0277 0.0155 0.9995
vn 0.0112 0.0091 0.9999
vn 0.0110 0.0092 0.9999
vn 0.0825 0.0322 0.9961
vn 0.0843 0.0217 0.9962
vn 0.0839 0.0215 0.9962
vn 0.0833 0.0098 0.9965
vn 0.0823 0.0094 0.9966
vn 0.0523 0.0030 0.9986
vn 0.0525 0.0037 0.9986
vn 0.0095 -0.0011 1.0000
vn 0.0098 -0.0004 1.0000
vn 0.0413 -0.0000 0.9991
vn 0.0403 0.0220 0.9989
vn 0.0406 0.0221 0.9989
vn 0.0418 0.0123 0.9990
vn 0.0424 0.0125 0.9990
vn 0.0195 0.0255 0.9995
vn 0.0244 0.0343 0.9991
vn 0.0048 -0.0006 1.0000
vn 0.0098 0.0082 0.9999
vn 0.0392 -0.0011 0.9992
vn 0.0397 0.0002 0.9992
vn 0.0161 -0.0192 0.9997
vn 0.0170 -0.0168 0.9997
vn -0.0017 -0.0321 0.9995
vn -0.0013 -0.0311 0.9995
vn 0.0127 -0.0339 0.9993
vn 0.0127 -0.0336 0.9994
vn 0.0332 -0.0316 0.9989
vn 0.0332 -0.0313 0.9990
vn 0.0419 -0.0172 0.9990
vn 0.0430 -0.0181 0.9989
vn 0.0404 -0.0077 0.9992
vn 0.0410 -0.0082 0.9991
vn 0.0198 -0.0371 0.9991
vn 0.0120 -0.0358 0.9993
vn 0.0167 -0.0315 0.9994
vn 0.0178 -0.0283 0.9994
vn 0.0212 -0.0297 0.9993
vn 0.0288 -0.0251 0.9993
vn 0.0421 -0.0241 0.9988
vn 0.0424 -0.0242 0.9988
vn 0.0422 0.0065 0.9991
vn 0.0448 0.0066 0.9990
vn 0.0800 0.0313 0.9963
vn 0.0824 0.0315 0.9961
vn 0.0636 0.0174 0.9978
vn 0.0636 0.0170 0.9978
vn 0.0226 -0.0022 0.9997
vn 0.0227 -0.0028 0.9997
vn 0.0406 -0.0051 0.9992
vn 0.0405 -0.0042 0.9992
vn 0.0813 -0.0007 0.9967
vn 0.0812 0.0002 0.9967
vn 0.0014 0.0006 1.0000
vn 0.0011 -0.0001 1.0000
vn 0.0443 0.0048 0.9990
vn 0.0440 0.0040 0.9990
vn 0.0412 -0.0096 0.9991
vn 0.0402 -0.0105 0.9991
vn 0.0408 -0.0215 0.9989
vn 0.0403 -0.0219 0.9989
vn 0.0417 -0.0316 0.9986
vn 0.0412 -0.0316 0.9987
vn 0.0441 -0.0157 0.9989
vn 0.0436 -0.0156 0.9989
vn 0.0413 -0.0001 0.9991
vn 0.0414 0.0001 0.9991
vn 0.0413 0.0001 0.9991
vn 0.0407 -0.0001 0.9992
vn 0.0413 0.0047 0.9991
vn 0.0415 0.0047 0.9991
vn 0.0407 0.0211 0.9989
vn 0.0409 0.0211 0.9989
vn 0.0347 0.0199 0.9992
vn 0.0382 0.0175 0.9991
vn 0.0029 0.0113 0.9999
vn 0.0063 0.0090 0.9999
vn 0.0008 0.0005 1.0000
vn 0.0020 0.0013 1.0000
vn 0.0037 0.0024 1.0000
vn 0.0366 -0.0047 0.9993
vn 0.0363 -0.0036 0.9993
vn 0.0357 -0.0004 0.9994
vn 0.0355 0.0008 0.9994
vn 0.0801 0.0025 0.9968
vn 0.0790 0.0005 0.9969
vn 0.0820 0.0100 0.9966
vn 0.0810 0.0078 0.9967
vn 0.0512 0.0296 0.9983
vn 0.0518 0.0308 0.9982
vn 0.0025 -0.0003 1.0000
vn 0.0034 0.0022 1.0000
vn 0.0001 0.0001 1.0000
vn 0.0055 -0.0031 1.0000
vn 0.0072 -0.0023 1.0000
vn 0.0381 0.0028 0.9993
vn 0.0404 0.0040 0.9992
vn 0.0414 -0.0034 0.9991
vn 0.0423 -0.0034 0.9991
vn 0.0346 -0.0065 0.9994
vn 0.0363 -0.0065 0.9993
vn 0.0746 -0.0004 0.9972
vn 0.0751 0.0009 0.9972
vn 0.0359 -0.0044 0.9993
vn 0.0361 -0.0038 0.9993
vn 0.0349 -0.0024 0.9994
vn 0.0049 -0.0387 0.9992
vn -0.0047 -0.0427 0.9991
vn -0.0756 -0.0938 0.9927
vn -0.0821 -0.0962 0.9920
vn 0.0009 -0.0006 1.0000
vn 0.0043 -0.0123 0.9999
vn 0.0045 -0.0115 0.9999
vn -0.0380 -0.0645 0.9972
vn -0.0385 -0.0630 0.9973
vn -0.0322 -0.0662 0.9973
vn -0.0315 -0.0696 0.9971
vn 0.0034 0.0018 1.0000
vn 0.0042 -0.0014 1.0000
vn 0.0050 0.0027 1.0000
vn 0.0059 0.0016 1.0000
vn 0.0312 -0.0038 0.9995
vn 0.0322 -0.0049 0.9995
vn -0.0022 -0.0547 0.9985
vn -0.0028 -0.0545 0.9985
vn 0.0011 -0.0880 0.9961
vn 0.0006 -0.0878 0.9961
vn 0.0016 -0.0837 0.9965
vn 0.0008 -0.0838 0.9965
vn -0.0036 -0.0359 0.9993
vn -0.0045 -0.0360 0.9993
vn 0.0205 0.0018 0.9998
vn 0.0208 0.0026 0.9998
vn 0.0095 -0.0012 1.0000
vn 0.0096 -0.0008 1.0000
vn 0.0127 -0.0016 0.9999
vn 0.0126 -0.0012 0.9999
vn 0.0331 0.0006 0.9995
vn 0.0331 0.0010 0.9995
vn 0.0262 0.0015 0.9997
vn 0.0264 0.0018 0.9997
vn 0.0049 -0.0002 1.0000
vn 0.0196 -0.0020 0.9998
vn 0.0194 -0.0024 0.9998
vn 0.0410 0.0002 0.9992
vn 0.0409 -0.0002 0.9992
vn 0.0414 0.0002 0.9991
vn -0.0412 -0.0965 0.9945
vn -0.0403 -0.0963 0.9945
vn -0.0318 -0.0677 0.9972
vn -0.0260 -0.0664 0.9975
vn 0.0378 -0.0185 0.9991
vn 0.0412 -0.0013 0.9991
vn 0.0415 -0.0014 0.9991
vn 0.0399 -0.0016 0.9992
vn 0.0411 -0.0021 0.9992
vn 0.0176 -0.0156 0.9997
vn 0.0198 -0.0162 0.9997
vn 0.0002 -0.0307 0.9995
vn 0.0012 -0.0311 0.9995
vn 0.0005 -0.0285 0.9996
vn 0.0029 -0.0283 0.9996
vn 0.0336 -0.0225 0.9992
vn 0.0384 -0.0222 0.9990
vn 0.0339 -0.0012 0.9994
vn 0.0350 -0.0103 0.9993
vn 0.0167 0.0057 0.9998
vn 0.0156 -0.0016 0.9999
vn 0.0207 0.0095 0.9997
vn 0.0178 0.0106 0.9998
vn 0.0363 0.0294 0.9989
vn 0.0357 0.0301 0.9989
vn 0.0222 0.0275 0.9994
vn 0.0231 0.0258 0.9994
vn 0.0058 0.0030 1.0000
vn 0.0067 0.0012 1.0000
vn 0.0044 0.0023 1.0000
vn 0.0044 0.0008 1.0000
vn 0.0084 0.0248 0.9997
vn 0.0085 0.0217 0.9997
vn 0.0435 0.0003 0.9991
vn 0.0648 0.0107 0.9978
vn 0.0680 0.0112 0.9976
vn 0.0829 0.0198 0.9964
vn 0.0852 0.0200 0.9962
vn 0.0429 -0.0205 0.9989
vn 0.0425 -0.0206 0.9989
vn 0.0411 -0.0046 0.9991
vn 0.0407 -0.0047 0.9992
vn 0.0412 -0.0003 0.9992
vn 0.0261 -0.0052 0.9996
vn 0.0280 -0.0014 0.9996
vn 0.0034 -0.0255 0.9997
vn -0.0815 -0.0915 0.9925
vn -0.0726 -0.0905 0.9932
vn 0.0273 -0.0382 0.9989
vn 0.0363 -0.0371 0.9987
vn 0.0261 -0.0394 0.9989
vn 0.0361 -0.0438 0.9984
vn -0.0737 -0.0694 0.9949
vn -0.0648 -0.0737 0.9952
vt 0.000000 1.000000
vt 0.045455 0.000000
vt 0.000000 0.000000
vt 0.090909 1.000000
vt 0.045455 1.000000
vt 0.136364 0.000000
vt 0.090909 0.000000
vt 0.181818 1.000000
vt 0.136364 1.000000
vt 0.227273 1.000000
vt 0.181818 0.000000
vt 0.272727 0.000000
vt 0.227273 0.000000
vt 0.318182 1.000000
vt 0.272727 1.000000
vt 0.363636 1.000000
vt 0.318182 0.000000
vt 0.409091 0.000000
vt 0.363636 0.000000
vt 0.409091 1.000000
vt 0.454545 0.000000
vt 0.500000 1.000000
vt 0.454545 1.000000
vt 0.545455 1.000000
vt 0.500000 0.000000
vt 0.590909 1.000000
vt 0.545455 0.000000
vt 0.636364 0.000000
vt 0.590909 0.000000
vt 0.681818 1.000000
vt 0.636364 1.000000
vt 0.727273 0.000000
vt 0.681818 0.000000
vt 0.772727 1.000000
vt 0.727273 1.000000
vt 0.818182 1.000000
vt 0.772727 0.000000
vt 0.863636 1.000000
vt 0.818182 0.000000
vt 0.909091 1.000000
vt 0.863636 0.000000
vt 0.954545 1.000000
vt 0.909091 0.000000
vt 1.000000 0.000000
vt 0.954545 0.000000
vt 0.333333 0.000000
vt 0.666667 1.000000
vt 0.333333 1.000000
vt 0.666667 0.000000
vt 1.000000 1.000000
vt 0.038462 1.000000
vt 0.076923 1.000000
vt 0.038462 0.000000
vt 0.115385 1.000000
vt 0.076923 0.000000
vt 0.153846 0.000000
vt 0.115385 0.000000
vt 0.192308 1.000000
vt 0.153846 1.000000
vt 0.230769 0.000000
vt 0.192308 0.000000
vt 0.230769 1.000000
vt 0.269231 0.000000
vt 0.307692 1.000000
vt 0.269231 1.000000
vt 0.346154 0.000000
vt 0.307692 0.000000
vt 0.384615 1.000000
vt 0.346154 1.000000
vt 0.423077 0.000000
vt 0.384615 0.000000
vt 0.423077 1.000000
vt 0.461538 0.000000
vt 0.461538 1.000000
vt 0.538462 0.000000
vt 0.576923 1.000000
vt 0.538462 1.000000
vt 0.615385 1.000000
vt 0.576923 0.000000
vt 0.653846 0.000000
vt 0.615385 0.000000
vt 0.653846 1.000000
vt 0.692308 0.000000
vt 0.730769 1.000000
vt 0.692308 1.000000
vt 0.769231 0.000000
vt 0.730769 0.000000
vt 0.807692 1.000000
vt 0.769231 1.000000
vt 0.846154 1.000000
vt 0.807692 0.000000
vt 0.884615 0.000000
vt 0.846154 0.000000
vt 0.884615 1.000000
vt 0.923077 0.000000
vt 0.961538 1.000000
vt 0.923077 1.000000
vt 0.961538 0.000000
vt 0.041667 1.000000
vt 0.083333 1.000000
vt 0.041667 0.000000
vt 0.125000 1.000000
vt 0.083333 0.000000
vt 0.166667 0.000000
vt 0.125000 0.000000
vt 0.166667 1.000000
vt 0.208333 0.000000
vt 0.250000 1.000000
vt 0.208333 1.000000
vt 0.291667 0.000000
vt 0.250000 0.000000
vt 0.291667 1.000000
vt 0.375000 0.000000
vt 0.416667 1.000000
vt 0.375000 1.000000
vt 0.458333 0.000000
vt 0.416667 0.000000
vt 0.458333 1.000000
vt 0.541667 0.000000
vt 0.583333 1.000000
vt 0.541667 1.000000
vt 0.625000 0.000000
vt 0.583333 0.000000
vt 0.625000 1.000000
vt 0.708333 0.000000
vt 0.708333 1.000000
vt 0.750000 0.000000
vt 0.791667 1.000000
vt 0.750000 1.000000
vt 0.833333 0.000000
vt 0.791667 0.000000
vt 0.875000 1.000000
vt 0.833333 1.000000
vt 0.916667 0.000000
vt 0.875000 0.000000
vt 0.958333 1.000000
vt 0.916667 1.000000
vt 0.958333 0.000000
vt 0.062500 0.000000
vt 0.062500 1.000000
vt 0.187500 0.000000
vt 0.187500 1.000000
vt 0.312500 0.000000
vt 0.312500 1.000000
vt 0.437500 0.000000
vt 0.437500 1.000000
vt 0.562500 0.000000
vt 0.562500 1.000000
vt 0.687500 1.000000
vt 0.687500 0.000000
vt 0.812500 1.000000
vt 0.812500 0.000000
vt 0.937500 0.000000
vt 0.937500 1.000000
vt 0.100000 0.000000
vt 0.200000 1.000000
vt 0.100000 1.000000
vt 0.300000 0.000000
vt 0.200000 0.000000
vt 0.400000 1.000000
vt 0.300000 1.000000
vt 0.400000 0.000000
vt 0.600000 0.000000
vt 0.700000 1.000000
vt 0.600000 1.000000
vt 0.800000 1.000000
vt 0.700000 0.000000
vt 0.900000 1.000000
vt 0.800000 0.000000
vt 0.900000 0.000000
vt 0.111111 0.000000
vt 0.222222 1.000000
vt 0.111111 1.000000
vt 0.222222 0.000000
vt 0.444444 0.000000
vt 0.444444 1.000000
vt 0.555556 0.000000
vt 0.555556 1.000000
vt 0.777778 1.000000
vt 0.888889 0.000000
vt 0.777778 0.000000
vt 0.888889 1.000000
vt 0.142857 0.000000
vt 0.285714 1.000000
vt 0.142857 1.000000
vt 0.428571 1.000000
vt 0.285714 0.000000
vt 0.571429 0.000000
vt 0.428571 0.000000
vt 0.714286 1.000000
vt 0.571429 1.000000
vt 0.857143 1.000000
vt 0.714286 0.000000
vt 0.857143 0.000000
s 1
usemtl paths_footway
f 2/1/1 3/2/1 1/3/1
f 6/4/1 3/2/1 4/5/1
f 6/4/1 7/6/1 5/7/1
f 10/8/1 7/6/1 8/9/1
f 12/10/1 9/11/1 10/8/1
f 12/10/1 13/12/1 11/13/1
f 16/14/3 13/12/1 14/15/1
f 18/16/5 15/17/2 16/14/3
f 18/16/5 19/18/6 17/19/4
f 20/20/7 21/21/8 19/18/6
f 24/22/10 21/21/8 22/23/8
f 26/24/12 23/25/9 24/22/10
f 28/26/13 25/27/11 26/24/12
f 28/26/13 29/28/13 27/29/13
f 32/30/15 29/28/13 30/31/13
f 32/30/15 33/32/16 31/33/14
f 36/34/18 33/32/16 34/35/17
f 38/36/8 35/37/18 36/34/18
f 40/38/20 37/39/8 38/36/8
f 42/40/22 39/41/19 40/38/20
f 44/42/24 41/43/21 42/40/22
f 44/42/24 45/44/25 43/45/23
f 48/1/27 49/46/27 47/3/27
f 52/47/27 49/46/27 50/48/27
f 52/47/27 53/44/27 51/49/27
f 58/22/29 55/3/8 56/1/8
f 60/50/31 57/25/28 58/22/29
f 64/22/35 61/3/32 62/1/33
f 66/50/13 63/25/34 64/22/35
f 70/51/39 67/3/36 68/1/37
f 72/52/41 69/53/38 70/51/39
f 74/54/40 71/55/40 72/52/41
f 74/54/40 75/56/40 73/57/40
f 78/58/43 75/56/40 76/59/40
f 78/58/43 79/60/44 77/61/42
f 80/62/45 81/63/46 79/60/44
f 84/64/46 81/63/46 82/65/46
f 84/64/46 85/66/47 83/67/46
f 88/68/50 85/66/47 86/69/48
f 88/68/50 89/70/40 87/71/49
f 90/72/40 91/73/51 89/70/40
f 92/74/52 93/25/53 91/73/51
f 94/22/54 95/75/55 93/25/53
f 98/76/58 95/75/55 96/77/56
f 100/78/60 97/79/57 98/76/58
f 100/78/60 101/80/61 99/81/59
f 102/82/61 103/83/62 101/80/61
f 106/84/65 103/83/62 104/85/63
f 106/84/65 107/86/66 105/87/64
f 110/88/66 107/86/66 108/89/66
f 112/90/68 109/91/66 110/88/66
f 112/90/68 113/92/69 111/93/67
f 114/94/70 115/95/13 113/92/69
f 118/96/13 115/95/13 116/97/13
f 118/96/13 119/44/13 117/98/13
f 124/48/74 121/3/71 122/1/72
f 124/48/74 125/49/1 123/46/73
f 128/50/1 125/49/1 126/47/1
f 132/99/78 129/3/75 130/1/76
f 134/100/80 131/101/77 132/99/78
f 136/102/1 133/103/79 134/100/80
f 136/102/1 137/104/1 135/105/1
f 138/106/1 139/107/1 137/104/1
f 142/108/1 139/107/1 140/109/1
f 142/108/1 143/110/1 141/111/1
f 146/48/82 143/110/1 144/112/1
f 146/48/82 147/113/83 145/46/81
f 150/114/46 147/113/83 148/115/84
f 150/114/46 151/116/56 149/117/46
f 154/22/86 151/116/56 152/118/56
f 154/22/86 155/119/87 153/25/85
f 158/120/1 155/119/87 156/121/88
f 158/120/1 159/122/1 157/123/1
f 160/124/1 161/49/89 159/122/1
f 162/47/90 163/125/91 161/49/89
f 164/126/92 165/127/93 163/125/91
f 168/128/13 165/127/93 166/129/94
f 168/128/13 169/130/13 167/131/13
f 172/132/96 169/130/13 170/133/13
f 172/132/96 173/134/97 171/135/95
f 176/136/18 173/134/97 174/137/98
f 176/136/18 177/44/8 175/138/18
f 180/1/99 181/46/100 179/3/7
f 182/48/101 183/49/102 181/46/100
f 186/50/105 183/49/102 184/47/103
f 188/1/27 189/44/27 187/3/27
f 192/1/46 193/55/56 191/3/56
f 196/59/46 193/55/56 194/52/46
f 196/59/46 197/60/56 195/56/46
f 198/62/56 199/67/56 197/60/56
f 202/68/46 199/67/56 200/64/46
f 204/74/56 201/71/46 202/68/46
f 204/74/56 205/75/46 203/73/56
f 206/77/46 207/81/106 205/75/46
f 208/78/107 209/83/108 207/81/106
f 212/89/40 209/83/108 210/85/109
f 212/89/40 213/93/110 211/86/40
f 214/90/111 215/95/112 213/93/110
f 216/97/113 217/44/46 215/95/112
f 220/1/1 221/55/1 219/3/1
f 224/59/115 221/55/1 222/52/1
f 226/62/117 223/56/114 224/59/115
f 226/62/117 227/67/46 225/60/116
f 230/68/56 227/67/46 228/64/46
f 232/74/56 229/71/46 230/68/56
f 234/77/119 231/73/56 232/74/56
f 234/77/119 235/81/120 233/75/118
f 238/85/13 235/81/120 236/78/121
f 238/85/13 239/86/13 237/83/13
f 242/90/123 239/86/13 240/89/13
f 242/90/123 243/95/124 241/93/122
f 246/50/40 243/95/124 244/97/125
f 248/1/126 249/139/127 247/3/56
f 250/140/128 251/105/129 249/139/127
f 252/102/130 253/141/131 251/105/129
f 256/108/133 253/141/131 254/142/1
f 256/108/133 257/143/134 255/111/132
f 260/115/13 257/143/134 258/144/135
f 260/115/13 261/145/136 259/113/13
f 264/22/139 261/145/136 262/146/137
f 264/22/139 265/147/1 263/25/138
f 268/124/141 265/147/1 266/148/1
f 270/149/143 267/122/140 268/124/141
f 272/129/13 269/150/142 270/149/143
f 274/151/145 271/127/13 272/129/13
f 274/151/145 275/135/146 273/152/144
f 276/132/147 277/153/1 275/135/146
f 280/50/1 277/153/1 278/154/1
f 282/1/1 283/155/1 281/3/1
f 286/156/1 283/155/1 284/157/1
f 286/156/1 287/158/148 285/159/1
f 290/160/151 287/158/148 288/161/149
f 290/160/151 291/25/13 289/162/150
f 292/22/13 293/163/13 291/25/13
f 296/164/153 293/163/13 294/165/13
f 298/166/155 295/167/152 296/164/153
f 300/168/18 297/169/154 298/166/155
f 302/50/8 299/170/18 300/168/18
f 304/1/157 305/105/158 303/3/156
f 308/108/8 305/105/158 306/102/159
f 308/108/8 309/113/160 307/111/8
f 312/22/163 309/113/160 310/115/161
f 312/22/163 313/122/13 311/25/162
f 316/129/165 313/122/13 314/124/13
f 316/129/165 317/135/166 315/127/164
f 320/50/8 317/135/166 318/132/167
f 324/102/168 321/3/1 322/1/1
f 324/102/168 325/111/169 323/105/1
f 328/115/172 325/111/169 326/108/170
f 328/115/172 329/25/18 327/113/171
f 332/124/8 329/25/18 330/22/18
f 334/129/174 331/122/8 332/124/8
f 336/132/176 333/127/173 334/129/174
f 336/132/176 337/44/13 335/135/175
f 340/1/1 341/155/1 339/3/1
f 344/156/1 341/155/1 342/157/1
f 346/161/1 343/159/1 344/156/1
f 346/161/1 347/162/1 345/158/1
f 350/22/1 347/162/1 348/160/1
f 350/22/1 351/163/177 349/25/1
f 354/164/180 351/163/177 352/165/178
f 354/164/180 355/169/13 353/167/179
f 356/166/13 357/170/13 355/169/13
f 358/168/13 359/44/13 357/170/13
f 364/108/184 361/3/181 362/1/182
f 366/22/186 363/111/183 364/108/184
f 366/22/186 367/127/56 365/25/185
f 368/129/56 369/44/46 367/127/56
f 374/22/188 371/3/46 372/1/46
f 376/50/190 373/25/187 374/22/188
f 378/1/191 379/171/56 377/3/191
f 382/172/193 379/171/56 380/173/46
f 384/48/195 381/174/192 382/172/193
f 384/48/195 385/175/196 383/46/194
f 386/176/197 387/177/13 385/175/196
f 388/178/13 389/49/13 387/177/13
f 392/179/13 389/49/13 390/47/13
f 392/179/13 393/180/13 391/181/13
f 396/50/13 393/180/13 394/182/13
f 400/108/198 397/3/198 398/1/198
f 402/22/198 399/111/198 400/108/198
f 404/129/200 401/25/198 402/22/198
f 404/129/200 405/44/201 403/127/199
f 408/1/46 409/183/56 407/3/56
f 412/184/46 409/183/56 410/185/46
f 414/186/56 411/187/56 412/184/46
f 414/186/56 415/188/56 413/189/56
f 418/190/56 415/188/56 416/191/56
f 420/192/46 417/193/56 418/190/56
f 420/192/46 421/44/56 419/194/56
f 424/1/27 425/111/203 423/3/27
f 428/22/206 425/111/203 426/108/204
f 428/22/206 429/127/13 427/25/205
f 432/50/13 429/127/13 430/129/13
f 436/50/1 433/3/1 434/1/207
f 438/1/18 439/25/208 437/3/18
f 440/22/209 441/44/210 439/25/208
f 446/50/215 443/3/212 444/1/213
f 450/22/46 447/3/46 448/1/46
f 450/22/46 451/44/46 449/25/46
f 456/156/56 453/3/56 454/1/46
f 456/156/56 457/162/56 455/159/56
f 460/165/56 457/162/56 458/160/56
f 462/166/56 459/163/46 460/165/56
f 462/166/56 463/44/56 461/169/46
f 466/1/46 467/44/46 465/3/56
f 472/185/1 469/3/1 470/1/1
f 472/185/1 473/187/216 471/183/1
f 476/186/219 473/187/216 474/184/217
f 478/191/221 475/189/218 476/186/219
f 478/191/221 479/193/222 477/188/220
f 480/190/223 481/194/224 479/193/222
f 482/192/225 483/44/56 481/194/224
f 486/1/1 487/25/1 485/3/1
f 490/50/1 487/25/1 488/22/1
f 494/48/229 491/3/226 492/1/227
f 494/48/229 495/49/1 493/46/228
f 498/50/1 495/49/1 496/47/1
f 502/48/232 499/3/230 500/1/56
f 504/47/234 501/46/231 502/48/232
f 504/47/234 505/44/235 503/49/233
f 510/106/237 507/3/56 508/1/56
f 512/48/239 509/104/236 510/106/237
f 512/48/239 513/25/240 511/46/238
f 516/47/243 513/25/240 514/22/241
f 516/47/243 517/130/244 515/49/242
f 518/133/245 519/44/13 517/130/244
f 524/50/198 521/3/198 522/1/198
f 528/156/13 525/3/13 526/1/13
f 528/156/13 529/162/13 527/159/13
f 532/165/247 529/162/13 530/160/13
f 532/165/247 533/169/248 531/163/246
f 536/50/27 533/169/248 534/166/249
f 540/156/13 537/3/13 538/1/13
f 540/156/13 541/162/250 539/159/13
f 544/165/253 541/162/250 542/160/251
f 546/166/27 543/163/252 544/165/253
f 546/166/27 547/44/27 545/169/27
f 550/1/255 551/2/256 549/3/254
f 554/4/56 551/2/256 552/5/257
f 554/4/56 555/6/46 553/7/56
f 558/8/46 555/6/46 556/9/46
f 558/8/46 559/13/258 557/11/46
f 562/15/261 559/13/258 560/10/259
f 562/15/261 563/17/262 561/12/260
f 564/14/1 565/19/1 563/17/262
f 568/20/264 565/19/1 566/16/1
f 568/20/264 569/21/265 567/18/263
f 570/23/265 571/25/266 569/21/265
f 574/24/269 571/25/266 572/22/267
f 574/24/269 575/29/8 573/27/268
f 576/26/8 577/28/18 575/29/8
f 578/31/18 579/33/18 577/28/18
f 582/35/8 579/33/18 580/30/18
f 582/35/8 583/37/270 581/32/8
f 586/36/273 583/37/270 584/34/271
f 588/38/13 585/39/272 586/36/273
f 588/38/13 589/43/13 587/41/13
f 592/42/274 589/43/13 590/40/13
f 592/42/274 593/44/275 591/45/13
f 596/1/278 597/44/279 595/3/277
f 600/1/13 601/46/13 599/3/13
f 604/47/13 601/46/13 602/48/13
f 606/50/13 603/49/13 604/47/13
f 610/173/284 607/3/281 608/1/282
f 612/172/286 609/171/283 610/173/284
f 614/48/288 611/174/285 612/172/286
f 614/48/288 615/175/289 613/46/287
f 618/178/291 615/175/289 616/176/13
f 618/178/291 619/49/292 617/177/290
f 620/47/293 621/181/1 619/49/292
f 624/182/295 621/181/1 622/179/1
f 626/50/297 623/180/294 624/182/295
f 630/48/301 627/3/298 628/1/299
f 632/47/13 629/46/300 630/48/301
f 634/50/13 631/49/13 632/47/13
f 638/22/56 635/3/46 636/1/56
f 640/50/46 637/25/56 638/22/56
f 642/1/1 643/44/1 641/3/1
f 648/50/1 645/3/1 646/1/1
f 652/22/46 649/3/56 650/1/56
f 654/50/56 651/25/46 652/22/46
f 658/48/1 655/3/1 656/1/1
f 658/48/1 659/49/1 657/46/1
f 662/50/1 659/49/1 660/47/1
f 664/1/302 665/159/303 663/3/207
f 666/156/304 667/162/305 665/159/303
f 668/160/66 669/163/66 667/162/305
f 670/165/66 671/169/306 669/163/66
f 672/166/306 673/44/306 671/169/306
f 676/1/13 677/103/13 675/3/13
f 680/106/307 677/103/13 678/100/13
f 680/106/307 681/111/308 679/104/13
f 684/48/311 681/111/308 682/108/309
f 684/48/311 685/117/306 683/46/310
f 686/114/66 687/25/66 685/117/306
f 690/120/313 687/25/66 688/22/66
f 692/47/315 689/123/312 690/120/313
f 694/129/13 691/49/314 692/47/315
f 696/133/317 693/127/13 694/129/13
f 696/133/317 697/134/318 695/130/316
f 698/137/319 699/44/1 697/134/318
f 704/102/321 701/3/40 702/1/40
f 706/108/323 703/105/320 704/102/321
f 708/115/61 705/111/322 706/108/323
f 710/22/325 707/113/61 708/115/61
f 710/22/325 711/122/326 709/25/324
f 714/129/13 711/122/326 712/124/327
f 714/129/13 715/135/13 713/127/13
f 718/50/13 715/135/13 716/132/13
f 722/4/331 719/3/328 720/1/329
f 722/4/331 723/11/13 721/7/330
f 726/15/333 723/11/13 724/8/13
f 726/15/333 727/19/334 725/12/332
f 728/16/335 729/21/1 727/19/334
f 732/24/337 729/21/1 730/23/1
f 734/31/338 731/27/336 732/24/337
f 734/31/338 735/32/13 733/28/214
f 736/35/13 737/39/339 735/32/13
f 740/40/342 737/39/339 738/36/340
f 740/40/342 741/44/343 739/43/341
f 744/1/344 745/7/344 743/3/344
f 746/4/345 747/11/346 745/7/344
f 748/8/347 749/12/348 747/11/346
f 752/16/350 749/12/348 750/15/227
f 752/16/350 753/21/1 751/19/349
f 756/24/1 753/21/1 754/23/1
f 756/24/1 757/28/351 755/27/1
f 760/35/354 757/28/351 758/31/352
f 762/36/356 759/32/353 760/35/354
f 764/40/358 761/39/355 762/36/356
f 764/40/358 765/44/359 763/43/357
f 770/173/362 767/3/1 768/1/1
f 772/172/364 769/171/361 770/173/362
f 772/172/364 773/46/365 771/174/363
f 774/48/366 775/175/367 773/46/365
f 776/176/368 777/177/18 775/175/367
f 780/47/370 777/177/18 778/178/18
f 780/47/370 781/181/371 779/49/369
f 782/179/372 783/180/373 781/181/371
f 786/50/376 783/180/373 784/182/374
f 788/1/1 789/159/1 787/3/1
f 790/156/1 791/162/1 789/159/1
f 794/165/1 791/162/1 792/160/1
f 794/165/1 795/169/1 793/163/1
f 796/166/1 797/44/1 795/169/1
f 800/1/1 801/46/1 799/3/1
f 802/48/377 803/49/378 801/46/1
f 804/47/379 805/44/380 803/49/378
f 810/185/383 807/3/56 808/1/46
f 810/185/383 811/187/384 809/183/382
f 812/184/385 813/189/1 811/187/384
f 816/191/1 813/189/1 814/186/1
f 816/191/1 817/193/1 815/188/1
f 820/192/1 817/193/1 818/190/1
f 820/192/1 821/44/1 819/194/1
f 824/1/263 825/46/386 823/3/263
f 828/47/388 825/46/386 826/48/1
f 830/50/389 827/49/387 828/47/388
f 834/156/306 831/3/66 832/1/66
f 834/156/306 835/162/390 833/159/306
f 836/160/391 837/163/392 835/162/390
f 838/165/393 839/169/1 837/163/392
f 840/166/1 841/44/1 839/169/1
f 844/1/1 845/104/1 843/3/1
f 848/48/395 845/104/1 846/106/1
f 850/22/397 847/46/394 848/48/395
f 850/22/397 851/49/66 849/25/396
f 854/133/66 851/49/66 852/47/66
f 856/50/66 853/130/66 854/133/66
f 860/50/1 857/3/1 858/1/1
f 862/1/1 863/44/1 861/3/1
f 868/22/1 865/3/1 866/1/1
f 870/50/1 867/25/1 868/22/1
f 872/1/1 873/46/1 871/3/1
f 874/48/1 875/49/1 873/46/1
f 876/47/1 877/44/1 875/49/1
f 882/48/1 879/3/1 880/1/1
f 884/47/1 881/46/1 882/48/1
f 884/47/1 885/44/1 883/49/1
f 888/1/1 889/111/1 887/3/1
f 890/108/1 891/25/1 889/111/1
f 892/22/1 893/127/1 891/25/1
f 894/129/1 895/44/1 893/127/1
f 900/108/1 897/3/1 898/1/1
f 902/22/1 899/111/1 900/108/1
f 904/129/1 901/25/1 902/22/1
f 904/129/1 905/44/1 903/127/1
f 2/1/1 4/5/1 3/2/1
f 6/4/1 5/7/1 3/2/1
f 6/4/1 8/9/1 7/6/1
f 10/8/1 9/11/1 7/6/1
f 12/10/1 11/13/1 9/11/1
f 12/10/1 14/15/1 13/12/1
f 16/14/3 15/17/2 13/12/1
f 18/16/5 17/19/4 15/17/2
f 18/16/5 20/20/7 19/18/6
f 20/20/7 22/23/8 21/21/8
f 24/22/10 23/25/9 21/21/8
f 26/24/12 25/27/11 23/25/9
f 28/26/13 27/29/13 25/27/11
f 28/26/13 30/31/13 29/28/13
f 32/30/15 31/33/14 29/28/13
f 32/30/15 34/35/17 33/32/16
f 36/34/18 35/37/18 33/32/16
f 38/36/8 37/39/8 35/37/18
f 40/38/20 39/41/19 37/39/8
f 42/40/22 41/43/21 39/41/19
f 44/42/24 43/45/23 41/43/21
f 44/42/24 46/50/26 45/44/25
f 48/1/27 50/48/27 49/46/27
f 52/47/27 51/49/27 49/46/27
f 52/47/27 54/50/27 53/44/27
f 58/22/29 57/25/28 55/3/8
f 60/50/31 59/44/30 57/25/28
f 64/22/35 63/25/34 61/3/32
f 66/50/13 65/44/13 63/25/34
f 70/51/39 69/53/38 67/3/36
f 72/52/41 71/55/40 69/53/38
f 74/54/40 73/57/40 71/55/40
f 74/54/40 76/59/40 75/56/40
f 78/58/43 77/61/42 75/56/40
f 78/58/43 80/62/45 79/60/44
f 80/62/45 82/65/46 81/63/46
f 84/64/46 83/67/46 81/63/46
f 84/64/46 86/69/48 85/66/47
f 88/68/50 87/71/49 85/66/47
f 88/68/50 90/72/40 89/70/40
f 90/72/40 92/74/52 91/73/51
f 92/74/52 94/22/54 93/25/53
f 94/22/54 96/77/56 95/75/55
f 98/76/58 97/79/57 95/75/55
f 100/78/60 99/81/59 97/79/57
f 100/78/60 102/82/61 101/80/61
f 102/82/61 104/85/63 103/83/62
f 106/84/65 105/87/64 103/83/62
f 106/84/65 108/89/66 107/86/66
f 110/88/66 109/91/66 107/86/66
f 112/90/68 111/93/67 109/91/66
f 112/90/68 114/94/70 113/92/69
f 114/94/70 116/97/13 115/95/13
f 118/96/13 117/98/13 115/95/13
f 118/96/13 120/50/13 119/44/13
f 124/48/74 123/46/73 121/3/71
f 124/48/74 126/47/1 125/49/1
f 128/50/1 127/44/1 125/49/1
f 132/99/78 131/101/77 129/3/75
f 134/100/80 133/103/79 131/101/77
f 136/102/1 135/105/1 133/103/79
f 136/102/1 138/106/1 137/104/1
f 138/106/1 140/109/1 139/107/1
f 142/108/1 141/111/1 139/107/1
f 142/108/1 144/112/1 143/110/1
f 146/48/82 145/46/81 143/110/1
f 146/48/82 148/115/84 147/113/83
f 150/114/46 149/117/46 147/113/83
f 150/114/46 152/118/56 151/116/56
f 154/22/86 153/25/85 151/116/56
f 154/22/86 156/121/88 155/119/87
f 158/120/1 157/123/1 155/119/87
f 158/120/1 160/124/1 159/122/1
f 160/124/1 162/47/90 161/49/89
f 162/47/90 164/126/92 163/125/91
f 164/126/92 166/129/94 165/127/93
f 168/128/13 167/131/13 165/127/93
f 168/128/13 170/133/13 169/130/13
f 172/132/96 171/135/95 169/130/13
f 172/132/96 174/137/98 173/134/97
f 176/136/18 175/138/18 173/134/97
f 176/136/18 178/50/8 177/44/8
f 180/1/99 182/48/101 181/46/100
f 182/48/101 184/47/103 183/49/102
f 186/50/105 185/44/104 183/49/102
f 188/1/27 190/50/27 189/44/27
f 192/1/46 194/52/46 193/55/56
f 196/59/46 195/56/46 193/55/56
f 196/59/46 198/62/56 197/60/56
f 198/62/56 200/64/46 199/67/56
f 202/68/46 201/71/46 199/67/56
f 204/74/56 203/73/56 201/71/46
f 204/74/56 206/77/46 205/75/46
f 206/77/46 208/78/107 207/81/106
f 208/78/107 210/85/109 209/83/108
f 212/89/40 211/86/40 209/83/108
f 212/89/40 214/90/111 213/93/110
f 214/90/111 216/97/113 215/95/112
f 216/97/113 218/50/46 217/44/46
f 220/1/1 222/52/1 221/55/1
f 224/59/115 223/56/114 221/55/1
f 226/62/117 225/60/116 223/56/114
f 226/62/117 228/64/46 227/67/46
f 230/68/56 229/71/46 227/67/46
f 232/74/56 231/73/56 229/71/46
f 234/77/119 233/75/118 231/73/56
f 234/77/119 236/78/121 235/81/120
f 238/85/13 237/83/13 235/81/120
f 238/85/13 240/89/13 239/86/13
f 242/90/123 241/93/122 239/86/13
f 242/90/123 244/97/125 243/95/124
f 246/50/40 245/44/40 243/95/124
f 248/1/126 250/140/128 249/139/127
f 250/140/128 252/102/130 251/105/129
f 252/102/130 254/142/1 253/141/131
f 256/108/133 255/111/132 253/141/131
f 256/108/133 258/144/135 257/143/134
f 260/115/13 259/113/13 257/143/134
f 260/115/13 262/146/137 261/145/136
f 264/22/139 263/25/138 261/145/136
f 264/22/139 266/148/1 265/147/1
f 268/124/141 267/122/140 265/147/1
f 270/149/143 269/150/142 267/122/140
f 272/129/13 271/127/13 269/150/142
f 274/151/145 273/152/144 271/127/13
f 274/151/145 276/132/147 275/135/146
f 276/132/147 278/154/1 277/153/1
f 280/50/1 279/44/1 277/153/1
f 282/1/1 284/157/1 283/155/1
f 286/156/1 285/159/1 283/155/1
f 286/156/1 288/161/149 287/158/148
f 290/160/151 289/162/150 287/158/148
f 290/160/151 292/22/13 291/25/13
f 292/22/13 294/165/13 293/163/13
f 296/164/153 295/167/152 293/163/13
f 298/166/155 297/169/154 295/167/152
f 300/168/18 299/170/18 297/169/154
f 302/50/8 301/44/8 299/170/18
f 304/1/157 306/102/159 305/105/158
f 308/108/8 307/111/8 305/105/158
f 308/108/8 310/115/161 309/113/160
f 312/22/163 311/25/162 309/113/160
f 312/22/163 314/124/13 313/122/13
f 316/129/165 315/127/164 313/122/13
f 316/129/165 318/132/167 317/135/166
f 320/50/8 319/44/8 317/135/166
f 324/102/168 323/105/1 321/3/1
f 324/102/168 326/108/170 325/111/169
f 328/115/172 327/113/171 325/111/169
f 328/115/172 330/22/18 329/25/18
f 332/124/8 331/122/8 329/25/18
f 334/129/174 333/127/173 331/122/8
f 336/132/176 335/135/175 333/127/173
f 336/132/176 338/50/13 337/44/13
f 340/1/1 342/157/1 341/155/1
f 344/156/1 343/159/1 341/155/1
f 346/161/1 345/158/1 343/159/1
f 346/161/1 348/160/1 347/162/1
f 350/22/1 349/25/1 347/162/1
f 350/22/1 352/165/178 351/163/177
f 354/164/180 353/167/179 351/163/177
f 354/164/180 356/166/13 355/169/13
f 356/166/13 358/168/13 357/170/13
f 358/168/13 360/50/13 359/44/13
f 364/108/184 363/111/183 361/3/181
f 366/22/186 365/25/185 363/111/183
f 366/22/186 368/129/56 367/127/56
f 368/129/56 370/50/46 369/44/46
f 374/22/188 373/25/187 371/3/46
f 376/50/190 375/44/189 373/25/187
f 378/1/191 380/173/46 379/171/56
f 382/172/193 381/174/192 379/171/56
f 384/48/195 383/46/194 381/174/192
f 384/48/195 386/176/197 385/175/196
f 386/176/197 388/178/13 387/177/13
f 388/178/13 390/47/13 389/49/13
f 392/179/13 391/181/13 389/49/13
f 392/179/13 394/182/13 393/180/13
f 396/50/13 395/44/13 393/180/13
f 400/108/198 399/111/198 397/3/198
f 402/22/198 401/25/198 399/111/198
f 404/129/200 403/127/199 401/25/198
f 404/129/200 406/50/202 405/44/201
f 408/1/46 410/185/46 409/183/56
f 412/184/46 411/187/56 409/183/56
f 414/186/56 413/189/56 411/187/56
f 414/186/56 416/191/56 415/188/56
f 418/190/56 417/193/56 415/188/56
f 420/192/46 419/194/56 417/193/56
f 420/192/46 422/50/56 421/44/56
f 424/1/27 426/108/204 425/111/203
f 428/22/206 427/25/205 425/111/203
f 428/22/206 430/129/13 429/127/13
f 432/50/13 431/44/13 429/127/13
f 436/50/1 435/44/1 433/3/1
f 438/1/18 440/22/209 439/25/208
f 440/22/209 442/50/211 441/44/210
f 446/50/215 445/44/214 443/3/212
f 450/22/46 449/25/46 447/3/46
f 450/22/46 452/50/46 451/44/46
f 456/156/56 455/159/56 453/3/56
f 456/156/56 458/160/56 457/162/56
f 460/165/56 459/163/46 457/162/56
f 462/166/56 461/169/46 459/163/46
f 462/166/56 464/50/56 463/44/56
f 466/1/46 468/50/46 467/44/46
f 472/185/1 471/183/1 469/3/1
f 472/185/1 474/184/217 473/187/216
f 476/186/219 475/189/218 473/187/216
f 478/191/221 477/188/220 475/189/218
f 478/191/221 480/190/223 479/193/222
f 480/190/223 482/192/225 481/194/224
f 482/192/225 484/50/56 483/44/56
f 486/1/1 488/22/1 487/25/1
f 490/50/1 489/44/1 487/25/1
f 494/48/229 493/46/228 491/3/226
f 494/48/229 496/47/1 495/49/1
f 498/50/1 497/44/1 495/49/1
f 502/48/232 501/46/231 499/3/230
f 504/47/234 503/49/233 501/46/231
f 504/47/234 506/50/56 505/44/235
f 510/106/237 509/104/236 507/3/56
f 512/48/239 511/46/238 509/104/236
f 512/48/239 514/22/241 513/25/240
f 516/47/243 515/49/242 513/25/240
f 516/47/243 518/133/245 517/130/244
f 518/133/245 520/50/13 519/44/13
f 524/50/198 523/44/198 521/3/198
f 528/156/13 527/159/13 525/3/13
f 528/156/13 530/160/13 529/162/13
f 532/165/247 531/163/246 529/162/13
f 532/165/247 534/166/249 533/169/248
f 536/50/27 535/44/27 533/169/248
f 540/156/13 539/159/13 537/3/13
f 540/156/13 542/160/251 541/162/250
f 544/165/253 543/163/252 541/162/250
f 546/166/27 545/169/27 543/163/252
f 546/166/27 548/50/27 547/44/27
f 550/1/255 552/5/257 551/2/256
f 554/4/56 553/7/56 551/2/256
f 554/4/56 556/9/46 555/6/46
f 558/8/46 557/11/46 555/6/46
f 558/8/46 560/10/259 559/13/258
f 562/15/261 561/12/260 559/13/258
f 562/15/261 564/14/1 563/17/262
f 564/14/1 566/16/1 565/19/1
f 568/20/264 567/18/263 565/19/1
f 568/20/264 570/23/265 569/21/265
f 570/23/265 572/22/267 571/25/266
f 574/24/269 573/27/268 571/25/266
f 574/24/269 576/26/8 575/29/8
f 576/26/8 578/31/18 577/28/18
f 578/31/18 580/30/18 579/33/18
f 582/35/8 581/32/8 579/33/18
f 582/35/8 584/34/271 583/37/270
f 586/36/273 585/39/272 583/37/270
f 588/38/13 587/41/13 585/39/272
f 588/38/13 590/40/13 589/43/13
f 592/42/274 591/45/13 589/43/13
f 592/42/274 594/50/276 593/44/275
f 596/1/278 598/50/280 597/44/279
f 600/1/13 602/48/13 601/46/13
f 604/47/13 603/49/13 601/46/13
f 606/50/13 605/44/13 603/49/13
f 610/173/284 609/171/283 607/3/281
f 612/172/286 611/174/285 609/171/283
f 614/48/288 613/46/287 611/174/285
f 614/48/288 616/176/13 615/175/289
f 618/178/291 617/177/290 615/175/289
f 618/178/291 620/47/293 619/49/292
f 620/47/293 622/179/1 621/181/1
f 624/182/295 623/180/294 621/181/1
f 626/50/297 625/44/296 623/180/294
f 630/48/301 629/46/300 627/3/298
f 632/47/13 631/49/13 629/46/300
f 634/50/13 633/44/13 631/49/13
f 638/22/56 637/25/56 635/3/46
f 640/50/46 639/44/46 637/25/56
f 642/1/1 644/50/1 643/44/1
f 648/50/1 647/44/1 645/3/1
f 652/22/46 651/25/46 649/3/56
f 654/50/56 653/44/56 651/25/46
f 658/48/1 657/46/1 655/3/1
f 658/48/1 660/47/1 659/49/1
f 662/50/1 661/44/1 659/49/1
f 664/1/302 666/156/304 665/159/303
f 666/156/304 668/160/66 667/162/305
f 668/160/66 670/165/66 669/163/66
f 670/165/66 672/166/306 671/169/306
f 672/166/306 674/50/66 673/44/306
f 676/1/13 678/100/13 677/103/13
f 680/106/307 679/104/13 677/103/13
f 680/106/307 682/108/309 681/111/308
f 684/48/311 683/46/310 681/111/308
f 684/48/311 686/114/66 685/117/306
f 686/114/66 688/22/66 687/25/66
f 690/120/313 689/123/312 687/25/66
f 692/47/315 691/49/314 689/123/312
f 694/129/13 693/127/13 691/49/314
f 696/133/317 695/130/316 693/127/13
f 696/133/317 698/137/319 697/134/318
f 698/137/319 700/50/1 699/44/1
f 704/102/321 703/105/320 701/3/40
f 706/108/323 705/111/322 703/105/320
f 708/115/61 707/113/61 705/111/322
f 710/22/325 709/25/324 707/113/61
f 710/22/325 712/124/327 711/122/326
f 714/129/13 713/127/13 711/122/326
f 714/129/13 716/132/13 715/135/13
f 718/50/13 717/44/13 715/135/13
f 722/4/331 721/7/330 719/3/328
f 722/4/331 724/8/13 723/11/13
f 726/15/333 725/12/332 723/11/13
f 726/15/333 728/16/335 727/19/334
f 728/16/335 730/23/1 729/21/1
f 732/24/337 731/27/336 729/21/1
f 734/31/338 733/28/214 731/27/336
f 734/31/338 736/35/13 735/32/13
f 736/35/13 738/36/340 737/39/339
f 740/40/342 739/43/341 737/39/339
f 740/40/342 742/50/263 741/44/343
f 744/1/344 746/4/345 745/7/344
f 746/4/345 748/8/347 747/11/346
f 748/8/347 750/15/227 749/12/348
f 752/16/350 751/19/349 749/12/348
f 752/16/350 754/23/1 753/21/1
f 756/24/1 755/27/1 753/21/1
f 756/24/1 758/31/352 757/28/351
f 760/35/354 759/32/353 757/28/351
f 762/36/356 761/39/355 759/32/353
f 764/40/358 763/43/357 761/39/355
f 764/40/358 766/50/360 765/44/359
f 770/173/362 769/171/361 767/3/1
f 772/172/364 771/174/363 769/171/361
f 772/172/364 774/48/366 773/46/365
f 774/48/366 776/176/368 775/175/367
f 776/176/368 778/178/18 777/177/18
f 780/47/370 779/49/369 777/177/18
f 780/47/370 782/179/372 781/181/371
f 782/179/372 784/182/374 783/180/373
f 786/50/376 785/44/375 783/180/373
f 788/1/1 790/156/1 789/159/1
f 790/156/1 792/160/1 791/162/1
f 794/165/1 793/163/1 791/162/1
f 794/165/1 796/166/1 795/169/1
f 796/166/1 798/50/1 797/44/1
f 800/1/1 802/48/377 801/46/1
f 802/48/377 804/47/379 803/49/378
f 804/47/379 806/50/381 805/44/380
f 810/185/383 809/183/382 807/3/56
f 810/185/383 812/184/385 811/187/384
f 812/184/385 814/186/1 813/189/1
f 816/191/1 815/188/1 813/189/1
f 816/191/1 818/190/1 817/193/1
f 820/192/1 819/194/1 817/193/1
f 820/192/1 822/50/1 821/44/1
f 824/1/263 826/48/1 825/46/386
f 828/47/388 827/49/387 825/46/386
f 830/50/389 829/44/40 827/49/387
f 834/156/306 833/159/306 831/3/66
f 834/156/306 836/160/391 835/162/390
f 836/160/391 838/165/393 837/163/392
f 838/165/393 840/166/1 839/169/1
f 840/166/1 842/50/1 841/44/1
f 844/1/1 846/106/1 845/104/1
f 848/48/395 847/46/394 845/104/1
f 850/22/397 849/25/396 847/46/394
f 850/22/397 852/47/66 851/49/66
f 854/133/66 853/130/66 851/49/66
f 856/50/66 855/44/66 853/130/66
f 860/50/1 859/44/1 857/3/1
f 862/1/1 864/50/1 863/44/1
f 868/22/1 867/25/1 865/3/1
f 870/50/1 869/44/1 867/25/1
f 872/1/1 874/48/1 873/46/1
f 874/48/1 876/47/1 875/49/1
f 876/47/1 878/50/1 877/44/1
f 882/48/1 881/46/1 879/3/1
f 884/47/1 883/49/1 881/46/1
f 884/47/1 886/50/1 885/44/1
f 888/1/1 890/108/1 889/111/1
f 890/108/1 892/22/1 891/25/1
f 892/22/1 894/129/1 893/127/1
f 894/129/1 896/50/1 895/44/1
f 900/108/1 899/111/1 897/3/1
f 902/22/1 901/25/1 899/111/1
f 904/129/1 903/127/1 901/25/1
f 904/129/1 906/50/1 905/44/1
